<svg xmlns="http://www.w3.org/2000/svg" xmlns:xlink="http://www.w3.org/1999/xlink" width="42" height="42" viewBox="0 0 42 42"><defs><linearGradient id="a" x1="0.5" x2="0.5" y2="1" gradientUnits="objectBoundingBox"><stop offset="0" stop-color="#667eea"/><stop offset="1" stop-color="#764ba2"/></linearGradient></defs><g transform="translate(-3 -3)"><path d="M24,3A20.871,20.871,0,0,0,3,24,20.871,20.871,0,0,0,24,45,20.871,20.871,0,0,0,45,24,20.871,20.871,0,0,0,24,3Zm8.1,31.5L24,26.4l-8.1,8.1-2.4-2.4L21.6,24l-8.1-8.1,2.4-2.4L24,21.6l8.1-8.1,2.4,2.4L26.4,24l8.1,8.1Z" fill="url(#a)"/></g></svg>