<svg width="32" height="32" viewBox="0 0 32 32" fill="none" xmlns="http://www.w3.org/2000/svg">
<path d="M15.0737 6.41416L11 16.494L11.6254 18.0665H16.612L11.2851 28.5789L22 16.138L21.7149 13.7402L15.725 16.1876L21.9575 6.67932L21.4109 4.00049L15.0737 6.41416Z" fill="#FF9E00"/>
<g style="mix-blend-mode:multiply" opacity="0.62">
<path d="M16.2969 18.0664V15.9428L16.0254 15.8H11.3276L11 16.5257L11.6254 18.0664H16.2969Z" fill="#FF9500"/>
</g>
<g style="mix-blend-mode:multiply" opacity="0.35">
<path d="M21.7149 13.7546L20.0378 14.4379L12.1125 27.0121L11.2852 28.636L22 16.1666L21.7149 13.7546Z" fill="#FF9A00"/>
</g>
<path d="M14.7886 4L11 16.4649H15.9868L11 29L21.7149 13.7332L15.4398 13.771L21.4109 4H14.7886Z" fill="#FFE603"/>
</svg>
