<svg id="Layer_1" data-name="Layer 1" xmlns="http://www.w3.org/2000/svg" viewBox="0 0 225.57 234.66"><defs><style>.cls-1{fill:#fff;}</style></defs><title>gift-box</title><path class="cls-1" d="M284.2,785.31a32.88,32.88,0,0,1-3.61-1.81c-3.62-2.4-5.08-5.91-5.08-10.17q0-25.67,0-51.32,0-14.32,0-28.64c0-8,4.47-12.45,12.52-12.46h73.08c4.42,0,5.52,1.11,5.52,5.57q0,47.07-.05,94.16c0,1.56-.82,3.12-1.26,4.67Z" transform="translate(-263.12 -550.66)"/><path class="cls-1" d="M386.88,785.31c-.59-1.23-1.7-2.47-1.7-3.71q-.14-47.88-.07-95.78c0-3.6,1.24-4.89,4.81-4.9,24.89,0,49.79-.06,74.69,0,7.07,0,11.6,4.69,11.6,11.73q.06,40.44,0,80.88c0,5.7-2.61,9.29-8,11.29a4.68,4.68,0,0,0-.72.47Z" transform="translate(-263.12 -550.66)"/><path class="cls-1" d="M318,668.58H275.88c-8.54,0-12.75-4.26-12.75-12.84q0-15.35,0-30.69c0-8.29,4.27-12.63,12.48-12.63H361.5c4.09,0,5.14,1.05,5.14,5.14q0,22.79,0,45.57c0,4.85-.58,5.45-5.34,5.45Z" transform="translate(-263.12 -550.66)"/><path class="cls-1" d="M433.6,612.41c14.12,0,28.25.2,42.37-.07,8.09-.15,12.91,5.39,12.72,12.78-.27,10.38-.06,20.77-.07,31.15,0,7.82-4.37,12.29-12.14,12.3q-43.05,0-86.12,0c-4.56,0-5.25-.76-5.25-5.39q0-22.91,0-45.81c0-4.06.9-5,5-5Z" transform="translate(-263.12 -550.66)"/><path class="cls-1" d="M328.43,604.25c-8.44-.28-16.76-1.16-24.48-5-11.12-5.52-16-16.19-13.15-28.26,1.68-7,4.75-13.06,11.2-16.83,5.71-3.33,11.94-3.92,18.39-3.31,10.18,1,19.3,5,28.06,9.89,6.86,3.86,13.45,8.19,18.78,14.1a23.92,23.92,0,0,1,3.34,4.62c2.9,5.36,1.87,10.82-2.65,14.91-3.91,3.54-8.71,5.3-13.66,6.64A98.7,98.7,0,0,1,328.43,604.25Zm22-20.15.26-1.06c-4.16-2.64-8.22-5.46-12.5-7.89-6.54-3.7-13.45-6.53-21.11-6.83-2.63-.1-5.8-.5-7.31,2.14-3,5.23-3.9,11.12,3.5,13.72,8,2.8,16.18,2.74,24.4,2C342,585.75,346.2,584.8,350.45,584.1Z" transform="translate(-263.12 -550.66)"/><path class="cls-1" d="M426.49,604.35c-13.88-.27-24.4-1.38-34.45-5.23a28.88,28.88,0,0,1-4.13-2c-9.37-5.33-10.68-14.07-3.41-22,5.48-6,12.14-10.46,19.14-14.39,8.76-4.91,17.89-8.91,28.07-9.86,6.44-.59,12.69,0,18.36,3.38,7.22,4.3,10.43,11.18,11.48,19.12,1.84,13.81-4.93,24-18.89,28C436.4,603.12,429.82,603.75,426.49,604.35ZM401.34,583l.26,1.12c4.18.69,8.33,1.58,12.53,2,7.47.79,14.95.84,22.28-1.18,7.53-2.06,9.32-5.43,6.86-12.64-.07-.21-.07-.51-.22-.63-1.3-1.07-2.5-2.44-4-3.06a10.94,10.94,0,0,0-4.52-.29c-7.34.37-14,3-20.29,6.55C409.82,577.37,405.63,580.27,401.34,583Z" transform="translate(-263.12 -550.66)"/></svg>