<svg xmlns="http://www.w3.org/2000/svg" width="21.562" height="22" viewBox="0 0 21.562 22"><g transform="translate(-30.025 -29.098)"><path d="M86.468,69.029a13.759,13.759,0,0,0-.192-2.229H75.9v4.242h5.943a5,5,0,0,1-2.2,3.331l3.547,2.756a10.817,10.817,0,0,0,3.283-8.1Z" transform="translate(-34.881 -28.667)" fill="#4280ef"/><path d="M44.726,92.767a10.523,10.523,0,0,0,7.285-2.66l-3.547-2.732A6.672,6.672,0,0,1,38.543,83.9L34.9,86.7A10.989,10.989,0,0,0,44.726,92.767Z" transform="translate(-3.707 -41.669)" fill="#34a353"/><path d="M34.836,61.446a6.682,6.682,0,0,1,0-4.218L31.193,54.4a11.015,11.015,0,0,0,0,9.873Z" transform="translate(0 -19.238)" fill="#f6b704"/><path d="M44.726,33.46a6,6,0,0,1,4.218,1.654l3.139-3.163A10.586,10.586,0,0,0,44.726,29.1,10.989,10.989,0,0,0,34.9,35.162l3.643,2.828A6.58,6.58,0,0,1,44.726,33.46Z" transform="translate(-3.707 0)" fill="#e54335"/></g></svg>