<svg xmlns="http://www.w3.org/2000/svg" width="261.378" height="79.487" viewBox="0 0 261.378 79.487"><path d="M2419.274,501.113a8.32,8.32,0,0,1,8.311,8.309V568.7a8.321,8.321,0,0,1-8.311,8.311H2178.1a8.322,8.322,0,0,1-8.311-8.311V509.422a8.32,8.32,0,0,1,8.311-8.309h241.17m0-1.793H2178.1a10.1,10.1,0,0,0-10.1,10.1V568.7a10.1,10.1,0,0,0,10.1,10.1h241.17a10.1,10.1,0,0,0,10.1-10.1V509.422A10.1,10.1,0,0,0,2419.274,499.32Z" transform="translate(-2168 -499.32)" fill="#fff"/><path d="M2574.186,719.385h3.646v8.268a11.6,11.6,0,0,1-3.734,1.956,14.315,14.315,0,0,1-4.387.683,11.834,11.834,0,0,1-5.719-1.379,10.254,10.254,0,0,1-4-3.808,11.077,11.077,0,0,1,0-10.966,10.206,10.206,0,0,1,4.016-3.808,11.963,11.963,0,0,1,5.764-1.379,12.566,12.566,0,0,1,4.741.86,9.286,9.286,0,0,1,3.585,2.51l-2.429,2.374a7.8,7.8,0,0,0-5.721-2.37,8.1,8.1,0,0,0-3.9.918,6.7,6.7,0,0,0-2.666,2.578,7.411,7.411,0,0,0-.965,3.793,7.283,7.283,0,0,0,.965,3.734,6.9,6.9,0,0,0,2.666,2.608,7.814,7.814,0,0,0,3.868.948,8.346,8.346,0,0,0,4.267-1.067Z" transform="translate(-2488.527 -671.371)" fill="#fff"/><path d="M2689.3,752.266a7.539,7.539,0,0,1-3.008-2.888,8.153,8.153,0,0,1-1.076-4.195,8.071,8.071,0,0,1,1.076-4.177,7.579,7.579,0,0,1,3.008-2.868,9.6,9.6,0,0,1,8.682,0,7.58,7.58,0,0,1,3.008,2.868,8.071,8.071,0,0,1,1.076,4.177,8.158,8.158,0,0,1-1.076,4.195,7.539,7.539,0,0,1-3.008,2.888A9.6,9.6,0,0,1,2689.3,752.266Zm7.708-3.5a5.485,5.485,0,0,0,0-7.171,4.852,4.852,0,0,0-6.742,0,5.531,5.531,0,0,0,0,7.171,4.476,4.476,0,0,0,3.363,1.362A4.528,4.528,0,0,0,2697.006,748.771Z" transform="translate(-2592.49 -694.473)" fill="#fff"/><path d="M2795.9,752.266a7.563,7.563,0,0,1-3.008-2.888,8.17,8.17,0,0,1-1.075-4.195,8.079,8.079,0,0,1,1.075-4.177,7.609,7.609,0,0,1,3.008-2.868,9.6,9.6,0,0,1,8.684,0,7.609,7.609,0,0,1,3.008,2.868,8.079,8.079,0,0,1,1.075,4.177,8.168,8.168,0,0,1-1.075,4.195,7.563,7.563,0,0,1-3.016,2.888,9.6,9.6,0,0,1-8.684,0Zm7.709-3.5a5.486,5.486,0,0,0,0-7.171,4.85,4.85,0,0,0-6.74,0,5.531,5.531,0,0,0,0,7.171,4.845,4.845,0,0,0,6.737,0Z" transform="translate(-2679.981 -694.473)" fill="#fff"/><path d="M2915.448,737.227v13.424q0,8.358-8.535,8.358a15.829,15.829,0,0,1-4.326-.577,9.2,9.2,0,0,1-3.379-1.674l1.66-2.786a7.919,7.919,0,0,0,2.623,1.377,10.272,10.272,0,0,0,3.216.52,5.311,5.311,0,0,0,3.822-1.185,4.834,4.834,0,0,0,1.215-3.616v-.83a6.086,6.086,0,0,1-2.312,1.57,8.156,8.156,0,0,1-2.992.538,8.568,8.568,0,0,1-4.075-.964,7.231,7.231,0,0,1-2.868-2.711,7.608,7.608,0,0,1-1.052-4,7.529,7.529,0,0,1,1.052-3.985,7.169,7.169,0,0,1,2.868-2.689,8.708,8.708,0,0,1,4.075-.948,8.332,8.332,0,0,1,3.126.565,5.78,5.78,0,0,1,2.356,1.717v-2.1Zm-4.993,10.713a4.267,4.267,0,0,0,1.348-3.275,4.185,4.185,0,0,0-1.348-3.227,5.453,5.453,0,0,0-6.934,0,4.2,4.2,0,0,0-1.35,3.227,4.272,4.272,0,0,0,1.35,3.275,5.417,5.417,0,0,0,6.934,0Z" transform="translate(-2767.495 -694.428)" fill="#fff"/><path d="M3020.41,703.67h3.706v21.989h-3.706Z" transform="translate(-2867.597 -667.036)" fill="#fff"/><path d="M3077.108,746.332h-12.417a4.3,4.3,0,0,0,1.7,2.77,5.56,5.56,0,0,0,3.422,1.024,5.784,5.784,0,0,0,4.3-1.719l1.987,2.282a6.682,6.682,0,0,1-2.689,1.925,10.683,10.683,0,0,1-8.27-.385,7.469,7.469,0,0,1-3.067-2.888,8.168,8.168,0,0,1-1.076-4.195,8.286,8.286,0,0,1,1.052-4.163,7.465,7.465,0,0,1,2.919-2.89,8.517,8.517,0,0,1,4.209-1.038,8.311,8.311,0,0,1,4.134,1.024,7.238,7.238,0,0,1,2.845,2.868,8.728,8.728,0,0,1,1.022,4.283Q3077.167,745.62,3077.108,746.332Zm-10.95-5.262a4.422,4.422,0,0,0-1.5,2.8h8.979a4.326,4.326,0,0,0-4.475-3.853A4.466,4.466,0,0,0,3066.158,741.071Z" transform="translate(-2900.913 -694.435)" fill="#fff"/><path d="M3231.852,711.5a6.84,6.84,0,0,1,3.068,2.549,7.793,7.793,0,0,1,0,7.87,6.8,6.8,0,0,1-3.068,2.564,11.408,11.408,0,0,1-4.7.9h-4.681v5.986h-3.853V710.61h8.533A11.488,11.488,0,0,1,3231.852,711.5Zm-1.052,9.543a4.215,4.215,0,0,0,0-6.1,5.888,5.888,0,0,0-3.824-1.076h-4.5v8.246h4.5A5.938,5.938,0,0,0,3230.8,721.042Z" transform="translate(-3030.273 -672.732)" fill="#fff"/><path d="M3336.65,703.67h3.7v21.989h-3.7Z" transform="translate(-3127.144 -667.036)" fill="#fff"/><path d="M3390.678,738.733a6.483,6.483,0,0,1,1.854,5.054v9.276h-3.5v-1.925a4.317,4.317,0,0,1-1.942,1.585,7.583,7.583,0,0,1-3.037.549,7.441,7.441,0,0,1-3.112-.608,4.812,4.812,0,0,1-2.06-1.689,4.286,4.286,0,0,1-.726-2.445,4.194,4.194,0,0,1,1.584-3.422q1.585-1.291,4.995-1.289h4.089v-.238a3.242,3.242,0,0,0-.993-2.547,4.321,4.321,0,0,0-2.949-.9,8.529,8.529,0,0,0-2.623.414,6.5,6.5,0,0,0-2.178,1.156l-1.452-2.689a9.017,9.017,0,0,1,2.994-1.454,13.335,13.335,0,0,1,3.7-.5A7.72,7.72,0,0,1,3390.678,738.733Zm-3.377,11.2a3.463,3.463,0,0,0,1.526-1.821v-1.838H3385q-3.2,0-3.2,2.1a1.887,1.887,0,0,0,.8,1.6,3.639,3.639,0,0,0,2.221.593,4.789,4.789,0,0,0,2.472-.638Z" transform="translate(-3161.211 -694.439)" fill="#fff"/><path d="M3484.5,738.06l-7.409,17.1a7.971,7.971,0,0,1-2.519,3.63,6.027,6.027,0,0,1-3.585,1.052,7.367,7.367,0,0,1-2.341-.385,5.166,5.166,0,0,1-1.9-1.067l1.481-2.727a4.09,4.09,0,0,0,1.255.8,3.851,3.851,0,0,0,1.466.3,2.526,2.526,0,0,0,1.613-.5,4.489,4.489,0,0,0,1.171-1.689l.267-.624L3467.1,738.06h3.853l4.987,11.7,5.009-11.7Z" transform="translate(-3233.921 -695.261)" fill="#fff"/><path d="M2435.74,689.046l-9.958-5.746-8.191,7.917,7.485,7.235,10.665-6.154a1.879,1.879,0,0,0,0-3.252Z" transform="translate(-2372.846 -650.318)" fill="#fff"/><path d="M125.726,93.232l-10.959-6.325L90.75,74.6l27.126,26.22Z" transform="translate(-74.481 -61.226)" fill="#fff"/><path d="M92.97,261.257l23.66-13.033,10.213-5.9L119.7,235.42Z" transform="translate(-76.303 -193.216)" fill="#fff"/><path d="M81.7,80.51l-.025,52.957,27.4-26.491Z" transform="translate(-67.029 -66.077)" fill="#fff"/><text transform="translate(72.378 25.373)" fill="#fff" font-size="10" font-family="SegoeUI-Bold, Segoe UI" font-weight="700"><tspan x="0" y="0">ANDROID APP ON</tspan></text></svg>