<svg id="OBJECTS" xmlns="http://www.w3.org/2000/svg" xmlns:xlink="http://www.w3.org/1999/xlink" viewBox="0 0 347.77 219.85"><defs><style>.cls-1{fill:#f5d100;}.cls-2{fill:#eb8175;}.cls-3{fill:#ebebff;}.cls-4{fill:#d6d7f4;}.cls-5{fill:#3d5ac4;}.cls-10,.cls-6{fill:#5571e9;}.cls-7{fill:#27429c;}.cls-8{fill:#312c76;}.cls-9{fill:#151247;}.cls-10{opacity:0.16;}.cls-11{clip-path:url(#clip-path);}.cls-12{fill:#fff;}.cls-13{fill:#14103d;}.cls-14{fill:#231c61;}.cls-15{fill:#e1ad9d;}.cls-16{fill:#c8c6f2;}.cls-17{fill:#d8d7fd;}.cls-18{fill:#091218;}.cls-19{fill:#1b2934;}.cls-20{fill:#e16c5f;}.cls-21{clip-path:url(#clip-path-2);}.cls-22,.cls-23,.cls-27,.cls-28,.cls-29,.cls-30,.cls-32,.cls-33,.cls-35,.cls-40{fill:none;}.cls-22,.cls-27{stroke:#f1ab00;}.cls-22,.cls-27,.cls-29,.cls-30,.cls-32,.cls-33{stroke-miterlimit:10;}.cls-22{stroke-width:0.28px;}.cls-23,.cls-28{stroke:#fff;}.cls-23,.cls-28,.cls-35,.cls-40{stroke-linecap:round;stroke-linejoin:round;}.cls-23{stroke-width:1.12px;}.cls-24{fill:#334fbe;}.cls-25{fill:#4265d1;}.cls-26{clip-path:url(#clip-path-3);}.cls-27{stroke-width:0.28px;}.cls-28{stroke-width:1.13px;}.cls-29,.cls-40{stroke:#3d5ac4;}.cls-29,.cls-30,.cls-35{stroke-width:2.65px;}.cls-30,.cls-35{stroke:#5571e9;}.cls-31{fill:#2f4dab;}.cls-32,.cls-33{stroke:#231c61;}.cls-32{stroke-width:2.16px;}.cls-33{stroke-width:1.11px;}.cls-34{fill:#373482;}.cls-36{clip-path:url(#clip-path-4);}.cls-37{fill:#fafafa;}.cls-38{fill:#e8c400;}.cls-39{clip-path:url(#clip-path-5);}.cls-40{stroke-width:1.14px;}</style><clipPath id="clip-path" transform="translate(-303.93 -146.78)"><rect id="_Rectangle_" data-name="&lt;Rectangle&gt;" class="cls-1" x="396.65" y="293.17" width="163.89" height="18.09"/></clipPath><clipPath id="clip-path-2" transform="translate(-303.93 -146.78)"><path id="_Clipping_Path_" data-name="&lt;Clipping Path&gt;" class="cls-2" d="M406.87,210a5.4,5.4,0,1,0,7.17-2.6A5.41,5.41,0,0,0,406.87,210Z"/></clipPath><clipPath id="clip-path-3" transform="translate(-303.93 -146.78)"><path id="_Clipping_Path_2" data-name="&lt;Clipping Path&gt;" class="cls-2" d="M509.23,290.81a5.46,5.46,0,1,0,7.67-.76A5.46,5.46,0,0,0,509.23,290.81Z"/></clipPath><clipPath id="clip-path-4" transform="translate(-303.93 -146.78)"><path id="_Clipping_Path_3" data-name="&lt;Clipping Path&gt;" class="cls-1" d="M419.83,363.05l9.87-25.52a1.42,1.42,0,0,1,2.66,0l9.87,25.52Z"/></clipPath><clipPath id="clip-path-5" transform="translate(-303.93 -146.78)"><path id="_Clipping_Path_4" data-name="&lt;Clipping Path&gt;" class="cls-1" d="M563.18,363.12l9.88-25.51a1.42,1.42,0,0,1,2.66,0l9.87,25.51Z"/></clipPath></defs><title>2451223</title><path class="cls-3" d="M648.22,303.67a73.67,73.67,0,0,0,1.93-37.27c-4.18-19.32-17.64-42.71-56.48-52.8-73.53-19.11-99.07-75-167.85-57.19,0,0-36.92,6.71-54.39,67.79s-85.92,62.12-62.35,115.3c3.85,8.7,14.22,18.18,29.12,27.14l279-.94C636.42,342.52,642.42,322.47,648.22,303.67Z" transform="translate(-303.93 -146.78)"/><path class="cls-4" d="M582.4,260H571.94V248.54a12.13,12.13,0,0,0-9.37-11.8V222.53h-3.85v13.94a12.13,12.13,0,0,0-11,12.07v11.78H537.28v13.14h-.7v24.4l-18.92-.13V268.56H496v21.38H480.76V310.7H462.37v55H613.18V296.35h-30.8Z" transform="translate(-303.93 -146.78)"/><polygon class="cls-4" points="62.52 143.42 62.52 116.09 72.76 116.09 72.76 101.47 76.61 101.47 76.61 116.09 86.05 116.09 86.05 143.42 96.64 143.42 96.64 159.79 113.52 159.79 113.52 104.02 148.75 104.02 148.75 218.89 125.79 218.89 115.9 218.89 91.01 218.89 79.52 218.89 49.49 218.89 49.49 143.42 62.52 143.42"/><path class="cls-5" d="M558.93,365.4l-160.58.12a11,11,0,0,1-11-11h0l182.6-.14h0A11,11,0,0,1,558.93,365.4Z" transform="translate(-303.93 -146.78)"/><path class="cls-6" d="M558.93,361.61l-160.59.12A11,11,0,0,1,388,354.52h-.68a11,11,0,0,0,11,11l160.58-.12a11,11,0,0,0,11-11h-.68A11,11,0,0,1,558.93,361.61Z" transform="translate(-303.93 -146.78)"/><path class="cls-7" d="M489,358.13H468.26a3.69,3.69,0,0,1-3.69-3.68h0l28.12,0h0A3.7,3.7,0,0,1,489,358.13Z" transform="translate(-303.93 -146.78)"/><path class="cls-6" d="M560.54,354.38l-163.82.13-.07-98.87a10.26,10.26,0,0,1,10.26-10.28l143.27-.11a10.27,10.27,0,0,1,10.28,10.26Z" transform="translate(-303.93 -146.78)"/><rect class="cls-8" x="101.29" y="107.06" width="146.75" height="92.06"/><rect class="cls-9" x="101.32" y="190.32" width="146.75" height="8.8"/><rect class="cls-9" x="101.25" y="107.06" width="146.75" height="4.37"/><polygon class="cls-10" points="150.19 107.08 101.29 156.06 101.32 199.18 101.43 199.18 193.42 107.05 150.19 107.08"/><polygon class="cls-10" points="120.27 199.17 141.94 199.15 233.93 107.01 212.26 107.03 120.27 199.17"/><polygon class="cls-10" points="230.81 199.08 248.06 181.8 248.03 149.12 196.26 199.1 230.81 199.08"/><rect id="_Rectangle_2" data-name="&lt;Rectangle&gt;" class="cls-1" x="92.72" y="146.38" width="163.89" height="18.09"/><g class="cls-11"><polygon class="cls-12" points="113.17 170.82 99.06 170.82 111.2 143.06 125.3 143.06 113.17 170.82"/><polygon class="cls-12" points="143.24 170.82 129.14 170.82 141.28 143.06 155.38 143.06 143.24 170.82"/><polygon class="cls-12" points="173.31 170.82 159.21 170.82 171.35 143.06 185.45 143.06 173.31 170.82"/><polygon class="cls-12" points="203.38 170.82 189.28 170.82 201.42 143.06 215.52 143.06 203.38 170.82"/><polygon class="cls-12" points="233.45 170.82 219.35 170.82 231.49 143.06 245.59 143.06 233.45 170.82"/></g><path class="cls-13" d="M383.49,261.93l-3.21.12-1.87-.59a2,2,0,0,0-2.31.8l-.23.35,9.36,5.17L387,263.9Z" transform="translate(-303.93 -146.78)"/><path class="cls-13" d="M385.24,267.87l-9.44-5.22.33-.6a.24.24,0,0,1,.33-.09l9.22,5.09-.44.82" transform="translate(-303.93 -146.78)"/><polygon class="cls-2" points="83.12 117.12 85.59 112.83 83.12 108.42 79.56 115.14 83.12 117.12"/><path class="cls-13" d="M406.43,239.27s-13.35-3.83-14.63-.23-9.07,19.55-9.07,19.55l5.81,3,8.71-15.14,11.73-1Z" transform="translate(-303.93 -146.78)"/><path class="cls-13" d="M395.58,266.79,393,268.45l-1.93.39a2,2,0,0,0-1.63,1.82l0,.42h10.7l-.3-4.28Z" transform="translate(-303.93 -146.78)"/><path class="cls-13" d="M400.12,271.14H389.33v-.68a.24.24,0,0,1,.24-.24l10.54,0v.93" transform="translate(-303.93 -146.78)"/><polygon class="cls-2" points="95.85 120.01 96.19 112.83 91.93 112.35 91.65 120 95.85 120.01"/><path class="cls-14" d="M408.23,238.66l-12.58.57s-1.81.1-1.69,4.33.11,21.28.11,21.28l6.05.21,1.15-17.85,12.6-.16a6.76,6.76,0,0,0,6.17-4,5,5,0,0,0,.35-3.08Z" transform="translate(-303.93 -146.78)"/><path class="cls-15" d="M396.29,236.12c0,1.19-.8,1.37-2,1.37s-2.32-.17-2.32-1.36a2.16,2.16,0,1,1,4.32,0Z" transform="translate(-303.93 -146.78)"/><path class="cls-15" d="M397.81,237.34h-2.5a1.2,1.2,0,0,1-1.19-1.18h0a1.2,1.2,0,0,1,1.19-1.19h2.5a1.19,1.19,0,0,1,1.19,1.18h0A1.2,1.2,0,0,1,397.81,237.34Z" transform="translate(-303.93 -146.78)"/><path class="cls-16" d="M397.72,237.59l-.84-4.09,10.27-1.12,2.06-12c.21-1.09,1.78-2.44,2.88-2.23l-.32-.09a2.46,2.46,0,0,1,1.89,2.56l-2,14.36a2,2,0,0,1-1.5,1.58Z" transform="translate(-303.93 -146.78)"/><path class="cls-17" d="M418.23,218.41a2.54,2.54,0,0,1,.62.14l.1,0a5.06,5.06,0,0,1,3,4.36l-1.6,17c-10.65-.09-12.16-1.31-12.16-1.31l.85-17.42c.13-1.64.88-3.19,2.75-3.34h0Z" transform="translate(-303.93 -146.78)"/><path class="cls-2" d="M406.51,237.46c.09,1.19-.71,1.42-1.9,1.5s-2.33,0-2.41-1.21a2.16,2.16,0,0,1,4.31-.29Z" transform="translate(-303.93 -146.78)"/><path class="cls-2" d="M408.11,238.57l-2.49.17a1.19,1.19,0,0,1-1.27-1.1h0a1.19,1.19,0,0,1,1.11-1.26l2.49-.17a1.18,1.18,0,0,1,1.26,1.1h0A1.18,1.18,0,0,1,408.11,238.57Z" transform="translate(-303.93 -146.78)"/><path class="cls-17" d="M408,238.83l-1.1-4,11.19-1.8-.64-10.41a2.62,2.62,0,0,1,2.45-2.21h0a2.46,2.46,0,0,1,2.05,2.44l.81,12.47A2,2,0,0,1,421.4,237Z" transform="translate(-303.93 -146.78)"/><path class="cls-18" d="M388.66,225l12.22,1.16a.85.85,0,0,1,.77.75l1.28,11a.86.86,0,0,1-.93,1l-12.42-1.17a.86.86,0,0,1-.77-.77l-1.08-11A.86.86,0,0,1,388.66,225Z" transform="translate(-303.93 -146.78)"/><path class="cls-19" d="M388,224.94l12.21,1.15a.84.84,0,0,1,.77.75l1.28,11a.85.85,0,0,1-.93,1l-12.41-1.17a.85.85,0,0,1-.77-.77l-1.08-11A.86.86,0,0,1,388,224.94Z" transform="translate(-303.93 -146.78)"/><path class="cls-18" d="M402.59,238l8.34.79a.46.46,0,0,1,.42.5h0a.47.47,0,0,1-.5.42l-8.85-.8Z" transform="translate(-303.93 -146.78)"/><path class="cls-12" d="M395,231.61a1.34,1.34,0,1,1-1.2-1.45A1.34,1.34,0,0,1,395,231.61Z" transform="translate(-303.93 -146.78)"/><polygon class="cls-16" points="113.17 78.22 113.44 86.04 103 88.03 112.2 85.15 113.17 78.22"/><path class="cls-2" d="M411.56,217.37l.69,1.88a1.86,1.86,0,0,0,1.6,1.19h0a1.83,1.83,0,0,0,1.81-2.55L414.44,215Z" transform="translate(-303.93 -146.78)"/><path class="cls-20" d="M412.18,219s3.44-.65,2.93-3.66-3.74-.66-3.74-.66l.32,3Z" transform="translate(-303.93 -146.78)"/><path id="_Clipping_Path_5" data-name="&lt;Clipping Path&gt;" class="cls-2" d="M406.87,210a5.4,5.4,0,1,0,7.17-2.6A5.41,5.41,0,0,0,406.87,210Z" transform="translate(-303.93 -146.78)"/><g class="cls-21"><path class="cls-14" d="M413.76,213.39s-.85,4.32,2.33,4.42,1.45-8.11,1.45-8.11l-5-5.06-7.7,1.9.77,5s1.22.65,7.83-.44Z" transform="translate(-303.93 -146.78)"/><polygon class="cls-14" points="106.69 63.23 109.22 66.92 111.4 64.52 106.69 63.23"/></g><path class="cls-2" d="M412.91,212.39a1.52,1.52,0,1,0,2-.74A1.54,1.54,0,0,0,412.91,212.39Z" transform="translate(-303.93 -146.78)"/><path class="cls-1" d="M405.82,211.43s-1.16-4.25,1.59-6.89a5.53,5.53,0,0,1,8,.38,8.5,8.5,0,0,1,1.78,5.4Z" transform="translate(-303.93 -146.78)"/><path class="cls-22" d="M406.41,211.36l0-2.66a1.24,1.24,0,0,1,1.19-1.26h0a1.25,1.25,0,0,1,1.3,1.12l.26,2.65" transform="translate(-303.93 -146.78)"/><line class="cls-23" x1="113.28" y1="63.54" x2="100.9" y2="64.73"/><polygon class="cls-2" points="226 206.99 228.77 209.68 225.61 211.38 222.9 208.73 226 206.99"/><path class="cls-13" d="M510.39,333.69l1.85,8.21a13.18,13.18,0,0,0,2.11,4.67l12.21,11,4.83-3.94-10.42-11L517.15,328Z" transform="translate(-303.93 -146.78)"/><path class="cls-13" d="M529.44,358.09l-1,3.19-1.14,1.59a2,2,0,0,0,.05,2.43l.25.33,7.79-7.26-3.11-2.91Z" transform="translate(-303.93 -146.78)"/><polyline class="cls-13" points="231.55 211.61 223.7 218.93 223.07 218.25 230.92 210.94 231.55 211.61"/><polygon class="cls-2" points="199.3 211.99 198.26 215.46 194.69 214.5 195.73 211.09 199.3 211.99"/><path class="cls-14" d="M508,324.54l-10,33.85,6.32,1.57L510,343l6.93-11.1a16.34,16.34,0,0,0,1-1.55,6.6,6.6,0,0,0,.79-3.23l0-2.2Z" transform="translate(-303.93 -146.78)"/><path class="cls-13" d="M498.82,361l-3.16,1.17-2,.07a2,2,0,0,0-1.91,1.53l-.1.41,10.58,1.74.41-4.28Z" transform="translate(-303.93 -146.78)"/><polyline class="cls-13" points="198.36 219.16 187.7 217.41 187.85 216.49 198.51 218.25 198.36 219.16"/><polygon class="cls-24" points="190.12 143.37 186.07 149.69 188.01 151.08 192.2 144.4 190.12 143.37"/><path class="cls-25" d="M488.79,279.69s1.87,7.83,11.35,10.91a.76.76,0,0,1,.52.6,2.87,2.87,0,0,1-2,3.45.76.76,0,0,1-.59-.1c-1.45-.9-8.58-5.07-15.5-3.87Z" transform="translate(-303.93 -146.78)"/><path class="cls-24" d="M488.79,279.69s-1.74,7.81-6.2,11C482.59,290.68,483.22,283.84,488.79,279.69Z" transform="translate(-303.93 -146.78)"/><path class="cls-2" d="M488.68,296.06a3.21,3.21,0,0,0,2.32,3.48,2.66,2.66,0,0,0,3.14-2.07,3.21,3.21,0,0,0-2.33-3.48A2.65,2.65,0,0,0,488.68,296.06Z" transform="translate(-303.93 -146.78)"/><polyline class="cls-2" points="192.36 153.5 189.55 150.56 187.72 152.82 192.36 156.22"/><path class="cls-16" d="M495.84,297.57l-3,4.41L501,309.4a4.35,4.35,0,0,0,1.52.15l10.71-1.39a3.05,3.05,0,0,0,2.91-3.2h0c-.08-1.69.25-4.13-1.44-4l-12.44,2.55Z" transform="translate(-303.93 -146.78)"/><path class="cls-17" d="M519.85,307.69a6.13,6.13,0,0,0-2.76-5.93,3.94,3.94,0,0,0-2.41-.85,6.07,6.07,0,0,0-5.27,4.21c-1.6,4.9-2.06,19.39-2.06,19.39l11.48.4Z" transform="translate(-303.93 -146.78)"/><polygon class="cls-16" points="211.69 161.27 215.14 173.95 215.84 163.19 211.69 161.27"/><path class="cls-2" d="M529.68,333.08a3.21,3.21,0,0,0,.18-4.19,2.67,2.67,0,0,0-3.75-.18,3.21,3.21,0,0,0-.18,4.19A2.67,2.67,0,0,0,529.68,333.08Z" transform="translate(-303.93 -146.78)"/><polyline class="cls-2" points="220.55 177.26 222.64 182.42 225.45 181.68 223.71 176.2"/><path class="cls-17" d="M524.61,328l5.74-1.27-3.89-13.33a4.42,4.42,0,0,0-.69-1.37l-7.16-8.9c-1-1.39-2.59-1.14-4-.18h0a3.07,3.07,0,0,0-.76,4.26l6.89,8.29Z" transform="translate(-303.93 -146.78)"/><path class="cls-2" d="M512,299.17l.22,2a1.86,1.86,0,0,0,1.27,1.56h0a1.86,1.86,0,0,0,2.41-2.05l-.49-3.12Z" transform="translate(-303.93 -146.78)"/><path class="cls-20" d="M512.19,301s3.54-.12,3.79-3.19-3.51-1.25-3.51-1.25l-.44,3Z" transform="translate(-303.93 -146.78)"/><path id="_Clipping_Path_6" data-name="&lt;Clipping Path&gt;" class="cls-2" d="M509.23,290.81a5.46,5.46,0,1,0,7.67-.76A5.46,5.46,0,0,0,509.23,290.81Z" transform="translate(-303.93 -146.78)"/><g class="cls-26"><path class="cls-14" d="M515.14,295.81s-1.91,4,1.18,4.91,3.44-7.59,3.44-7.59l-3.67-6.21-8-.06-.49,5.07s1,.94,7.79,1.52Z" transform="translate(-303.93 -146.78)"/><polygon class="cls-14" points="208.98 144.93 210.54 149.19 213.27 147.37 208.98 144.93"/></g><path class="cls-2" d="M514.56,294.62a1.54,1.54,0,1,0,2.17-.22A1.54,1.54,0,0,0,514.56,294.62Z" transform="translate(-303.93 -146.78)"/><path class="cls-1" d="M507.82,292.38s-.27-4.45,3-6.48a5.6,5.6,0,0,1,7.85,2,8.59,8.59,0,0,1,.63,5.72Z" transform="translate(-303.93 -146.78)"/><path class="cls-27" d="M508.41,292.43l.52-2.63a1.28,1.28,0,0,1,1.45-1h0a1.27,1.27,0,0,1,1.05,1.39l-.29,2.67" transform="translate(-303.93 -146.78)"/><line class="cls-28" x1="215.39" y1="146.87" x2="202.89" y2="145.47"/><line class="cls-29" x1="291.69" y1="179.23" x2="278.75" y2="191.98"/><line class="cls-29" x1="291.69" y1="165.6" x2="278.75" y2="178.35"/><line class="cls-29" x1="291.69" y1="151.97" x2="278.75" y2="164.73"/><line class="cls-29" x1="291.69" y1="138.35" x2="278.75" y2="151.1"/><line class="cls-29" x1="291.69" y1="124.72" x2="278.75" y2="137.47"/><line class="cls-29" x1="291.69" y1="111.1" x2="278.75" y2="123.85"/><line class="cls-29" x1="291.69" y1="97.47" x2="278.75" y2="110.22"/><line class="cls-29" x1="291.69" y1="83.85" x2="278.75" y2="96.6"/><line class="cls-29" x1="291.69" y1="70.22" x2="278.75" y2="82.97"/><line class="cls-29" x1="291.69" y1="56.59" x2="278.75" y2="69.34"/><line class="cls-29" x1="291.69" y1="42.97" x2="278.75" y2="55.72"/><line class="cls-29" x1="278.75" y1="178.35" x2="291.69" y2="178.35"/><line class="cls-29" x1="278.75" y1="164.73" x2="291.69" y2="164.73"/><line class="cls-29" x1="278.75" y1="151.1" x2="291.69" y2="151.1"/><line class="cls-29" x1="278.75" y1="137.47" x2="291.69" y2="137.47"/><line class="cls-29" x1="278.75" y1="123.85" x2="291.69" y2="123.85"/><line class="cls-29" x1="278.75" y1="110.22" x2="291.69" y2="110.22"/><line class="cls-29" x1="278.75" y1="96.6" x2="291.69" y2="96.6"/><line class="cls-29" x1="278.75" y1="82.97" x2="291.69" y2="82.97"/><line class="cls-29" x1="278.75" y1="69.34" x2="291.69" y2="69.34"/><line class="cls-29" x1="278.75" y1="55.72" x2="291.69" y2="55.72"/><line class="cls-30" x1="278.75" y1="195.67" x2="278.75" y2="45.15"/><line class="cls-30" x1="291.69" y1="195.67" x2="291.69" y2="45.15"/><rect class="cls-14" x="272.08" y="191.98" width="25.76" height="26.76"/><rect class="cls-5" x="273.96" y="19.66" width="22.06" height="25.49" rx="4.3" ry="4.3"/><path class="cls-31" d="M276,25.8h8.67a3.26,3.26,0,0,1,3.26,3.26v5.41a3.26,3.26,0,0,1-3.26,3.26H276a0,0,0,0,1,0,0V25.8A0,0,0,0,1,276,25.8Z"/><line class="cls-32" x1="193.42" y1="46.54" x2="203.76" y2="76.59"/><line class="cls-32" x1="186.22" y1="42.97" x2="166.04" y2="70.22"/><rect class="cls-1" x="463.53" y="207.33" width="48" height="48" rx="6.84" ry="6.84" transform="translate(296 612.35) rotate(-127.41)"/><rect class="cls-33" x="467.9" y="211.7" width="39.27" height="39.27" rx="5.59" ry="5.59" transform="translate(296 612.35) rotate(-127.41)"/><path class="cls-14" d="M489.3,241.51c-.54,4-6.68,3.23-6.14-.82S489.85,237.42,489.3,241.51Zm2.64-22.62-2.41,17-5.16-.69c.76-5.73,1.4-11.29,2.16-17.05Z" transform="translate(-303.93 -146.78)"/><circle class="cls-14" cx="190.47" cy="40.42" r="8.65"/><path class="cls-34" d="M500.51,187.2a6.12,6.12,0,1,1-6.12-6.11A6.12,6.12,0,0,1,500.51,187.2Z" transform="translate(-303.93 -146.78)"/><line class="cls-29" x1="224.39" y1="1.32" x2="224.39" y2="19.66"/><line class="cls-29" x1="207.94" y1="1.32" x2="207.94" y2="19.66"/><line class="cls-29" x1="240.77" y1="1.32" x2="240.77" y2="19.66"/><line class="cls-29" x1="258.98" y1="1.32" x2="258.98" y2="19.66"/><line class="cls-29" x1="275.97" y1="1.32" x2="275.97" y2="19.66"/><line class="cls-29" x1="293.58" y1="1.32" x2="293.58" y2="19.66"/><line class="cls-29" x1="310.88" y1="1.32" x2="310.88" y2="19.66"/><line class="cls-29" x1="207.09" y1="19.66" x2="224.39" y2="1.32"/><line class="cls-29" x1="224.39" y1="19.66" x2="241.68" y2="1.32"/><line class="cls-29" x1="241.68" y1="19.66" x2="258.98" y2="1.32"/><line class="cls-29" x1="258.98" y1="19.66" x2="276.28" y2="1.32"/><line class="cls-29" x1="276.28" y1="19.66" x2="293.58" y2="1.32"/><line class="cls-29" x1="293.58" y1="19.66" x2="310.88" y2="1.32"/><polygon class="cls-35" points="190.47 19.66 331.5 19.66 312.51 1.32 205.06 1.32 190.47 19.66"/><line class="cls-35" x1="190.47" y1="19.66" x2="190.47" y2="40.42"/><path id="_Clipping_Path_7" data-name="&lt;Clipping Path&gt;" class="cls-1" d="M419.83,363.05l9.87-25.52a1.42,1.42,0,0,1,2.66,0l9.87,25.52Z" transform="translate(-303.93 -146.78)"/><g class="cls-36"><rect class="cls-37" x="118.19" y="196.23" width="17.53" height="5.42"/><rect class="cls-37" x="117.23" y="206.47" width="19.83" height="5.42"/></g><rect class="cls-38" x="114.1" y="216.26" width="26.13" height="2.15"/><path id="_Clipping_Path_8" data-name="&lt;Clipping Path&gt;" class="cls-1" d="M563.18,363.12l9.88-25.51a1.42,1.42,0,0,1,2.66,0l9.87,25.51Z" transform="translate(-303.93 -146.78)"/><g class="cls-39"><rect class="cls-37" x="261.55" y="196.31" width="17.53" height="5.42"/><rect class="cls-37" x="260.59" y="206.55" width="19.83" height="5.42"/></g><rect class="cls-38" x="257.45" y="216.34" width="26.13" height="2.15"/><circle class="cls-6" cx="366.21" cy="320.4" r="20.5" transform="translate(-308.57 488.63) rotate(-81.53)"/><line class="cls-40" x1="62.28" y1="166.31" x2="62.28" y2="218.41"/><line class="cls-40" x1="54.31" y1="167.37" x2="62.28" y2="176.31"/><path class="cls-40" d="M373.28,322.6c-.57.57-7.07,7.34-7.07,7.34" transform="translate(-303.93 -146.78)"/><line class="cls-40" x1="0.57" y1="218.91" x2="344.47" y2="218.91"/></svg>