<svg width="18" height="18" viewBox="0 0 18 18" fill="none" xmlns="http://www.w3.org/2000/svg">
<g clip-path="url(#clip0_18_1058)">
<path d="M9 0C7.21997 0 5.47991 0.527841 3.99987 1.51677C2.51983 2.50571 1.36628 3.91131 0.685088 5.55585C0.00389957 7.20038 -0.17433 9.00998 0.172936 10.7558C0.520203 12.5016 1.37737 14.1053 2.63604 15.364C3.89471 16.6226 5.49836 17.4798 7.24419 17.8271C8.99002 18.1743 10.7996 17.9961 12.4442 17.3149C14.0887 16.6337 15.4943 15.4802 16.4832 14.0001C17.4722 12.5201 18 10.78 18 9C18 7.8181 17.7672 6.64778 17.3149 5.55585C16.8626 4.46392 16.1997 3.47177 15.364 2.63604C14.5282 1.80031 13.5361 1.13738 12.4442 0.685084C11.3522 0.232792 10.1819 0 9 0Z" fill="#01AF70"/>
<path d="M12.9869 6.40234H11.3429C11.2561 5.95312 11.0592 5.54785 10.7582 5.20605L12.5817 5.21582L12.9927 4H5.41525L4.99268 5.29883H7.19239C8.46011 5.29883 9.19528 5.71387 9.46156 6.40234H5.39789L4.99268 7.6084H9.50787C9.27053 8.37988 8.4659 8.80469 7.19239 8.80469H5.13739L5.14897 9.75684L9.29369 14H11.4066V13.917L7.62075 10.0059L7.67285 9.99609C10.0173 9.87402 11.1171 8.91699 11.3545 7.6084H12.5817L12.9869 6.40234Z" fill="white"/>
</g>
<defs>
<clipPath id="clip0_18_1058">
<rect width="18" height="18" fill="white"/>
</clipPath>
</defs>
</svg>
