<svg width="38" height="37" viewBox="0 0 38 37" fill="none" xmlns="http://www.w3.org/2000/svg">
<path d="M19.0891 0C29.1814 0 37.3619 8.18161 37.3619 18.2728C37.3619 28.364 29.1814 36.5455 19.0891 36.5455C8.99676 36.5455 0.816406 28.3638 0.816406 18.2728C0.816406 8.18173 8.99689 0 19.0891 0Z" fill="#0E76A8"/>
<path d="M11.1121 25.1065H14.5337V13.702H11.1121V25.1065ZM24.4421 13.307C22.7815 13.307 21.2957 13.9134 20.2417 15.252V13.6645H16.8075V25.1067H20.2417V18.9191C20.2417 17.6114 21.4397 16.3357 22.9403 16.3357C24.4409 16.3357 24.811 17.6114 24.811 18.8871V25.1055H28.2326V18.6324C28.2325 14.1361 26.1038 13.307 24.4421 13.307ZM12.8069 12.5623C13.7525 12.5623 14.52 11.7949 14.52 10.8492C14.52 9.9036 13.7525 9.13623 12.8069 9.13623C11.8612 9.13623 11.0938 9.90372 11.0938 10.8494C11.0938 11.795 11.8612 12.5623 12.8069 12.5623Z" fill="white"/>
</svg>
