<svg xmlns="http://www.w3.org/2000/svg" width="14.4" height="24" viewBox="0 0 14.4 24"><path d="M8.7,21.6a1.5,1.5,0,0,0-1.5-1.5,1.5,1.5,0,1,0,1.059,2.559A1.444,1.444,0,0,0,8.7,21.6Zm3.9-3V5.4a.608.608,0,0,0-.6-.6H2.4a.608.608,0,0,0-.6.6V18.6a.608.608,0,0,0,.6.6H12a.608.608,0,0,0,.6-.6ZM9,2.7a.265.265,0,0,0-.3-.3h-3a.265.265,0,0,0-.3.3.265.265,0,0,0,.3.3h3A.265.265,0,0,0,9,2.7Zm5.4-.3V21.6A2.433,2.433,0,0,1,12,24H2.4a2.306,2.306,0,0,1-1.688-.712A2.306,2.306,0,0,1,0,21.6V2.4A2.306,2.306,0,0,1,.713.713,2.306,2.306,0,0,1,2.4,0H12a2.306,2.306,0,0,1,1.688.713A2.306,2.306,0,0,1,14.4,2.4Z" fill="#fff"/></svg>