<svg xmlns="http://www.w3.org/2000/svg" xmlns:xlink="http://www.w3.org/1999/xlink" width="25.992" height="25.992" viewBox="0 0 25.992 25.992"><defs><filter id="a"><feOffset dy="3" input="SourceAlpha"/><feGaussianBlur stdDeviation="3" result="b"/><feFlood flood-opacity="0.161" result="c"/><feComposite operator="out" in="SourceGraphic" in2="b"/><feComposite operator="in" in="c"/><feComposite operator="in" in2="SourceGraphic"/></filter></defs><g data-type="innerShadowGroup"><path d="M21.365,13.475a8.022,8.022,0,0,0-.479-3.285A8.143,8.143,0,0,0,16.68,5.548a8.417,8.417,0,0,0-3.206-.834,8.182,8.182,0,0,0-3.271.464,8.621,8.621,0,0,0-2.785,1.6A8.259,8.259,0,0,0,5.461,9.319,8.18,8.18,0,0,0,5.077,15.8,8.123,8.123,0,0,0,9.29,20.444a8.476,8.476,0,0,0,3.213.834,8.36,8.36,0,0,0,4.25-.856A8.256,8.256,0,0,0,20,17.587,7.945,7.945,0,0,0,21.365,13.475ZM25.992,0,20.93,5.048a11.076,11.076,0,0,1,2.618,3.945,11.077,11.077,0,0,1-.747,9.573,11.1,11.1,0,0,1-3.5,3.706,11.4,11.4,0,0,1-4.816,1.806L0,25.992l5.033-5.033a11.049,11.049,0,0,1-3.351-8.6A10.946,10.946,0,0,1,3.162,7.426a11.074,11.074,0,0,1,3.5-3.706,11.459,11.459,0,0,1,4.823-1.806L18.74.957Z" fill="#fff"/><g transform="matrix(1, 0, 0, 1, 0, 0)" filter="url(#a)"><path d="M21.365,13.475a8.022,8.022,0,0,0-.479-3.285A8.143,8.143,0,0,0,16.68,5.548a8.417,8.417,0,0,0-3.206-.834,8.182,8.182,0,0,0-3.271.464,8.621,8.621,0,0,0-2.785,1.6A8.259,8.259,0,0,0,5.461,9.319,8.18,8.18,0,0,0,5.077,15.8,8.123,8.123,0,0,0,9.29,20.444a8.476,8.476,0,0,0,3.213.834,8.36,8.36,0,0,0,4.25-.856A8.256,8.256,0,0,0,20,17.587,7.945,7.945,0,0,0,21.365,13.475ZM25.992,0,20.93,5.048a11.076,11.076,0,0,1,2.618,3.945,11.077,11.077,0,0,1-.747,9.573,11.1,11.1,0,0,1-3.5,3.706,11.4,11.4,0,0,1-4.816,1.806L0,25.992l5.033-5.033a11.049,11.049,0,0,1-3.351-8.6A10.946,10.946,0,0,1,3.162,7.426a11.074,11.074,0,0,1,3.5-3.706,11.459,11.459,0,0,1,4.823-1.806L18.74.957Z" fill="#fff"/></g></g></svg>