<svg xmlns="http://www.w3.org/2000/svg" xmlns:xlink="http://www.w3.org/1999/xlink" width="27" height="27" viewBox="0 0 27 27"><defs><linearGradient id="a" x1="0.5" x2="0.5" y2="0.996" gradientUnits="objectBoundingBox"><stop offset="0" stop-color="#41bce7"/><stop offset="1" stop-color="#22a6dc"/></linearGradient></defs><g transform="translate(-0.999 -0.666)"><circle cx="13.5" cy="13.5" r="13.5" transform="translate(0.999 0.666)" fill="url(#a)"/><g transform="translate(5.004 7.698)"><path d="M107.8,138.928l-2.586,13.042a.957.957,0,0,1-1.358.47l-5.969-4.577-2.173-1.047-3.655-1.228s-.56-.2-.617-.634.634-.668.634-.668l14.53-5.7C106.608,138.583,107.8,138.057,107.8,138.928Z" transform="translate(-91.442 -138.426)" fill="#fff"/><path d="M168.709,196.516s-.175-.017-.39-.7S167,191.509,167,191.509l8.775-5.573s.509-.306.487,0c0,0,.091.057-.181.306s-6.891,6.207-6.891,6.207" transform="translate(-162.725 -183.12)" fill="#d2e4f0"/><path d="M200.044,306.294l-2.359,2.156a.406.406,0,0,1-.385.051l.453-4" transform="translate(-191.311 -295.104)" fill="#b5cfe4"/></g></g></svg>