<svg xmlns="http://www.w3.org/2000/svg" xmlns:xlink="http://www.w3.org/1999/xlink" width="200" height="218.012" viewBox="0 0 200 218.012"><defs><linearGradient id="a" x1="0.075" y1="0.14" x2="0.978" y2="0.98" gradientUnits="objectBoundingBox"><stop offset="0" stop-color="#b78236"/><stop offset="1" stop-color="#f6e37c"/></linearGradient></defs><g transform="translate(-146 -282.494)"><path d="M152.781,0a30,30,0,0,1,26.091,15.193l39.725,70a30,30,0,0,1,0,29.614l-39.725,70A30,30,0,0,1,152.781,200H74.219a30,30,0,0,1-26.091-15.193l-39.725-70a30,30,0,0,1,0-29.614l39.725-70A30,30,0,0,1,74.219,0Z" transform="translate(146 505) rotate(-90)" fill="url(#a)"/><path d="M140.631,0a20,20,0,0,1,17.374,10.093l39.345,69a20,20,0,0,1,0,19.814l-39.345,69A20,20,0,0,1,140.631,178H62.369a20,20,0,0,1-17.374-10.093l-39.346-69a20,20,0,0,1,0-19.814l39.346-69A20,20,0,0,1,62.369,0Z" transform="translate(157 493) rotate(-90)" fill="#53524f"/><text transform="translate(186.092 373.494)" fill="#f6e37c" font-size="30" font-family="Roboto-Bold, Roboto" font-weight="700"><tspan x="0" y="0">DEPOSIT </tspan></text><path d="M13.467-29.121h5.605q3.555,0,5.264-1.863a7.374,7.374,0,0,0,1.709-5.178,6.736,6.736,0,0,0-1.709-4.819,6.489,6.489,0,0,0-4.956-1.812,7,7,0,0,0-4.717,1.641,5.4,5.4,0,0,0-1.914,4.307H3.076l-.068-.205a11.324,11.324,0,0,1,4.478-9.639,17.863,17.863,0,0,1,11.621-3.794q7.725,0,12.322,3.691t4.6,10.527A10.566,10.566,0,0,1,33.975-30.1a13.635,13.635,0,0,1-5.64,4.563,12.69,12.69,0,0,1,6.306,4.512,11.867,11.867,0,0,1,2.17,7.075A12.93,12.93,0,0,1,31.838-3.2Q26.865.718,19.106.718A19.487,19.487,0,0,1,7.2-2.957a11.737,11.737,0,0,1-4.8-10.374l.068-.2h9.673a6.069,6.069,0,0,0,2.051,4.709,7.455,7.455,0,0,0,5.2,1.853,7.567,7.567,0,0,0,5.452-1.91,6.828,6.828,0,0,0,2-5.183q0-3.922-1.965-5.746a8.233,8.233,0,0,0-5.793-1.824H13.467Z" transform="translate(228 447)" fill="url(#a)"/></g></svg>