<svg xmlns="http://www.w3.org/2000/svg" xmlns:xlink="http://www.w3.org/1999/xlink" width="200" height="218.012" viewBox="0 0 200 218.012"><defs><linearGradient id="a" x1="0.075" y1="0.14" x2="0.978" y2="0.98" gradientUnits="objectBoundingBox"><stop offset="0" stop-color="#b26a54"/><stop offset="1" stop-color="#f0c198"/></linearGradient></defs><g transform="translate(-146 -282.494)"><path d="M152.781,0a30,30,0,0,1,26.091,15.193l39.725,70a30,30,0,0,1,0,29.614l-39.725,70A30,30,0,0,1,152.781,200H74.219a30,30,0,0,1-26.091-15.193l-39.725-70a30,30,0,0,1,0-29.614l39.725-70A30,30,0,0,1,74.219,0Z" transform="translate(146 505) rotate(-90)" fill="url(#a)"/><path d="M140.631,0a20,20,0,0,1,17.374,10.093l39.345,69a20,20,0,0,1,0,19.814l-39.345,69A20,20,0,0,1,140.631,178H62.369a20,20,0,0,1-17.374-10.093l-39.346-69a20,20,0,0,1,0-19.814l39.346-69A20,20,0,0,1,62.369,0Z" transform="translate(157 493) rotate(-90)" fill="#53524f"/><text transform="translate(185 373.494)" fill="#cb9f90" font-size="30" font-family="Roboto-Bold, Roboto" font-weight="700"><tspan x="0" y="0">DEPOSIT </tspan></text><path d="M37.358,0H3.384V-6.528l16.1-17.261a38.956,38.956,0,0,0,4.956-6.75,10.947,10.947,0,0,0,1.47-5.11,7.689,7.689,0,0,0-1.692-5.144,5.943,5.943,0,0,0-4.8-2,6.205,6.205,0,0,0-5.247,2.341,9.992,9.992,0,0,0-1.794,6.238H2.666l-.066-.2a15.045,15.045,0,0,1,4.426-11.4q4.6-4.666,12.39-4.666,7.69,0,12.083,4a13.722,13.722,0,0,1,4.39,10.665,14.965,14.965,0,0,1-2.478,8.32,82.2,82.2,0,0,1-8.186,10L16.372-7.861l.068.17H37.358Z" transform="translate(226 446)" fill="url(#a)"/></g></svg>