<svg xmlns="http://www.w3.org/2000/svg" width="200" height="218.012" viewBox="0 0 200 218.012"><g transform="translate(-146 -282.494)"><path d="M152.781,0a30,30,0,0,1,26.091,15.193l39.725,70a30,30,0,0,1,0,29.614l-39.725,70A30,30,0,0,1,152.781,200H74.219a30,30,0,0,1-26.091-15.193l-39.725-70a30,30,0,0,1,0-29.614l39.725-70A30,30,0,0,1,74.219,0Z" transform="translate(146 505) rotate(-90)" fill="#4d4d4d"/><path d="M74.219,10A20.036,20.036,0,0,0,56.825,20.129l-39.725,70a20.1,20.1,0,0,0,0,19.742l39.725,70A20.035,20.035,0,0,0,74.219,190h78.562a20.035,20.035,0,0,0,17.394-10.129l39.725-70a20.1,20.1,0,0,0,0-19.742l-39.725-70A20.036,20.036,0,0,0,152.781,10H74.219m0-10h78.562a30,30,0,0,1,26.091,15.193l39.725,70a30,30,0,0,1,0,29.614l-39.725,70A30,30,0,0,1,152.781,200H74.219a30,30,0,0,1-26.091-15.193l-39.725-70a30,30,0,0,1,0-29.614l39.725-70A30,30,0,0,1,74.219,0Z" transform="translate(146 505) rotate(-90)" fill="#fbfbfb"/><text transform="translate(185.5 373.494)" fill="#fbfbfb" font-size="30" font-family="Roboto-Bold, Roboto" font-weight="700"><tspan x="0" y="0">DEPOSIT </tspan></text><text transform="translate(226 446)" fill="#fbfbfb" font-size="70" font-family="Roboto-Bold, Roboto" font-weight="700"><tspan x="0" y="0">1</tspan></text></g></svg>