<svg xmlns="http://www.w3.org/2000/svg" width="39.976" height="39.976" viewBox="0 0 39.976 39.976">
  <g id="tiktok-white" transform="translate(91 -159)">
    <path id="tiktok-white-2" data-name="tiktok-white" d="M20,40a20,20,0,1,1,14.125-5.875A19.976,19.976,0,0,1,20,40Z" transform="translate(-91 158.976)" fill="#fff"/>
    <g id="Group_1" data-name="Group 1" transform="translate(-133.309 143.854)">
      <path id="Path_9" data-name="Path 9" d="M87.318,35.7a10.916,10.916,0,0,0,6.367,2.036V33.171a6.437,6.437,0,0,1-1.337-.14v3.595a10.918,10.918,0,0,1-6.367-2.036v9.319a8.447,8.447,0,0,1-13.147,7.013,8.446,8.446,0,0,0,14.484-5.9V35.7Zm1.65-4.607a6.364,6.364,0,0,1-1.65-3.726V26.78H86.051A6.393,6.393,0,0,0,88.967,31.094ZM75.784,47.344a3.864,3.864,0,0,1,4.247-6.018V36.658a8.521,8.521,0,0,0-1.337-.077v3.634a3.862,3.862,0,0,0-2.91,7.129Z" transform="translate(-19.09 -5.668)" fill="#ee1d52" fill-rule="evenodd"/>
      <path id="Path_10" data-name="Path 10" d="M73.708,34.589a10.918,10.918,0,0,0,6.367,2.036V33.031a6.391,6.391,0,0,1-3.381-1.937,6.393,6.393,0,0,1-2.917-4.314H70.449V45.02a3.864,3.864,0,0,1-6.938,2.324,3.863,3.863,0,0,1,2.91-7.129V36.581a8.44,8.44,0,0,0-5.86,14.341,8.447,8.447,0,0,0,13.147-7.013Z" transform="translate(-6.817 -5.668)" fill="#060505" fill-rule="evenodd"/>
      <path id="Path_11" data-name="Path 11" d="M73.258,27.362V26.39a6.369,6.369,0,0,1-3.381-.965,6.386,6.386,0,0,0,3.381,1.937Zm-6.3-6.251q-.046-.261-.07-.524V20h-4.6V38.24a3.865,3.865,0,0,1-5.6,3.436,3.864,3.864,0,0,0,6.938-2.324V21.112Zm-7.356,9.8V29.878A8.455,8.455,0,0,0,50,38.24a8.431,8.431,0,0,0,3.744,7.013,8.44,8.44,0,0,1,5.86-14.34Z" fill="#69c9d0" fill-rule="evenodd"/>
    </g>
  </g>
</svg>
