<svg width="37" height="37" viewBox="0 0 37 37" fill="none" xmlns="http://www.w3.org/2000/svg">
<path d="M18.7259 0C28.8176 0 36.9986 8.18099 36.9986 18.2727C36.9986 28.3645 28.8176 36.5455 18.7259 36.5455C8.63411 36.5455 0.453125 28.3645 0.453125 18.2727C0.453125 8.18099 8.63411 0 18.7259 0Z" fill="#D42428"/>
<path d="M28.288 21.7989C28.288 23.3307 27.0471 24.5723 25.5161 24.5723H12.5112C10.9805 24.5723 9.73979 23.3304 9.73979 21.7989V14.362C9.73979 12.8301 10.9807 11.5886 12.5112 11.5886H25.5159C27.0472 11.5886 28.2878 12.8304 28.2878 14.362L28.288 21.7989ZM17.1585 14.9431V21.9281L22.4557 18.4354L17.1585 14.9431Z" fill="white"/>
</svg>
