<svg width="40" height="40" viewBox="0 0 40 40" fill="none" xmlns="http://www.w3.org/2000/svg">
<path d="M27.1199 19.9961C22.3852 19.9961 18.5469 23.8344 18.5469 28.5691C18.5469 33.3039 22.3852 37.1422 27.1199 37.1422C31.8547 37.1422 35.693 33.3039 35.693 28.5691C35.6926 23.8344 31.8543 19.9961 27.1199 19.9961ZM27.1199 34.2848C23.968 34.2848 21.4039 31.7207 21.4039 28.5687C21.4039 25.4168 23.968 22.8527 27.1199 22.8527C30.2715 22.8527 32.8359 25.4168 32.8359 28.5687C32.8355 31.7207 30.2715 34.2848 27.1199 34.2848Z" fill="black"/>
<path d="M7.80329 31.8211C6.88454 30.2766 6.84821 28.4113 7.70641 26.8324L16.072 11.4312H21.042L24.9963 18.6562L27.5033 17.2848L24.2994 11.4309H25.6658V8.57383H24.3623L27.0947 2.85938H9.95212L12.9338 8.57383H11.3802V11.4309H12.8197L5.19509 25.468C3.85173 27.9422 3.90876 30.8629 5.34782 33.282C6.78688 35.7012 9.32673 37.1457 12.1412 37.1457H17.0881V34.2887H12.1416C10.3439 34.2883 8.72204 33.3664 7.80329 31.8211ZM14.6658 5.71719H22.5619L21.1959 8.57422H16.1568L14.6658 5.71719ZM26.0736 24.2844H28.2166V29.693H26.0736V24.2844ZM26.0736 30.7078H28.2166V32.8758H26.0736V30.7078Z" fill="black"/>
</svg>
