<svg width="26" height="32" viewBox="0 0 26 32" fill="none" xmlns="http://www.w3.org/2000/svg">
<path d="M3.22688 27.0305C2.398 25.5889 2.36522 23.8481 3.13948 22.3744L10.6869 8.00027H15.1707L18.7382 14.7435L21 13.4635L18.1095 7.99991H19.3422V5.3334H18.1662L20.6314 0H5.16553L7.85553 5.3334H6.45397V7.99991H7.75263L0.873791 21.101C-0.338173 23.4102 -0.28672 26.1361 1.01159 28.394C2.30989 30.6518 4.60131 32 7.14048 32H11.6035V29.3335H7.14083C5.51901 29.3331 4.05577 28.4727 3.22688 27.0305ZM9.41815 2.66724H16.5419L15.3095 5.33376H10.7633L9.41815 2.66724Z" fill="white"/>
<g clip-path="url(#clip0_351_7967)">
<path d="M18.5 17.625V31.375" stroke="white" stroke-width="2.5" stroke-linecap="round" stroke-linejoin="round"/>
<path d="M21.625 20.125H16.9375C16.3573 20.125 15.8009 20.3555 15.3907 20.7657C14.9805 21.1759 14.75 21.7323 14.75 22.3125C14.75 22.8927 14.9805 23.4491 15.3907 23.8593C15.8009 24.2695 16.3573 24.5 16.9375 24.5H20.0625C20.6427 24.5 21.1991 24.7305 21.6093 25.1407C22.0195 25.5509 22.25 26.1073 22.25 26.6875C22.25 27.2677 22.0195 27.8241 21.6093 28.2343C21.1991 28.6445 20.6427 28.875 20.0625 28.875H14.75" stroke="white" stroke-width="2.5" stroke-linecap="square" stroke-linejoin="round"/>
</g>
<defs>
<clipPath id="clip0_351_7967">
<rect width="15" height="15" fill="white" transform="translate(11 17)"/>
</clipPath>
</defs>
</svg>
