<svg width="17" height="12" viewBox="0 0 17 12" fill="none" xmlns="http://www.w3.org/2000/svg">
<path d="M10.0045 10.2548C10.1933 10.1075 10.3646 9.93616 10.7073 9.59347L14.9788 5.32204C15.0819 5.21886 15.0347 5.04098 14.8967 4.99305C14.3926 4.8182 13.7366 4.48975 13.1231 3.87625C12.5096 3.26275 12.1812 2.60684 12.0063 2.10265C11.9584 1.96468 11.7805 1.91741 11.6773 2.02067L7.40591 6.29205C7.06322 6.63475 6.89193 6.80604 6.7446 6.99493C6.57082 7.21781 6.42176 7.45883 6.30023 7.71399C6.19715 7.93019 6.12051 8.16009 5.96735 8.61978L5.76929 9.21375L5.45445 10.1582L5.15924 11.0438C5.08391 11.27 5.14273 11.5194 5.31133 11.6881C5.48003 11.8567 5.72936 11.9155 5.95559 11.8401L6.8412 11.5449L7.78563 11.2301L8.3796 11.032C8.83919 10.8789 9.0692 10.8022 9.28539 10.6992C9.54055 10.5776 9.78157 10.4286 10.0045 10.2548Z" fill="white"/>
<path d="M16.3161 3.98518C17.2278 3.0735 17.2278 1.59541 16.3161 0.683747C15.4045 -0.227916 13.9264 -0.227916 13.0147 0.683747L12.8774 0.821073C12.7448 0.953585 12.6848 1.13867 12.7179 1.32313C12.7388 1.43916 12.7773 1.60881 12.8476 1.81123C12.988 2.21606 13.2532 2.74748 13.7528 3.24701C14.2523 3.74664 14.7838 4.01184 15.1886 4.15226C15.3911 4.22253 15.5606 4.26106 15.6767 4.28189C15.8611 4.31503 16.0462 4.25502 16.1788 4.12247L16.3161 3.98518Z" fill="white"/>
<path fill-rule="evenodd" clip-rule="evenodd" d="M0 2.15326C0 1.70619 0.362435 1.34375 0.809513 1.34375H7.8253C8.27236 1.34375 8.63481 1.70619 8.63481 2.15326C8.63481 2.60034 8.27236 2.96278 7.8253 2.96278H0.809513C0.362435 2.96278 0 2.60034 0 2.15326ZM0 6.47067C0 6.0236 0.362435 5.66116 0.809513 5.66116H4.04757C4.49463 5.66116 4.85708 6.0236 4.85708 6.47067C4.85708 6.91774 4.49463 7.28018 4.04757 7.28018H0.809513C0.362435 7.28018 0 6.91774 0 6.47067ZM0 10.7881C0 10.341 0.362435 9.97856 0.809513 9.97856H2.42854C2.87562 9.97856 3.23805 10.341 3.23805 10.7881C3.23805 11.2351 2.87562 11.5976 2.42854 11.5976H0.809513C0.362435 11.5976 0 11.2351 0 10.7881Z" fill="white"/>
</svg>
