<svg width="44" height="23" viewBox="0 0 44 23" fill="none" xmlns="http://www.w3.org/2000/svg">
<path fill-rule="evenodd" clip-rule="evenodd" d="M39.4672 22.7502C40.0673 22.6807 40.591 22.3609 40.535 21.6491C40.5526 21.3808 40.5543 21.1199 40.556 20.8601C40.5581 20.5267 40.5602 20.1951 40.5959 19.8518C40.7345 19.5991 40.7297 19.348 40.7248 19.0911C40.7221 18.949 40.7193 18.8051 40.7408 18.6582C40.7784 18.352 40.7371 18.0664 40.6966 17.7857C40.666 17.5738 40.6358 17.3647 40.6402 17.1515C40.6749 15.4778 40.6599 13.8035 40.6449 12.1268C40.6205 9.4099 40.5961 6.68671 40.783 3.94948C40.7319 3.66105 40.6712 3.41994 40.5218 3.16587C40.4848 3.10796 40.4687 3.0857 40.4241 3.03343C40.3746 2.98567 40.3535 2.96792 40.2975 2.92726C40.2382 2.89078 40.2137 2.87721 40.1512 2.84488C40.1254 2.83459 40.1009 2.8243 40.0772 2.81434C39.9646 2.76707 39.8693 2.72703 39.7316 2.72842C39.1453 2.85654 38.5957 2.85741 38.0439 2.85711C36.1492 2.85607 34.2545 2.85901 32.3598 2.86195C28.4766 2.86796 24.5934 2.87398 20.7104 2.84583C18.8974 2.83269 17.0842 2.84794 15.2694 2.86321C11.5133 2.89479 7.75069 2.92644 3.97045 2.70654C3.89746 2.70921 3.8683 2.70957 3.79561 2.70912C3.70197 2.70915 3.60949 2.70258 3.51827 2.6961C3.21 2.67419 2.91609 2.65331 2.64025 2.89167C2.37176 2.92056 2.09989 2.90904 1.83043 2.89763C1.179 2.87004 0.541625 2.84304 0 3.38896C0 9.72286 0 16.0148 0.0309886 22.2941C0.460904 22.6642 0.938216 22.7617 1.48352 22.7613C11.9798 22.7534 22.4761 22.7536 32.9724 22.7539C34.9885 22.7539 37.0045 22.754 39.0206 22.754C39.0659 22.754 39.1114 22.7552 39.1569 22.7564C39.2609 22.7592 39.3649 22.762 39.4672 22.7502ZM39.4409 18.702C39.4347 13.823 39.4285 8.94179 39.3928 4.04518C39.2794 4.01809 39.2051 4.01809 39.1308 4.01808H39.1302C27.2907 4.01801 15.4511 4.01801 3.61152 4.01908C3.5829 4.01909 3.55413 4.01802 3.5249 4.01694C3.41862 4.013 3.30627 4.00884 3.17268 4.055C2.63969 4.06091 2.14797 4.062 1.65624 4.06278L1.65588 4.06278C1.07448 4.0637 1.07373 4.06371 1.07371 4.63362C1.07367 5.69224 1.0736 6.75086 1.07353 7.80948C1.07324 12.1899 1.07295 16.5703 1.07493 20.9507C1.07509 21.3121 1.05434 21.4721 1.12395 21.5417C1.19389 21.6116 1.35503 21.5903 1.72022 21.5903C11.8965 21.5918 22.0727 21.5917 32.2489 21.5917C34.426 21.5916 36.603 21.5916 38.7801 21.5916C38.8131 21.5916 38.8464 21.5905 38.8796 21.5895C38.9511 21.5872 39.0225 21.5849 39.0928 21.5932C39.3733 21.6267 39.4447 21.497 39.4443 21.2325C39.4431 20.389 39.442 19.5456 39.4409 18.702Z" fill="#2A677A"/>
<path d="M5.37961 0.000254051C5.78378 -0.00118326 5.99951 0.0039471 6.55014 0.0039471C7.10077 0.0039471 8.04119 0.0175073 8.22686 0.00945886C8.4661 -0.000913218 8.77659 0.000487457 9.01589 0.000480697C20.4995 0.000480697 29.9995 0.263052 40.9995 0.263052C41.2538 0.263064 42.2458 0.248024 42.4995 0.265625C43.5635 0.0569459 43.822 1.10468 43.7363 1.16441C43.7363 1.16441 43.7363 1.23682 43.7363 1.385C43.7382 5.81561 43.7158 9.86046 43.7092 14.2911C43.7088 14.5794 43.7092 14.7911 43.7092 15.3543C43.7092 15.9175 43.6716 16.2924 43.6751 16.694C43.6783 17.3377 43.666 17.9406 43.6723 18.5434C43.6826 19.5231 43.2093 19.6946 42.4849 19.7506C42.0126 19.7872 41.5352 19.7589 41.0185 19.7655C40.9572 19.7865 39.9375 19.8015 39.9045 19.782C39.8904 19.3948 39.8895 19.0422 39.8923 18.6491C39.9163 18.5881 40.9366 18.5675 40.9914 18.5208C41.2442 18.3696 41.49 18.3968 41.726 18.3714C42.0584 18.3356 42.236 18.153 42.2684 17.8259C42.2845 17.6633 42.2817 17.5002 42.2817 17.3373C42.2823 12.3734 42.2822 7.40947 42.2818 2.44555C42.2818 2.31221 42.2856 2.17863 42.2762 2.04559C42.2433 1.57885 42.0827 1.4212 41.6047 1.39061C41.4256 1.37915 41.2458 1.385 41.0664 1.385C29.2204 1.38482 17.3745 1.38484 5.52856 1.38491C5.45377 1.38491 5.37899 1.38483 5.3042 1.38517C4.41728 1.38921 4.35592 1.4472 4.2858 2.33669C4.27311 2.49773 4.27926 2.66631 4.1124 2.82024C3.71747 2.85297 3.35315 2.85538 2.94758 2.85083C2.95347 2.13165 2.7944 1.40807 2.99833 0.706211C3.15163 0.178579 3.40736 0.0105636 3.95781 0.00945886C4.41782 0.00853459 4.87783 0.00774731 5.37961 0.000254051Z" fill="#2A677A"/>
<path fill-rule="evenodd" clip-rule="evenodd" d="M4.4716 6.46143C4.42799 7.15329 4.18237 7.74767 3.64028 8.24103C3.60955 8.2655 3.58146 8.28964 3.55481 8.31255C3.4901 8.36818 3.43385 8.41653 3.36884 8.44449C2.84367 8.67038 2.656 9.03719 2.66642 9.62852C2.70373 11.7442 2.69823 13.8611 2.66894 15.9771C2.66166 16.503 2.83456 16.8238 3.26649 17.1093C3.98628 17.5851 4.43446 18.2321 4.48836 19.1532C4.5257 19.7914 4.66919 19.9875 5.36307 19.9845C8.04903 19.9729 10.7351 19.9745 13.4211 19.9761C14.3567 19.9766 15.2923 19.9772 16.2278 19.9772L19.9538 19.9772C25.0459 19.9772 30.138 19.9772 35.2301 19.9768C35.7299 19.9767 36.0491 19.7428 36.0294 19.3021C35.9828 18.2577 36.5268 17.5735 37.3391 17.0526C37.6914 16.8266 37.8353 16.5488 37.8333 16.1355C37.8223 13.9298 37.8165 11.7239 37.8374 9.51832C37.8419 9.04628 37.6904 8.75535 37.2805 8.51666C36.5024 8.06362 36.0795 7.36942 36.036 6.45262C36.0035 5.77057 35.884 5.66805 35.2068 5.66805C25.2362 5.66794 15.2656 5.66794 5.29505 5.66804C4.63124 5.66805 4.51487 5.77502 4.4716 6.46143ZM11.4768 18.8125C12.0602 18.813 12.6457 18.8136 13.2338 18.8136H16.1937C14.1483 17.2622 13.0613 15.2361 13.0801 12.7397C13.0988 10.2541 14.192 8.23466 16.3727 6.74022L15.85 6.74021C15.095 6.74022 14.3401 6.74071 13.5852 6.74119C11.1061 6.7428 8.62712 6.74441 6.14822 6.72872C5.75038 6.7262 5.61923 6.87169 5.54234 7.21872C5.3579 8.05116 4.92509 8.73156 4.24328 9.25693C4.21206 9.28098 4.17944 9.30355 4.14681 9.32611L4.14681 9.32611L4.14681 9.32611C3.98827 9.43576 3.8297 9.54542 3.83285 9.82605C3.8509 11.4361 3.84736 13.0463 3.84382 14.6566V14.6566V14.6566V14.6566V14.6567C3.84304 15.0136 3.84225 15.3706 3.84171 15.7275C3.84144 15.8995 3.8598 16.0521 4.01317 16.1596C4.80581 16.7155 5.34413 17.4503 5.55447 18.4027C5.6264 18.7284 5.77791 18.8273 6.12515 18.8243C7.90238 18.8089 9.67977 18.8107 11.4764 18.8125H11.4765H11.4768ZM34.9721 7.34254C35.2464 8.2206 35.75 8.89685 36.4658 9.40542C36.6283 9.52088 36.666 9.6384 36.6659 9.80981C36.6643 11.791 36.6632 13.7721 36.6677 15.7532C36.6681 15.9318 36.6261 16.077 36.4771 16.1766C35.6211 16.7484 35.1441 17.5804 34.8902 18.5479C34.8371 18.7504 34.7818 18.8176 34.583 18.8173C32.4809 18.814 30.3788 18.8126 28.2767 18.8111L28.2733 18.8111C26.9804 18.8102 25.6874 18.8094 24.3945 18.808C24.3798 18.808 24.3652 18.7979 24.3429 18.7825L24.3429 18.7825C24.3297 18.7734 24.3138 18.7624 24.2936 18.7506C26.342 17.2593 27.4603 15.2435 27.431 12.7299C27.402 10.2464 26.3154 8.23152 24.1341 6.74213H25.0174C25.775 6.74213 26.5326 6.74289 27.2901 6.74364C29.616 6.74595 31.9419 6.74827 34.2676 6.72877C34.7338 6.72486 34.9491 6.85212 34.9721 7.34254ZM14.2361 13.0358C14.2934 14.2762 14.7028 15.4291 15.4964 16.4538C15.5925 16.55 15.6869 16.6468 15.7808 16.743C16.2588 17.2332 16.7231 17.7092 17.3276 18.0323C18.4255 18.6191 19.5919 18.9383 20.8241 18.7888C22.408 18.5966 23.7693 17.9211 24.8163 16.6703C26.0347 15.2146 26.5015 13.5518 26.1652 11.6926C25.9181 10.3266 25.2369 9.17402 24.1876 8.26218C22.7808 7.0397 21.118 6.5814 19.2993 6.85986C17.6706 7.10922 16.3448 7.95215 15.3791 9.3002C14.5832 10.4112 14.1731 11.6756 14.2361 13.0358Z" fill="#2A677A"/>
<path d="M8.6716 11.7706C8.93136 11.7708 9.14964 11.7468 9.3655 11.7768C9.73981 11.8288 9.91729 12.2169 9.8922 12.8887C9.86895 13.5112 9.66671 13.764 9.32366 13.761C8.36804 13.7526 7.41237 13.751 6.45677 13.7617C6.09044 13.7658 5.89547 13.5036 5.89453 12.8298C5.89362 12.1736 6.07126 11.7912 6.4572 11.7781C7.1809 11.7537 7.90506 11.7708 8.6716 11.7706Z" fill="#2A677A"/>
<path d="M34.5228 11.8997C34.9883 12.228 34.9194 12.7681 34.8287 13.2527C34.7423 13.7149 34.4448 13.7643 34.1422 13.7616C32.9551 13.7512 31.7679 13.7514 30.5807 13.7604C30.1513 13.7637 29.9358 13.5069 29.8988 12.8758C29.8593 12.2022 30.0966 11.7953 30.5112 11.7812C31.8046 11.7372 33.0996 11.7797 34.3939 11.7934C34.4223 11.7937 34.4503 11.8509 34.5228 11.8997Z" fill="#2A677A"/>
</svg>
