<svg width="20" height="17" viewBox="0 0 20 17" fill="none" xmlns="http://www.w3.org/2000/svg">
<path d="M12.1442 15.5412H10.8153V3.39327H16.407L14.04 7.14442C14.0108 7.18949 13.9909 7.23992 13.9814 7.29277C13.9719 7.34561 13.973 7.39981 13.9847 7.45223C13.9963 7.50464 14.0183 7.55421 14.0493 7.59806C14.0802 7.64191 14.1196 7.67916 14.1652 7.70764C14.2308 7.7473 14.3057 7.76889 14.3823 7.77022C14.4514 7.76987 14.5193 7.75215 14.5798 7.7187C14.6403 7.68525 14.6914 7.63715 14.7284 7.5788L16.7825 4.32093L18.8366 7.5788C18.8625 7.62928 18.8986 7.67382 18.9426 7.70958C18.9867 7.74534 19.0377 7.77154 19.0924 7.78651C19.1471 7.80148 19.2043 7.8049 19.2604 7.79654C19.3165 7.78818 19.3703 7.76823 19.4183 7.73795C19.4662 7.70768 19.5074 7.66775 19.5391 7.6207C19.5708 7.57366 19.5923 7.52052 19.6024 7.46469C19.6124 7.40886 19.6107 7.35155 19.5974 7.29641C19.5841 7.24127 19.5594 7.1895 19.525 7.14442L17.158 3.38591H17.1874C17.2744 3.39255 17.3618 3.38116 17.4441 3.35245C17.5265 3.32373 17.602 3.27832 17.666 3.21904C17.73 3.15977 17.781 3.08792 17.8159 3.00799C17.8508 2.92807 17.8688 2.8418 17.8688 2.75458C17.8688 2.66737 17.8508 2.5811 17.8159 2.50117C17.781 2.42125 17.73 2.3494 17.666 2.29012C17.602 2.23085 17.5265 2.18543 17.4441 2.15672C17.3618 2.128 17.2744 2.11661 17.1874 2.12326H12.5381C12.273 1.73534 11.8834 1.44961 11.4337 1.31339C11.4022 0.954839 11.2375 0.621098 10.9721 0.377977C10.7067 0.134856 10.3598 0 9.99988 0C9.63994 0 9.29307 0.134856 9.02765 0.377977C8.76224 0.621098 8.59755 0.954839 8.56605 1.31339C8.11693 1.45068 7.72762 1.73617 7.46169 2.12326H2.81233C2.65322 2.13542 2.50457 2.2072 2.39611 2.32426C2.28766 2.44132 2.22741 2.59501 2.22741 2.75458C2.22741 2.91416 2.28766 3.06785 2.39611 3.18491C2.50457 3.30196 2.65322 3.37375 2.81233 3.38591H2.84178L0.489492 7.14442C0.431908 7.23619 0.413131 7.34709 0.437293 7.45271C0.461454 7.55833 0.526575 7.65002 0.618335 7.70764C0.683722 7.7478 0.758795 7.76943 0.835525 7.77022C0.904624 7.76987 0.972525 7.75215 1.03299 7.7187C1.09345 7.68525 1.14454 7.63715 1.18156 7.5788L3.23199 4.32093L5.27505 7.5788C5.33361 7.66847 5.42504 7.73156 5.52965 7.7545C5.63426 7.77744 5.74369 7.75839 5.8344 7.70146C5.92511 7.64453 5.98984 7.55426 6.01466 7.45008C6.03948 7.3459 6.02241 7.23614 5.96712 7.14442L3.59643 3.38591H9.18449V15.5339H7.8519C7.47016 15.5339 7.10405 15.6855 6.83412 15.9555C6.56419 16.2254 6.41255 16.5915 6.41255 16.9732H13.5798C13.5779 16.5934 13.4259 16.2297 13.157 15.9615C12.8881 15.6933 12.524 15.5422 12.1442 15.5412Z" fill="white"/>
<path d="M6.22123 8.20312H0.217191C0.159588 8.20312 0.104345 8.22601 0.0636136 8.26674C0.0228824 8.30747 0 8.36271 0 8.42032C0.0282385 9.25526 0.379773 10.0466 0.980408 10.6272C1.58104 11.2079 2.38379 11.5325 3.21921 11.5325C4.05464 11.5325 4.85738 11.2079 5.45801 10.6272C6.05865 10.0466 6.41018 9.25526 6.43842 8.42032C6.43842 8.36271 6.41554 8.30747 6.37481 8.26674C6.33408 8.22601 6.27883 8.20313 6.22123 8.20312Z" fill="white"/>
<path d="M19.7828 8.20316H13.7824C13.7537 8.20266 13.7253 8.20794 13.6987 8.21867C13.6721 8.22941 13.648 8.24539 13.6277 8.26566C13.6075 8.28593 13.5915 8.31007 13.5807 8.33665C13.57 8.36322 13.5647 8.39169 13.5652 8.42035C13.5652 9.27365 13.9042 10.092 14.5076 10.6954C15.1109 11.2987 15.9293 11.6377 16.7826 11.6377C17.6359 11.6377 18.4542 11.2987 19.0576 10.6954C19.661 10.092 20 9.27365 20 8.42035C20.0005 8.39169 19.9952 8.36322 19.9844 8.33665C19.9737 8.31007 19.9577 8.28593 19.9375 8.26566C19.9172 8.24539 19.893 8.22941 19.8665 8.21867C19.8399 8.20794 19.8114 8.20266 19.7828 8.20316Z" fill="white"/>
</svg>
