<svg width="16" height="14" viewBox="0 0 16 14" fill="none" xmlns="http://www.w3.org/2000/svg">
<path d="M5.94667 8.13354C7.74342 8.13354 9.19998 6.52178 9.19998 4.53357C9.19998 2.54536 7.74342 0.933594 5.94667 0.933594C4.14992 0.933594 2.69336 2.54536 2.69336 4.53357C2.69336 6.52178 4.14992 8.13354 5.94667 8.13354Z" fill="white"/>
<path d="M8.95994 8.56182C8.13328 9.30848 7.09329 9.76182 5.94663 9.76182C4.79997 9.76182 3.73331 9.30848 2.93331 8.53516C1.46666 9.20182 0 10.0551 0 11.3885V11.9485C0 12.6151 0.53333 13.1485 1.19999 13.1485H10.7199C11.3866 13.1485 11.9199 12.6151 11.9199 11.9485V11.3885C11.8933 10.0551 10.4533 9.22849 8.95994 8.56182Z" fill="white"/>
<path d="M13.0668 5.89451C13.0134 5.86785 12.9868 5.84118 12.9334 5.81451C12.8268 5.76118 12.6934 5.76118 12.5868 5.84118C12.0268 6.18784 11.3601 6.40118 10.6668 6.40118C10.5868 6.40118 10.4801 6.40118 10.4001 6.40118C10.2668 6.74784 10.1334 7.0945 9.94678 7.38784C10.0534 7.44117 10.1868 7.46784 10.3201 7.54783C11.8401 8.2145 12.9068 9.04116 13.6534 10.1612H14.9334C15.5201 10.1612 16.0001 9.68115 16.0001 9.09449V8.58783C16.0001 7.28117 14.4801 6.48118 13.0668 5.89451Z" fill="white"/>
<path d="M12.7733 2.37332C12.7733 1.06666 11.8133 0 10.6667 0C10.08 0 9.57334 0.266665 9.17334 0.666662C10.1067 1.62666 10.6933 2.98665 10.6933 4.50664C10.6933 4.58664 10.6933 4.63997 10.6933 4.71997C11.84 4.71997 12.7733 3.67998 12.7733 2.37332Z" fill="white"/>
</svg>
