<svg width="24" height="31" viewBox="0 0 24 31" fill="none" xmlns="http://www.w3.org/2000/svg">
<path fill-rule="evenodd" clip-rule="evenodd" d="M7.19187 0.406881C7.40621 0.146365 7.69689 0 8 0H17.1429C19.0365 0 20.5714 1.86589 20.5714 4.16758V9.72435C20.5714 10.4916 20.0598 11.1135 19.4286 11.1135C18.7974 11.1135 18.2857 10.4916 18.2857 9.72435V4.16758C18.2857 3.40035 17.7741 2.77839 17.1429 2.77839H9.14286V9.72435C9.14286 10.4916 8.6312 11.1135 8 11.1135H2.28571V26.3947C2.28571 27.1619 2.79739 27.7839 3.42857 27.7839H6.85714C7.48832 27.7839 8 28.4058 8 29.173C8 29.9403 7.48832 30.5622 6.85714 30.5622H3.42857C1.53503 30.5622 0 28.6964 0 26.3947V9.72435C0 9.35591 0.120412 9.00257 0.334732 8.74204L7.19187 0.406881ZM3.90195 8.33516H6.85714V4.743L3.90195 8.33516ZM17.1429 25.0055C14.0515 25.0055 12.5714 27.3335 12.5714 29.173C12.5714 29.9403 12.0598 30.5622 11.4286 30.5622C10.7974 30.5622 10.2857 29.9403 10.2857 29.173C10.2857 26.6367 11.5919 24.3278 13.7088 23.1167C13.0008 22.1382 12.5714 20.8544 12.5714 19.4487C12.5714 16.3798 14.6182 13.8919 17.1429 13.8919C19.6675 13.8919 21.7143 16.3798 21.7143 19.4487C21.7143 20.8544 21.2849 22.1382 20.5769 23.1167C22.6938 24.3278 24 26.6367 24 29.173C24 29.9403 23.4883 30.5622 22.8571 30.5622C22.2259 30.5622 21.7143 29.9403 21.7143 29.173C21.7143 27.3335 20.2342 25.0055 17.1429 25.0055ZM17.1429 22.2271C18.4053 22.2271 19.4286 20.9832 19.4286 19.4487C19.4286 17.9142 18.4053 16.6703 17.1429 16.6703C15.8805 16.6703 14.8571 17.9142 14.8571 19.4487C14.8571 20.9832 15.8805 22.2271 17.1429 22.2271Z" fill="#01232D"/>
</svg>
