<svg width="64" height="63" viewBox="0 0 64 63" fill="none" xmlns="http://www.w3.org/2000/svg">
<path d="M63.4 31.1207C63.4 47.9611 49.3576 61.6413 32 61.6413C14.6424 61.6413 0.6 47.9611 0.6 31.1207C0.6 14.2802 14.6424 0.6 32 0.6C49.3576 0.6 63.4 14.2802 63.4 31.1207Z" stroke="#5A6265" stroke-width="1.2"/>
<path d="M48.4534 15.1389C48.7152 15.2662 48.9116 15.5209 48.8462 15.7755C48.8462 15.9029 48.7807 16.0302 48.6498 16.1575C46.6858 18.0676 44.7872 19.9776 42.8232 21.824C41.8412 22.7153 40.6629 23.161 39.3535 23.352C38.6989 23.4156 38.0442 23.352 37.3241 23.352C33.1342 23.352 28.9444 23.352 24.7545 23.352C23.3142 23.352 21.9394 23.6066 20.6301 24.1796C18.928 24.88 17.6187 25.8987 16.8331 27.554C16.2439 28.7637 16.1784 30.1007 16.2439 31.4377C16.3093 32.1381 16.4403 32.8384 16.6367 33.4751C16.6367 33.5388 16.6367 33.5388 16.6367 33.6024C16.5057 33.5388 16.5057 33.4114 16.4403 33.3478C15.6547 31.9471 15.2619 30.4827 15.0655 28.891C15.0655 28.8274 15.0655 28.7637 15 28.7C15 28.0634 15 27.363 15 26.7263C15.0655 26.7263 15.0655 26.6627 15.0655 26.599C15.2619 24.8163 15.7856 23.161 16.7021 21.6329C17.4223 20.4233 18.2079 19.2773 19.3208 18.3222C21.2193 16.7306 23.4452 15.7755 25.9329 15.2025C26.1293 15.1389 26.3257 15.2025 26.4566 15.0752C33.8543 15.1389 41.1866 15.1389 48.4534 15.1389Z" fill="#F6B100"/>
<path d="M37.7163 40.0338C36.4069 37.9328 35.0976 35.8318 33.7228 33.6671C33.0682 32.5847 32.4135 31.5024 31.6934 30.4837C31.1042 29.5287 30.515 28.6373 29.9258 27.6823C29.8603 27.6186 29.8603 27.555 29.7948 27.4276C29.0092 26.1543 28.2236 24.9446 27.438 23.6713C27.3726 23.5439 27.3071 23.4166 27.1762 23.2893C27.1762 23.2893 27.1762 23.2893 27.1762 23.2256C26.1942 23.2256 25.1467 23.2256 24.1647 23.2256C23.7719 23.2256 23.3791 23.2256 22.9209 23.2256C22.5935 23.3529 22.2007 23.3529 21.8734 23.4166C20.3022 23.7349 18.9929 24.4989 17.8799 25.645C16.8325 26.7273 16.3087 28.0006 16.1123 29.465C16.1123 29.5923 16.1123 29.7833 16.0469 29.9107C16.0469 29.9743 16.0469 30.038 16.0469 30.1017C16.0469 30.42 16.0469 30.6747 16.0469 30.993C16.0469 31.0567 16.0469 31.1204 16.0469 31.184C16.1123 31.2477 16.1123 31.3114 16.1123 31.375C16.1778 32.139 16.2433 32.903 16.5706 33.5397C17.0289 34.5584 17.6835 35.4497 18.4691 36.2774C18.5346 36.3411 18.5346 36.4048 18.6001 36.4684C20.0403 37.9328 21.7425 38.9515 23.7065 39.5881C24.8194 39.9701 25.9978 40.1611 27.1762 40.1611C30.6459 40.1611 34.0502 40.1611 37.5199 40.1611C37.5853 40.1611 37.7163 40.1611 37.7817 40.1611C37.8472 40.1611 37.7817 40.0975 37.7163 40.0338Z" fill="url(#paint0_linear_4853_18759)"/>
<path d="M15.5891 48.4978C15.3272 48.3704 15.1308 48.1157 15.1963 47.8611C15.1963 47.7337 15.2617 47.6064 15.3927 47.4791C17.3567 45.569 19.2552 43.659 21.2192 41.8127C22.2012 40.9213 23.3796 40.4756 24.6889 40.2846C25.3436 40.221 25.9982 40.2846 26.7184 40.2846C30.9082 40.2846 35.0981 40.2846 39.2879 40.2846C40.7282 40.2846 42.103 40.03 43.4123 39.457C45.1145 38.7566 46.4238 37.7379 47.2094 36.0826C47.7986 34.8729 47.864 33.5359 47.7986 32.1989C47.7331 31.4985 47.6022 30.7982 47.4058 30.1615C47.4058 30.0978 47.4058 30.0978 47.4058 30.0342C47.5367 30.0978 47.5367 30.2252 47.6022 30.2888C48.3878 31.6895 48.7806 33.1539 48.977 34.7456C48.977 34.8092 48.977 34.8729 49.0424 34.9366C49.0424 35.5733 49.0424 36.2736 49.0424 36.9103C48.977 36.9103 48.977 36.9739 48.977 37.0376C48.7806 38.8203 48.2568 40.4756 47.3403 42.0037C46.6202 43.2134 45.8346 44.3594 44.7217 45.3144C42.8231 46.9061 40.5973 47.8611 38.1095 48.4341C37.9131 48.4978 37.7167 48.4341 37.5858 48.5614C30.1881 48.4978 22.9213 48.4978 15.5891 48.4978Z" fill="#2A677A"/>
<path d="M26.325 23.6066C27.6343 25.7076 28.9437 27.8087 30.3185 29.9733C30.9731 31.0557 31.6278 32.138 32.3479 33.1567C32.9371 34.1117 33.5263 35.0031 34.1155 35.9581C34.181 36.0218 34.181 36.0854 34.2464 36.2128C35.032 37.4861 35.8176 38.6958 36.6032 39.9691C36.6687 40.0965 36.7342 40.2238 36.8651 40.3512C36.8651 40.3512 36.8651 40.3512 36.8651 40.4148C37.8471 40.4148 38.8946 40.4148 39.8766 40.4148C40.2694 40.4148 40.6622 40.4148 41.1204 40.4148C41.4478 40.2875 41.8406 40.2875 42.1679 40.2238C43.7391 39.9055 45.0484 39.1415 46.1613 37.9955C47.2088 36.9131 47.7325 35.6398 47.9289 34.1754C47.9289 34.0481 47.9289 33.8571 47.9944 33.7297C47.9944 33.6661 47.9944 33.6024 47.9944 33.5387C47.9944 33.2204 47.9944 32.9657 47.9944 32.6474C47.9944 32.5837 47.9944 32.5201 47.9944 32.4564C47.9289 32.3927 47.9289 32.329 47.9289 32.2654C47.8635 31.5014 47.798 30.7374 47.4707 30.1007C47.0124 29.082 46.3577 28.1907 45.5721 27.363C45.5067 27.2993 45.5067 27.2356 45.4412 27.172C44.0009 25.7076 42.2988 24.6889 40.3348 24.0523C39.2219 23.6703 38.0435 23.4793 36.8651 23.4793C33.3954 23.4793 29.9911 23.4793 26.5214 23.4793C26.4559 23.4793 26.325 23.4793 26.2595 23.4793C26.1941 23.4156 26.2595 23.5429 26.325 23.6066Z" fill="url(#paint1_linear_4853_18759)"/>
<path d="M33.2654 39.0142L24.5583 28.9547C23.249 27.4267 23.4454 25.1984 25.0166 23.9887C26.5878 22.7153 28.8791 22.9063 30.123 24.4344L38.83 34.4938C40.1394 36.0218 39.943 38.2502 38.3718 39.4599C36.866 40.7332 34.5747 40.5422 33.2654 39.0142Z" fill="white"/>
<g filter="url(#filter0_d_4853_18759)">
<path d="M36.0144 33.8564C34.3777 33.8564 33.0684 35.1298 33.0684 36.7215C33.0684 38.3132 34.3777 39.5865 36.0144 39.5865C37.651 39.5865 38.9603 38.3132 38.9603 36.7215C38.9603 35.1298 37.5855 33.8564 36.0144 33.8564Z" fill="#2A677A"/>
</g>
<defs>
<filter id="filter0_d_4853_18759" x="28.0684" y="28.8564" width="13.8926" height="13.7305" filterUnits="userSpaceOnUse" color-interpolation-filters="sRGB">
<feFlood flood-opacity="0" result="BackgroundImageFix"/>
<feColorMatrix in="SourceAlpha" type="matrix" values="0 0 0 0 0 0 0 0 0 0 0 0 0 0 0 0 0 0 127 0" result="hardAlpha"/>
<feOffset dx="-1" dy="-1"/>
<feGaussianBlur stdDeviation="2"/>
<feComposite in2="hardAlpha" operator="out"/>
<feColorMatrix type="matrix" values="0 0 0 0 0 0 0 0 0 0 0 0 0 0 0 0 0 0 0.15 0"/>
<feBlend mode="normal" in2="BackgroundImageFix" result="effect1_dropShadow_4853_18759"/>
<feBlend mode="normal" in="SourceGraphic" in2="effect1_dropShadow_4853_18759" result="shape"/>
</filter>
<linearGradient id="paint0_linear_4853_18759" x1="19.7203" y1="24.3814" x2="30.2599" y2="43.1524" gradientUnits="userSpaceOnUse">
<stop stop-color="#E09602"/>
<stop offset="1" stop-color="#F4AD01"/>
</linearGradient>
<linearGradient id="paint1_linear_4853_18759" x1="44.3432" y1="39.2372" x2="33.8052" y2="20.4691" gradientUnits="userSpaceOnUse">
<stop stop-color="#1C4856"/>
<stop offset="1" stop-color="#327083"/>
</linearGradient>
</defs>
</svg>
