<svg width="35" height="10" viewBox="0 0 35 10" fill="none" xmlns="http://www.w3.org/2000/svg">
<path d="M4.10283 8.6821C6.3283 8.66313 8.11634 6.76294 8.09652 4.43796C8.0767 2.11297 6.25652 0.243548 4.03105 0.262521C1.80557 0.281494 0.0175337 2.18168 0.0373552 4.50666C0.0571768 6.83165 1.87735 8.70107 4.10283 8.6821Z" fill="white"/>
<path d="M17.7902 8.89484C20.1555 8.87467 22.0564 6.90005 22.0358 4.48444C22.0152 2.06884 20.081 0.126914 17.7156 0.14708C15.3502 0.167246 13.4493 2.14187 13.4699 4.55747C13.4905 6.97308 15.4248 8.915 17.7902 8.89484Z" fill="white"/>
<path d="M34.9618 4.21139C34.9816 6.53638 33.1935 8.43656 30.9681 8.45554C28.7426 8.47451 26.9224 6.60508 26.9026 4.2801C26.8828 1.95512 28.6708 0.0549315 30.8963 0.0359585C33.1217 0.0169854 34.9419 1.88641 34.9618 4.21139Z" fill="white"/>
</svg>
