<svg width="26" height="39" viewBox="0 0 26 39" fill="none" xmlns="http://www.w3.org/2000/svg">
<mask id="mask0_239_13391" style="mask-type:luminance" maskUnits="userSpaceOnUse" x="0" y="12" width="26" height="27">
<path d="M25.1873 12H0V38.5441H25.1873V12Z" fill="white"/>
</mask>
<g mask="url(#mask0_239_13391)">
<path fill-rule="evenodd" clip-rule="evenodd" d="M1.04947 12C1.62907 12 2.09894 12.4952 2.09894 13.106V20.848H5.24735C4.66775 20.848 4.19788 20.3529 4.19788 19.742V17.53C4.19788 16.9192 4.66775 16.424 5.24735 16.424H9.44523C10.0248 16.424 10.4947 16.9192 10.4947 17.53V19.742C10.4947 20.3529 10.0248 20.848 9.44523 20.848H13.6431C13.0635 20.848 12.5936 20.3529 12.5936 19.742V15.318C12.5936 14.7072 13.0635 14.212 13.6431 14.212H19.9399C20.5196 14.212 20.9894 14.7072 20.9894 15.318V19.742C20.9894 20.3529 20.5196 20.848 19.9399 20.848H23.0883V13.106C23.0883 12.4952 23.5582 12 24.1378 12C24.7174 12 25.1873 12.4952 25.1873 13.106V37.4381C25.1873 38.049 24.7174 38.5441 24.1378 38.5441C23.5582 38.5441 23.0883 38.049 23.0883 37.4381V36.3321H2.09894V37.4381C2.09894 38.049 1.62907 38.5441 1.04947 38.5441C0.469863 38.5441 0 38.049 0 37.4381V13.106C0 12.4952 0.469863 12 1.04947 12ZM23.0883 34.1201H19.9399C20.5196 34.1201 20.9894 33.6249 20.9894 33.0141V28.5901C20.9894 27.9792 20.5196 27.4841 19.9399 27.4841H14.6926C14.113 27.4841 13.6431 27.9792 13.6431 28.5901V33.0141C13.6431 33.6249 14.113 34.1201 14.6926 34.1201H10.4947C11.0743 34.1201 11.5442 33.6249 11.5442 33.0141V26.3781C11.5442 25.7672 11.0743 25.2721 10.4947 25.2721H5.24735C4.66775 25.2721 4.19788 25.7672 4.19788 26.3781V33.0141C4.19788 33.6249 4.66775 34.1201 5.24735 34.1201H2.09894V23.0601H23.0883V34.1201Z" fill="white"/>
</g>
<rect width="2.84373" height="25.1873" rx="1.42186" fill="white"/>
<rect x="23.1562" width="2.84373" height="25.1873" rx="1.42186" fill="white"/>
<rect width="2.43748" height="25.1873" rx="1.21874" transform="matrix(-4.37114e-08 -1 -1 4.37114e-08 26 10.5625)" fill="white"/>
<rect width="2.43748" height="25.1873" rx="1.21874" transform="matrix(-4.37114e-08 -1 -1 4.37114e-08 25.5938 23.1562)" fill="white"/>
</svg>
