<svg width="17" height="15" viewBox="0 0 17 15" fill="none" xmlns="http://www.w3.org/2000/svg">
<path d="M14.4537 0.53534L13.383 0L12.3123 0.53534L11.2416 0L10.171 0.53534L9.10028 0L8.0296 0.53534L6.95893 0L5.88825 0.53534L4.28223 0V8.56544V8.56711H11.777V13.1158C11.777 14.1507 12.8835 14.9895 13.9183 14.9895H14.3198C15.3547 14.9895 16.0597 14.1507 16.0597 13.1158V0L14.4537 0.53534ZM8.58167 6.95942L8.56494 5.88874H13.9016L13.9183 6.95942H8.58167ZM6.44031 4.28272L6.42359 3.21204H13.9016L13.9183 4.28272H6.44031Z" fill="white"/>
<path d="M10.7068 13.1281V9.64844H0V10.7191C0 12.4105 0.193391 13.1154 0.483813 13.6511C0.97666 14.5602 1.869 15.0018 3.21204 15.0018H11.7775C11.7775 15.0018 10.7068 14.3327 10.7068 13.1281Z" fill="white"/>
</svg>
