<svg width="115" height="116" viewBox="0 0 115 116" fill="none" xmlns="http://www.w3.org/2000/svg">
<path d="M112.368 0.2199C113.248 0.659698 113.908 1.53929 113.688 2.41889C113.688 2.85869 113.468 3.29849 113.028 3.73828C106.431 10.3353 100.054 16.9322 93.4571 23.3093C90.1586 26.3879 86.2005 27.9272 81.8025 28.5869C79.6035 28.8068 77.4045 28.5869 74.9856 28.5869C60.9121 28.5869 46.8385 28.5869 32.765 28.5869C27.9272 28.5869 23.3093 29.4665 18.9113 31.4456C13.1939 33.8645 8.79596 37.3828 6.15717 43.1002C4.17808 47.2783 3.95818 51.8962 4.17808 56.5141C4.39798 58.933 4.83778 61.3519 5.49748 63.5508C5.49748 63.7707 5.49748 63.7707 5.49748 63.9906C5.05768 63.7707 5.05768 63.331 4.83778 63.1111C2.19899 58.2733 0.879597 53.2156 0.2199 47.7181C0.2199 47.4982 0.219899 47.2783 0 47.0584C0 44.8594 0 42.4405 0 40.2415C0.219899 40.2415 0.2199 40.0216 0.2199 39.8017C0.879597 33.6446 2.63879 27.9272 5.71738 22.6496C8.13627 18.4715 10.7751 14.5133 14.5133 11.2149C20.8904 5.71738 28.367 2.41889 36.7232 0.439798C37.3829 0.219899 38.0425 0.439798 38.4823 0C63.3309 0.219899 87.9596 0.2199 112.368 0.2199Z" fill="#F6B100"/>
<path d="M76.3042 86.2028C71.9062 78.9461 67.5082 71.6894 62.8903 64.2129C60.6914 60.4746 58.4924 56.7363 56.0735 53.2179C54.0944 49.9194 52.1153 46.8408 50.1362 43.5424C49.9163 43.3225 49.9163 43.1026 49.6964 42.6628C47.0576 38.2648 44.4188 34.0867 41.78 29.6887C41.5601 29.2489 41.3402 28.8091 40.9004 28.3693C40.9004 28.3693 40.9004 28.3693 40.9004 28.1494C37.6019 28.1494 34.0836 28.1494 30.7851 28.1494C29.4657 28.1494 28.1463 28.1494 26.607 28.1494C25.5075 28.5892 24.1881 28.5892 23.0886 28.8091C17.811 29.9086 13.413 32.5474 9.67475 36.5056C6.15637 40.2439 4.39718 44.6418 3.73748 49.6995C3.73748 50.1393 3.73748 50.799 3.51758 51.2388C3.51758 51.4587 3.51758 51.6786 3.51758 51.8985C3.51758 52.998 3.51758 53.8776 3.51758 54.9771C3.51758 55.197 3.51758 55.4169 3.51758 55.6368C3.73748 55.8567 3.73748 56.0766 3.73748 56.2965C3.95738 58.9353 4.17727 61.5741 5.27677 63.7731C6.81606 67.2915 9.01505 70.37 11.6538 73.2287C11.8737 73.4486 11.8737 73.6685 12.0936 73.8884C16.9314 78.9461 22.6488 82.4645 29.2458 84.6635C32.9841 85.9829 36.9422 86.6426 40.9004 86.6426C52.5551 86.6426 63.9899 86.6426 75.6445 86.6426C75.8644 86.6426 76.3042 86.6426 76.5241 86.6426C76.744 86.6426 76.5241 86.4227 76.3042 86.2028Z" fill="url(#paint0_linear_4175_17780)"/>
<path d="M1.97823 115.446C1.09863 115.006 0.438931 114.126 0.658831 113.247C0.658831 112.807 0.878732 112.367 1.31853 111.927C7.9155 105.33 14.2926 98.7332 20.8896 92.3561C24.188 89.2776 28.1462 87.7383 32.5442 87.0786C34.7432 86.8587 36.9422 87.0786 39.3611 87.0786C53.4346 87.0786 67.5082 87.0786 81.5817 87.0786C86.4195 87.0786 91.0374 86.199 95.4354 84.2199C101.153 81.801 105.551 78.2826 108.19 72.5652C110.169 68.3871 110.388 63.7693 110.169 59.1514C109.949 56.7325 109.509 54.3136 108.849 52.1146C108.849 51.8947 108.849 51.8947 108.849 51.6748C109.289 51.8947 109.289 52.3345 109.509 52.5544C112.148 57.3922 113.467 62.4499 114.127 67.9473C114.127 68.1672 114.127 68.3871 114.347 68.607C114.347 70.806 114.347 73.2249 114.347 75.4239C114.127 75.4239 114.127 75.6438 114.127 75.8637C113.467 82.0209 111.708 87.7383 108.629 93.0158C106.21 97.1939 103.572 101.152 99.8333 104.451C93.4563 109.948 85.9797 113.247 77.6235 115.226C76.9638 115.446 76.3041 115.226 75.8643 115.665C51.0157 115.446 26.6069 115.446 1.97823 115.446Z" fill="#2A677A"/>
<path d="M38.0429 29.4665C42.4409 36.7232 46.8389 43.9799 51.4568 51.4564C53.6558 55.1947 55.8547 58.933 58.2736 62.4514C60.2527 65.7499 62.2318 68.8285 64.2109 72.127C64.4308 72.3469 64.4308 72.5668 64.6507 73.0066C67.2895 77.4045 69.9283 81.5826 72.5671 85.9806C72.787 86.4204 73.0069 86.8602 73.4467 87.3C73.4467 87.3 73.4467 87.3 73.4467 87.5199C76.7452 87.5199 80.2636 87.5199 83.562 87.5199C84.8814 87.5199 86.2008 87.5199 87.7401 87.5199C88.8396 87.0801 90.159 87.0801 91.2585 86.8602C96.5361 85.7607 100.934 83.1219 104.672 79.1637C108.191 75.4254 109.95 71.0275 110.61 65.9698C110.61 65.53 110.61 64.8703 110.83 64.4305C110.83 64.2106 110.83 63.9907 110.83 63.7708C110.83 62.6713 110.83 61.7917 110.83 60.6922C110.83 60.4723 110.83 60.2524 110.83 60.0325C110.61 59.8126 110.61 59.5927 110.61 59.3728C110.39 56.734 110.17 54.0952 109.07 51.8962C107.531 48.3779 105.332 45.2993 102.693 42.4406C102.473 42.2207 102.473 42.0008 102.253 41.7809C97.4157 36.7232 91.6983 33.2048 85.1013 31.0058C81.3631 29.6864 77.4049 29.0267 73.4467 29.0267C61.792 29.0267 50.3573 29.0267 38.7026 29.0267C38.4827 29.0267 38.0429 29.0267 37.823 29.0267C37.6031 28.8068 37.823 29.2466 38.0429 29.4665Z" fill="url(#paint1_linear_4175_17780)"/>
<path d="M61.3508 82.6825L32.1042 47.9385C27.7062 42.6609 28.3659 34.9644 33.6435 30.7863C38.9211 26.3883 46.6175 27.048 50.7956 32.3256L80.0422 67.0697C84.4402 72.3473 83.7805 80.0437 78.5029 84.2218C73.4452 88.6198 65.7488 87.9601 61.3508 82.6825Z" fill="white"/>
<g filter="url(#filter0_d_4175_17780)">
<path d="M70.5869 64.8691C65.0894 64.8691 60.6914 69.2671 60.6914 74.7646C60.6914 80.2621 65.0894 84.6601 70.5869 84.6601C76.0843 84.6601 80.4823 80.2621 80.4823 74.7646C80.4823 69.2671 75.8644 64.8691 70.5869 64.8691Z" fill="#2A677A"/>
</g>
<defs>
<filter id="filter0_d_4175_17780" x="55.6914" y="59.8691" width="27.791" height="27.791" filterUnits="userSpaceOnUse" color-interpolation-filters="sRGB">
<feFlood flood-opacity="0" result="BackgroundImageFix"/>
<feColorMatrix in="SourceAlpha" type="matrix" values="0 0 0 0 0 0 0 0 0 0 0 0 0 0 0 0 0 0 127 0" result="hardAlpha"/>
<feOffset dx="-1" dy="-1"/>
<feGaussianBlur stdDeviation="2"/>
<feComposite in2="hardAlpha" operator="out"/>
<feColorMatrix type="matrix" values="0 0 0 0 0 0 0 0 0 0 0 0 0 0 0 0 0 0 0.15 0"/>
<feBlend mode="normal" in2="BackgroundImageFix" result="effect1_dropShadow_4175_17780"/>
<feBlend mode="normal" in="SourceGraphic" in2="effect1_dropShadow_4175_17780" result="shape"/>
</filter>
<linearGradient id="paint0_linear_4175_17780" x1="15.8566" y1="32.1415" x2="52.7803" y2="96.0954" gradientUnits="userSpaceOnUse">
<stop stop-color="#E09602"/>
<stop offset="1" stop-color="#F4AD01"/>
</linearGradient>
<linearGradient id="paint1_linear_4175_17780" x1="98.5653" y1="83.4526" x2="61.6471" y2="19.5084" gradientUnits="userSpaceOnUse">
<stop stop-color="#1C4856"/>
<stop offset="1" stop-color="#327083"/>
</linearGradient>
</defs>
</svg>
