<svg width="25" height="26" viewBox="0 0 25 26" fill="none" xmlns="http://www.w3.org/2000/svg">
<path d="M24.5673 0.0480771C24.7596 0.144231 24.9038 0.336539 24.8558 0.528846C24.8558 0.625 24.8077 0.721154 24.7115 0.817308C23.2692 2.25962 21.875 3.70192 20.4327 5.09615C19.7115 5.76923 18.8462 6.10577 17.8846 6.25C17.4038 6.29808 16.9231 6.25 16.3942 6.25C13.3173 6.25 10.2404 6.25 7.16346 6.25C6.10577 6.25 5.09615 6.44231 4.13462 6.875C2.88462 7.40385 1.92308 8.17308 1.34615 9.42308C0.913461 10.3365 0.865385 11.3462 0.913461 12.3558C0.961538 12.8846 1.05769 13.4135 1.20192 13.8942C1.20192 13.9423 1.20192 13.9423 1.20192 13.9904C1.10577 13.9423 1.10577 13.8462 1.05769 13.7981C0.48077 12.7404 0.192308 11.6346 0.0480771 10.4327C0.0480771 10.3846 0.0480769 10.3365 0 10.2885C0 9.80769 0 9.27885 0 8.79808C0.0480769 8.79808 0.0480771 8.75 0.0480771 8.70192C0.192308 7.35577 0.576923 6.10577 1.25 4.95192C1.77885 4.03846 2.35577 3.17308 3.17308 2.45192C4.56731 1.25 6.20192 0.528846 8.02885 0.0961538C8.17308 0.0480768 8.31731 0.0961539 8.41346 0C13.8462 0.0480769 19.2308 0.0480771 24.5673 0.0480771Z" fill="#F6B100"/>
<path d="M16.6827 18.8461C15.7212 17.2596 14.7596 15.673 13.75 14.0384C13.2692 13.2211 12.7885 12.4038 12.2596 11.6346C11.8269 10.9134 11.3942 10.2403 10.9615 9.51919C10.9135 9.47112 10.9135 9.42304 10.8654 9.32689C10.2885 8.36535 9.71154 7.45189 9.13461 6.49035C9.08653 6.39419 9.03846 6.29804 8.9423 6.20189C8.9423 6.20189 8.9423 6.20189 8.9423 6.15381C8.22115 6.15381 7.45192 6.15381 6.73077 6.15381C6.4423 6.15381 6.15384 6.15381 5.8173 6.15381C5.57692 6.24996 5.28846 6.24996 5.04807 6.29804C3.89423 6.53842 2.93269 7.11535 2.11538 7.98073C1.34615 8.79804 0.961534 9.75958 0.817303 10.8653C0.817303 10.9615 0.817303 11.1057 0.769226 11.2019C0.769226 11.25 0.769226 11.298 0.769226 11.3461C0.769226 11.5865 0.769226 11.7788 0.769226 12.0192C0.769226 12.0673 0.769226 12.1153 0.769226 12.1634C0.817303 12.2115 0.817303 12.2596 0.817303 12.3077C0.86538 12.8846 0.913456 13.4615 1.15384 13.9423C1.49038 14.7115 1.97115 15.3846 2.54807 16.0096C2.59615 16.0577 2.59615 16.1057 2.64423 16.1538C3.70192 17.2596 4.95192 18.0288 6.39423 18.5096C7.21153 18.798 8.07692 18.9423 8.9423 18.9423C11.4904 18.9423 13.9904 18.9423 16.5385 18.9423C16.5865 18.9423 16.6827 18.9423 16.7308 18.9423C16.7788 18.9423 16.7308 18.8942 16.6827 18.8461Z" fill="url(#paint0_linear_5676_3311)"/>
<path d="M0.432698 25.2402C0.24039 25.144 0.0961593 24.9517 0.144236 24.7594C0.144236 24.6632 0.192314 24.5671 0.288468 24.4709C1.73078 23.0286 3.12501 21.5863 4.56731 20.1921C5.28847 19.519 6.15385 19.1825 7.11539 19.0382C7.59616 18.9902 8.07693 19.0382 8.60578 19.0382C11.6827 19.0382 14.7596 19.0382 17.8365 19.0382C18.8942 19.0382 19.9039 18.8459 20.8654 18.4132C22.1154 17.8844 23.0769 17.1152 23.6539 15.8652C24.0865 14.9517 24.1346 13.9421 24.0865 12.9325C24.0385 12.4036 23.9423 11.8748 23.7981 11.394C23.7981 11.3459 23.7981 11.3459 23.7981 11.2979C23.8942 11.3459 23.8942 11.4421 23.9423 11.4902C24.5192 12.5479 24.8077 13.6536 24.9519 14.8555C24.9519 14.9036 24.9519 14.9517 25 14.9998C25 15.4805 25 16.0094 25 16.4902C24.9519 16.4902 24.9519 16.5382 24.9519 16.5863C24.8077 17.9325 24.4231 19.1825 23.75 20.3363C23.2212 21.2498 22.6442 22.1152 21.8269 22.8363C20.4327 24.0382 18.7981 24.7594 16.9712 25.1921C16.8269 25.2402 16.6827 25.1921 16.5865 25.2882C11.1539 25.2402 5.81731 25.2402 0.432698 25.2402Z" fill="#2A677A"/>
<path d="M8.31732 6.44227C9.27886 8.0288 10.2404 9.61534 11.25 11.25C11.7308 12.0673 12.2116 12.8846 12.7404 13.6538C13.1731 14.375 13.6058 15.048 14.0385 15.7692C14.0866 15.8173 14.0866 15.8653 14.1346 15.9615C14.7116 16.923 15.2885 17.8365 15.8654 18.798C15.9135 18.8942 15.9616 18.9903 16.0577 19.0865C16.0577 19.0865 16.0577 19.0865 16.0577 19.1346C16.7789 19.1346 17.5481 19.1346 18.2692 19.1346C18.5577 19.1346 18.8462 19.1346 19.1827 19.1346C19.4231 19.0384 19.7116 19.0384 19.9519 18.9903C21.1058 18.75 22.0673 18.173 22.8846 17.3077C23.6539 16.4903 24.0385 15.5288 24.1827 14.423C24.1827 14.3269 24.1827 14.1827 24.2308 14.0865C24.2308 14.0384 24.2308 13.9903 24.2308 13.9423C24.2308 13.7019 24.2308 13.5096 24.2308 13.2692C24.2308 13.2211 24.2308 13.173 24.2308 13.125C24.1827 13.0769 24.1827 13.0288 24.1827 12.9807C24.1346 12.4038 24.0866 11.8269 23.8462 11.3461C23.5096 10.5769 23.0289 9.9038 22.4519 9.2788C22.4039 9.23073 22.4039 9.18265 22.3558 9.13457C21.2981 8.0288 20.0481 7.25957 18.6058 6.7788C17.7885 6.49034 16.9231 6.34611 16.0577 6.34611C13.5096 6.34611 11.0096 6.34611 8.46155 6.34611C8.41347 6.34611 8.31732 6.34611 8.26924 6.34611C8.22117 6.29803 8.26924 6.39419 8.31732 6.44227Z" fill="url(#paint1_linear_5676_3311)"/>
<path d="M13.4134 18.0771L7.0192 10.4809C6.05766 9.32708 6.20189 7.64439 7.35574 6.73093C8.50958 5.76939 10.1923 5.91362 11.1057 7.06747L17.5 14.6636C18.4615 15.8175 18.3173 17.5002 17.1634 18.4136C16.0577 19.3752 14.375 19.2309 13.4134 18.0771Z" fill="white"/>
<g filter="url(#filter0_d_5676_3311)">
<path d="M15.4327 14.1826C14.2308 14.1826 13.2692 15.1442 13.2692 16.3461C13.2692 17.548 14.2308 18.5095 15.4327 18.5095C16.6346 18.5095 17.5961 17.548 17.5961 16.3461C17.5961 15.1442 16.5865 14.1826 15.4327 14.1826Z" fill="#2A677A"/>
</g>
<defs>
<filter id="filter0_d_5676_3311" x="8.26923" y="9.18262" width="12.3269" height="12.3271" filterUnits="userSpaceOnUse" color-interpolation-filters="sRGB">
<feFlood flood-opacity="0" result="BackgroundImageFix"/>
<feColorMatrix in="SourceAlpha" type="matrix" values="0 0 0 0 0 0 0 0 0 0 0 0 0 0 0 0 0 0 127 0" result="hardAlpha"/>
<feOffset dx="-1" dy="-1"/>
<feGaussianBlur stdDeviation="2"/>
<feComposite in2="hardAlpha" operator="out"/>
<feColorMatrix type="matrix" values="0 0 0 0 0 0 0 0 0 0 0 0 0 0 0 0 0 0 0.15 0"/>
<feBlend mode="normal" in2="BackgroundImageFix" result="effect1_dropShadow_5676_3311"/>
<feBlend mode="normal" in="SourceGraphic" in2="effect1_dropShadow_5676_3311" result="shape"/>
</filter>
<linearGradient id="paint0_linear_5676_3311" x1="3.46692" y1="7.0266" x2="11.5396" y2="21.009" gradientUnits="userSpaceOnUse">
<stop stop-color="#E09602"/>
<stop offset="1" stop-color="#F4AD01"/>
</linearGradient>
<linearGradient id="paint1_linear_5676_3311" x1="21.5494" y1="18.2453" x2="13.4779" y2="4.2651" gradientUnits="userSpaceOnUse">
<stop stop-color="#1C4856"/>
<stop offset="1" stop-color="#327083"/>
</linearGradient>
</defs>
</svg>
