<svg width="105" height="26" viewBox="0 0 105 26" fill="none" xmlns="http://www.w3.org/2000/svg">
<path d="M24.5673 0.0480771C24.7596 0.144231 24.9038 0.336539 24.8558 0.528846C24.8558 0.625 24.8077 0.721154 24.7115 0.817308C23.2692 2.25962 21.875 3.70192 20.4327 5.09615C19.7115 5.76923 18.8462 6.10577 17.8846 6.25C17.4038 6.29808 16.9231 6.25 16.3942 6.25C13.3173 6.25 10.2404 6.25 7.16346 6.25C6.10577 6.25 5.09615 6.44231 4.13462 6.875C2.88462 7.40385 1.92308 8.17308 1.34615 9.42308C0.913461 10.3365 0.865385 11.3462 0.913462 12.3558C0.961538 12.8846 1.05769 13.4135 1.20192 13.8942C1.20192 13.9423 1.20192 13.9423 1.20192 13.9904C1.10577 13.9423 1.10577 13.8462 1.05769 13.7981C0.48077 12.7404 0.192308 11.6346 0.0480771 10.4327C0.0480771 10.3846 0.0480769 10.3365 0 10.2885C0 9.80769 0 9.27885 0 8.79808C0.0480769 8.79808 0.0480771 8.75 0.0480771 8.70192C0.192308 7.35577 0.576923 6.10577 1.25 4.95192C1.77885 4.03846 2.35577 3.17308 3.17308 2.45192C4.56731 1.25 6.20192 0.528846 8.02885 0.0961538C8.17308 0.0480768 8.31731 0.0961539 8.41346 0C13.8462 0.0480769 19.2308 0.0480771 24.5673 0.0480771Z" fill="#F6B100"/>
<path d="M16.6827 18.8461C15.7212 17.2596 14.7596 15.673 13.75 14.0384C13.2692 13.2211 12.7885 12.4038 12.2596 11.6346C11.8269 10.9134 11.3942 10.2403 10.9615 9.51919C10.9135 9.47112 10.9135 9.42304 10.8654 9.32689C10.2885 8.36535 9.71154 7.45189 9.13461 6.49035C9.08653 6.39419 9.03846 6.29804 8.9423 6.20189C8.9423 6.20189 8.9423 6.20189 8.9423 6.15381C8.22115 6.15381 7.45192 6.15381 6.73077 6.15381C6.4423 6.15381 6.15384 6.15381 5.8173 6.15381C5.57692 6.24996 5.28846 6.24996 5.04807 6.29804C3.89423 6.53842 2.93269 7.11535 2.11538 7.98073C1.34615 8.79804 0.961534 9.75958 0.817303 10.8653C0.817303 10.9615 0.817303 11.1057 0.769226 11.2019C0.769226 11.25 0.769226 11.298 0.769226 11.3461C0.769226 11.5865 0.769226 11.7788 0.769226 12.0192C0.769226 12.0673 0.769226 12.1153 0.769226 12.1634C0.817303 12.2115 0.817303 12.2596 0.817303 12.3077C0.86538 12.8846 0.913456 13.4615 1.15384 13.9423C1.49038 14.7115 1.97115 15.3846 2.54807 16.0096C2.59615 16.0577 2.59615 16.1057 2.64423 16.1538C3.70192 17.2596 4.95192 18.0288 6.39423 18.5096C7.21153 18.798 8.07692 18.9423 8.9423 18.9423C11.4904 18.9423 13.9904 18.9423 16.5385 18.9423C16.5865 18.9423 16.6827 18.9423 16.7308 18.9423C16.7788 18.9423 16.7308 18.8942 16.6827 18.8461Z" fill="url(#paint0_linear_5676_3310)"/>
<path d="M0.432698 25.2402C0.24039 25.144 0.0961593 24.9517 0.144236 24.7594C0.144236 24.6632 0.192314 24.5671 0.288468 24.4709C1.73078 23.0286 3.12501 21.5863 4.56731 20.1921C5.28847 19.519 6.15385 19.1825 7.11539 19.0382C7.59616 18.9902 8.07693 19.0382 8.60578 19.0382C11.6827 19.0382 14.7596 19.0382 17.8365 19.0382C18.8942 19.0382 19.9039 18.8459 20.8654 18.4132C22.1154 17.8844 23.0769 17.1152 23.6539 15.8652C24.0865 14.9517 24.1346 13.9421 24.0865 12.9325C24.0385 12.4036 23.9423 11.8748 23.7981 11.394C23.7981 11.3459 23.7981 11.3459 23.7981 11.2979C23.8942 11.3459 23.8942 11.4421 23.9423 11.4902C24.5192 12.5479 24.8077 13.6536 24.9519 14.8555C24.9519 14.9036 24.9519 14.9517 25 14.9998C25 15.4805 25 16.0094 25 16.4902C24.9519 16.4902 24.9519 16.5382 24.9519 16.5863C24.8077 17.9325 24.4231 19.1825 23.75 20.3363C23.2212 21.2498 22.6442 22.1152 21.8269 22.8363C20.4327 24.0382 18.7981 24.7594 16.9712 25.1921C16.8269 25.2402 16.6827 25.1921 16.5865 25.2882C11.1539 25.2402 5.81731 25.2402 0.432698 25.2402Z" fill="#2A677A"/>
<path d="M8.31732 6.44227C9.27886 8.0288 10.2404 9.61534 11.25 11.25C11.7308 12.0673 12.2116 12.8846 12.7404 13.6538C13.1731 14.375 13.6058 15.048 14.0385 15.7692C14.0866 15.8173 14.0866 15.8653 14.1346 15.9615C14.7116 16.923 15.2885 17.8365 15.8654 18.798C15.9135 18.8942 15.9616 18.9903 16.0577 19.0865C16.0577 19.0865 16.0577 19.0865 16.0577 19.1346C16.7789 19.1346 17.5481 19.1346 18.2692 19.1346C18.5577 19.1346 18.8462 19.1346 19.1827 19.1346C19.4231 19.0384 19.7116 19.0384 19.9519 18.9903C21.1058 18.75 22.0673 18.173 22.8846 17.3077C23.6539 16.4903 24.0385 15.5288 24.1827 14.423C24.1827 14.3269 24.1827 14.1827 24.2308 14.0865C24.2308 14.0384 24.2308 13.9903 24.2308 13.9423C24.2308 13.7019 24.2308 13.5096 24.2308 13.2692C24.2308 13.2211 24.2308 13.173 24.2308 13.125C24.1827 13.0769 24.1827 13.0288 24.1827 12.9807C24.1346 12.4038 24.0866 11.8269 23.8462 11.3461C23.5096 10.5769 23.0289 9.9038 22.4519 9.2788C22.4039 9.23073 22.4039 9.18265 22.3558 9.13457C21.2981 8.0288 20.0481 7.25957 18.6058 6.7788C17.7885 6.49034 16.9231 6.34611 16.0577 6.34611C13.5096 6.34611 11.0096 6.34611 8.46155 6.34611C8.41347 6.34611 8.31732 6.34611 8.26924 6.34611C8.22117 6.29803 8.26924 6.39419 8.31732 6.44227Z" fill="url(#paint1_linear_5676_3310)"/>
<path d="M13.4134 18.0771L7.0192 10.4809C6.05766 9.32708 6.20189 7.64439 7.35574 6.73093C8.50958 5.76939 10.1923 5.91362 11.1057 7.06747L17.5 14.6636C18.4615 15.8175 18.3173 17.5002 17.1634 18.4136C16.0577 19.3752 14.375 19.2309 13.4134 18.0771Z" fill="white"/>
<g filter="url(#filter0_d_5676_3310)">
<path d="M15.4327 14.1826C14.2308 14.1826 13.2692 15.1442 13.2692 16.3461C13.2692 17.548 14.2308 18.5095 15.4327 18.5095C16.6346 18.5095 17.5961 17.548 17.5961 16.3461C17.5961 15.1442 16.5865 14.1826 15.4327 14.1826Z" fill="#2A677A"/>
</g>
<path d="M35.7141 19.294C34.3261 19.294 33.1154 18.9791 32.0821 18.3494C31.2 17.7908 30.5612 17.0689 30.1655 16.1838C30.0608 15.9495 30.1776 15.6816 30.4108 15.5744L32.1019 14.7973C32.3483 14.6841 32.6372 14.79 32.7821 15.0192C33.0732 15.48 33.4336 15.8554 33.8634 16.1455C34.4186 16.5203 35.0355 16.7077 35.7141 16.7077C36.2076 16.7077 36.5855 16.6103 36.8477 16.4154C37.1098 16.2205 37.2409 15.9506 37.2409 15.6058C37.2409 15.4259 37.1947 15.2759 37.1021 15.156C37.0096 15.0211 36.8708 14.9011 36.6857 14.7962C36.5006 14.6912 36.2693 14.6013 35.9917 14.5263L33.8402 13.9416C32.8069 13.6567 32.0127 13.1995 31.4574 12.5698C30.9022 11.9251 30.6246 11.168 30.6246 10.2984C30.6246 9.53378 30.8251 8.86661 31.2261 8.29689C31.6271 7.72717 32.19 7.28489 32.9149 6.97005C33.6397 6.64021 34.4726 6.47529 35.4134 6.47529C36.6472 6.47529 37.7267 6.76015 38.6521 7.32987C39.4562 7.804 40.0575 8.44789 40.456 9.26155C40.5718 9.49809 40.4553 9.77607 40.2156 9.88523L38.5663 10.6363C38.3008 10.7572 37.9928 10.6212 37.832 10.3778C37.6406 10.0882 37.3819 9.8443 37.0559 9.64622C36.5778 9.33138 36.0303 9.17396 35.4134 9.17396C34.9661 9.17396 34.6114 9.26391 34.3492 9.44382C34.1024 9.62373 33.979 9.87111 33.979 10.186C33.979 10.3509 34.0253 10.5008 34.1178 10.6357C34.2104 10.7707 34.3569 10.8906 34.5574 10.9956C34.7733 11.1005 35.0355 11.198 35.3439 11.2879L37.3566 11.8726C38.4053 12.1725 39.2073 12.6298 39.7625 13.2444C40.3178 13.8442 40.5954 14.5863 40.5954 15.4708C40.5954 16.2355 40.3872 16.9026 39.9707 17.4724C39.5698 18.0421 39.0068 18.4919 38.282 18.8217C37.5571 19.1365 36.7011 19.294 35.7141 19.294Z" fill="#01232D"/>
<path d="M46.128 19.0241C45.9162 19.0241 45.7274 18.8907 45.6567 18.691L41.6617 7.41209C41.5464 7.08669 41.7878 6.74516 42.133 6.74516H44.6547C44.868 6.74516 45.0579 6.88053 45.1274 7.08224L47.8613 15.015C47.9602 15.302 47.7437 15.6 47.4401 15.5945C47.1367 15.5891 46.931 15.2837 47.04 15.0004L50.0931 7.0656C50.1674 6.87254 50.3529 6.74516 50.5597 6.74516H52.8796C53.0869 6.74516 53.2727 6.87305 53.3467 7.06667L56.3787 15.0006C56.487 15.2841 56.2811 15.5891 55.9777 15.5945C55.6738 15.6 55.4569 15.3016 55.556 15.0143L58.2896 7.08224C58.3592 6.88053 58.549 6.74516 58.7624 6.74516H61.3059C61.6515 6.74516 61.8929 7.08734 61.7769 7.41288L57.7607 18.6918C57.6898 18.891 57.5012 19.0241 57.2897 19.0241H54.9829C54.7738 19.0241 54.5867 18.8939 54.5141 18.6978L51.3274 10.0971C51.2262 9.82407 51.4282 9.53378 51.7194 9.53378C52.011 9.53378 52.2131 9.82477 52.1112 10.098L48.9034 18.6988C48.8304 18.8944 48.6437 19.0241 48.4349 19.0241H46.128Z" fill="#01232D"/>
<path d="M64.0441 19.0241C63.7679 19.0241 63.5441 18.8002 63.5441 18.5241V7.24516C63.5441 6.96901 63.7679 6.74516 64.0441 6.74516H66.5142C66.7903 6.74516 67.0142 6.96901 67.0142 7.24516V18.5241C67.0142 18.8002 66.7903 19.0241 66.5142 19.0241H64.0441Z" fill="#01232D"/>
<path d="M75.6377 19.159C74.1109 19.159 72.9233 18.7617 72.0751 17.9671C71.2423 17.1575 70.8259 16.0331 70.8259 14.5938V10.1687C70.8259 9.89257 70.602 9.66871 70.3259 9.66871H69.1975C68.9214 9.66871 68.6975 9.44485 68.6975 9.16871V6.86082C68.6975 6.79694 68.7493 6.74516 68.8132 6.74516C69.461 6.74516 69.9545 6.58773 70.2938 6.27289C70.6485 5.95805 70.8259 5.48578 70.8259 4.85609V4.45653C70.8259 4.18039 71.0497 3.95653 71.3259 3.95653H73.796C74.0721 3.95653 74.296 4.18039 74.296 4.45653V6.24516C74.296 6.5213 74.5198 6.74516 74.796 6.74516H76.7571C77.0333 6.74516 77.2571 6.96901 77.2571 7.24516V9.16871C77.2571 9.44485 77.0333 9.66871 76.7571 9.66871H74.796C74.5198 9.66871 74.296 9.89257 74.296 10.1687V14.3689C74.296 14.7887 74.3731 15.141 74.5273 15.4259C74.6815 15.6957 74.9206 15.8981 75.2445 16.0331C75.5683 16.168 75.9693 16.2355 76.4474 16.2355C76.5554 16.2355 76.6788 16.228 76.8176 16.213C77.053 16.1876 77.2571 16.3731 77.2571 16.6098V18.5847C77.2571 18.836 77.0706 19.0485 76.8209 19.0765C76.7095 19.089 76.5927 19.1015 76.4706 19.114C76.1775 19.144 75.8999 19.159 75.6377 19.159Z" fill="#01232D"/>
<path d="M85.4905 19.294C84.2258 19.294 83.0845 19.0166 82.0666 18.4619C81.0642 17.8921 80.2622 17.12 79.6607 16.1455C79.0746 15.171 78.7816 14.0765 78.7816 12.8621C78.7816 11.6477 79.0746 10.5608 79.6607 9.60124C80.2468 8.62673 81.0487 7.8621 82.0666 7.30738C83.0845 6.75265 84.2258 6.47529 85.4905 6.47529C86.4312 6.47529 87.3026 6.63271 88.1046 6.94756C88.9066 7.2624 89.5929 7.70468 90.1635 8.2744C90.6242 8.72224 90.9793 9.23847 91.2289 9.8231C91.3309 10.062 91.2054 10.3306 90.9658 10.4309L88.8713 11.308C88.606 11.4191 88.3057 11.2808 88.1661 11.0292C87.9483 10.6368 87.6502 10.3107 87.2718 10.051C86.7628 9.6912 86.1691 9.51129 85.4905 9.51129C84.889 9.51129 84.3492 9.65372 83.8711 9.93858C83.4084 10.2234 83.0383 10.6207 82.7607 11.1305C82.4985 11.6402 82.3674 12.225 82.3674 12.8846C82.3674 13.5443 82.4985 14.129 82.7607 14.6388C83.0383 15.1485 83.4084 15.5458 83.8711 15.8307C84.3492 16.1155 84.889 16.258 85.4905 16.258C86.1845 16.258 86.786 16.078 87.2949 15.7182C87.6611 15.4593 87.9514 15.1345 88.1659 14.7437C88.3049 14.4904 88.6073 14.3524 88.8731 14.4657L90.9701 15.3595C91.2078 15.4608 91.3319 15.7279 91.2288 15.9649C90.9895 16.5151 90.6421 17.0176 90.1867 17.4724C89.616 18.0421 88.9297 18.4919 88.1277 18.8217C87.3258 19.1365 86.4467 19.294 85.4905 19.294Z" fill="#01232D"/>
<path d="M93.933 19.0241C93.6569 19.0241 93.433 18.8002 93.433 18.5241V2.5C93.433 2.22386 93.6569 2 93.933 2H96.4031C96.6793 2 96.9031 2.22386 96.9031 2.5V8.60323C96.9031 8.78888 96.6679 8.86907 96.5545 8.72209C96.5125 8.66763 96.502 8.5948 96.5293 8.53167C96.8245 7.84915 97.2806 7.3436 97.8979 7.01502C98.561 6.6552 99.3322 6.47529 100.211 6.47529C101.167 6.47529 102 6.67019 102.71 7.06C103.435 7.44981 103.998 7.99704 104.399 8.70169C104.8 9.39135 105 10.2009 105 11.1305V18.5241C105 18.8002 104.776 19.0241 104.5 19.0241H102.03C101.754 19.0241 101.53 18.8002 101.53 18.5241V11.8501C101.53 11.3704 101.43 10.9581 101.229 10.6132C101.044 10.2684 100.774 9.99855 100.419 9.80365C100.08 9.60874 99.6792 9.51129 99.2165 9.51129C98.7692 9.51129 98.3683 9.60874 98.0135 9.80365C97.6588 9.99855 97.3812 10.2684 97.1807 10.6132C96.9956 10.9581 96.9031 11.3704 96.9031 11.8501V18.5241C96.9031 18.8002 96.6793 19.0241 96.4031 19.0241H93.933Z" fill="#01232D"/>
<path d="M65.26 21.0889H65.1478C64.0678 21.0889 63.1923 21.9644 63.1923 23.0444C63.1923 24.1244 64.0678 25 65.1478 25H65.26C66.34 25 67.2156 24.1244 67.2156 23.0444C67.2156 21.9644 66.34 21.0889 65.26 21.0889Z" fill="#F6B100"/>
<defs>
<filter id="filter0_d_5676_3310" x="8.26923" y="9.18262" width="12.3269" height="12.3271" filterUnits="userSpaceOnUse" color-interpolation-filters="sRGB">
<feFlood flood-opacity="0" result="BackgroundImageFix"/>
<feColorMatrix in="SourceAlpha" type="matrix" values="0 0 0 0 0 0 0 0 0 0 0 0 0 0 0 0 0 0 127 0" result="hardAlpha"/>
<feOffset dx="-1" dy="-1"/>
<feGaussianBlur stdDeviation="2"/>
<feComposite in2="hardAlpha" operator="out"/>
<feColorMatrix type="matrix" values="0 0 0 0 0 0 0 0 0 0 0 0 0 0 0 0 0 0 0.15 0"/>
<feBlend mode="normal" in2="BackgroundImageFix" result="effect1_dropShadow_5676_3310"/>
<feBlend mode="normal" in="SourceGraphic" in2="effect1_dropShadow_5676_3310" result="shape"/>
</filter>
<linearGradient id="paint0_linear_5676_3310" x1="3.46692" y1="7.0266" x2="11.5396" y2="21.009" gradientUnits="userSpaceOnUse">
<stop stop-color="#E09602"/>
<stop offset="1" stop-color="#F4AD01"/>
</linearGradient>
<linearGradient id="paint1_linear_5676_3310" x1="21.5494" y1="18.2453" x2="13.4779" y2="4.2651" gradientUnits="userSpaceOnUse">
<stop stop-color="#1C4856"/>
<stop offset="1" stop-color="#327083"/>
</linearGradient>
</defs>
</svg>
