<svg width="13" height="18" viewBox="0 0 13 18" fill="none" xmlns="http://www.w3.org/2000/svg">
<path d="M12.5593 0H0.440678C0.197247 0 0 0.197336 0 0.440678V16.987C0 17.2303 0.197247 17.4277 0.440678 17.4277H12.5593C12.8028 17.4277 13 17.2303 13 16.987V0.440678C13 0.197336 12.8027 0 12.5593 0ZM6.28266 1.8824H10.381C10.6244 1.8824 10.8216 2.07974 10.8216 2.32308C10.8216 2.56642 10.6244 2.76376 10.381 2.76376H6.28266C6.03923 2.76376 5.84198 2.56642 5.84198 2.32308C5.84198 2.07974 6.03923 1.8824 6.28266 1.8824ZM6.28266 4.15189H10.381C10.6244 4.15189 10.8216 4.34923 10.8216 4.59257C10.8216 4.83591 10.6244 5.03325 10.381 5.03325H6.28266C6.03923 5.03325 5.84198 4.83591 5.84198 4.59257C5.84198 4.34923 6.03923 4.15189 6.28266 4.15189ZM2.91958 3.48576C2.7538 3.36396 2.64557 3.1683 2.64557 2.94734V2.55073C2.64557 2.18224 2.9454 1.8824 3.31399 1.8824C3.68257 1.8824 3.98232 2.18224 3.98232 2.55073V2.94734C3.98232 3.1683 3.87409 3.36405 3.70831 3.48576C4.22813 3.60695 4.61698 4.0731 4.61698 4.62932C4.61698 4.87266 4.41974 5.07 4.1763 5.07H2.45158C2.20815 5.07 2.0109 4.87266 2.0109 4.62932C2.0109 4.0731 2.39976 3.60695 2.91958 3.48576ZM2.44268 6.42138H10.3809C10.6243 6.42138 10.8216 6.61872 10.8216 6.86206C10.8216 7.1054 10.6243 7.30274 10.3809 7.30274H2.44268C2.19925 7.30274 2.002 7.1054 2.002 6.86206C2.002 6.61872 2.19934 6.42138 2.44268 6.42138ZM2.44268 8.69088H10.3809C10.6243 8.69088 10.8216 8.88821 10.8216 9.13155C10.8216 9.3749 10.6243 9.57223 10.3809 9.57223H2.44268C2.19925 9.57223 2.002 9.3749 2.002 9.13155C2.002 8.88821 2.19934 8.69088 2.44268 8.69088ZM2.44268 10.9604H10.3809C10.6243 10.9604 10.8216 11.1577 10.8216 11.401C10.8216 11.6444 10.6243 11.8417 10.3809 11.8417H2.44268C2.19925 11.8417 2.002 11.6444 2.002 11.401C2.002 11.1577 2.19934 10.9604 2.44268 10.9604ZM4.6681 15.0052H2.44268C2.19925 15.0052 2.002 14.8078 2.002 14.5645C2.002 14.3212 2.19925 14.1238 2.44268 14.1238H4.6681C4.91153 14.1238 5.10878 14.3212 5.10878 14.5645C5.10878 14.8079 4.91153 15.0052 4.6681 15.0052ZM10.5572 15.0052H8.33181C8.08838 15.0052 7.89113 14.8078 7.89113 14.5645C7.89113 14.3212 8.08838 14.1238 8.33181 14.1238H10.5572C10.8007 14.1238 10.9979 14.3212 10.9979 14.5645C10.9979 14.8079 10.8007 15.0052 10.5572 15.0052Z" fill="white"/>
</svg>
