<svg width="83" height="83" viewBox="0 0 83 83" fill="none" xmlns="http://www.w3.org/2000/svg">
<path fill-rule="evenodd" clip-rule="evenodd" d="M17.134 13.8489C23.6294 8.12078 32.1588 4.64552 41.5 4.64552C61.8542 4.64552 78.3545 21.1458 78.3545 41.5C78.3545 50.8412 74.8792 59.3706 69.1511 65.866L17.134 13.8489ZM13.8491 17.1338C8.12086 23.6292 4.64552 32.1587 4.64552 41.5C4.64552 61.8542 21.1458 78.3545 41.5 78.3545C50.8413 78.3545 59.3708 74.8791 65.8662 69.1509L13.8491 17.1338ZM41.5 0C18.5802 0 0 18.5802 0 41.5C0 64.4198 18.5802 83 41.5 83C64.4198 83 83 64.4198 83 41.5C83 18.5802 64.4198 0 41.5 0Z" fill="#D9D9D9"/>
<path d="M63.3677 23.4746H18.7937C17.578 23.4746 16.7676 24.2825 16.7676 25.4944V49.7313C16.7676 50.9431 17.578 51.751 18.7937 51.751H63.3677C64.5834 51.751 65.3938 50.9431 65.3938 49.7313V25.4944C65.3938 24.2825 64.5834 23.4746 63.3677 23.4746ZM21.8328 41.6523C21.4276 41.6523 21.0224 41.6523 20.8198 41.8543V33.3713C21.0224 33.5733 21.4276 33.5733 21.8328 33.5733C24.6693 33.5733 26.898 31.3516 26.898 28.524C26.898 28.12 26.898 27.7161 26.6954 27.5141H55.2634C55.2634 27.7161 55.2634 28.12 55.2634 28.524C55.2634 31.3516 57.4921 33.5733 60.3286 33.5733C60.7338 33.5733 61.139 33.5733 61.3417 33.3713V41.6523C61.139 41.6523 60.7338 41.4503 60.3286 41.4503C57.4921 41.4503 55.2634 43.672 55.2634 46.4997C55.2634 46.9036 55.2634 47.3076 55.466 47.5096H26.6954C26.898 47.5096 26.898 47.1056 26.898 46.7017C26.898 43.874 24.6693 41.6523 21.8328 41.6523ZM35.0024 37.6128C35.0024 34.1792 37.6363 31.5536 41.0807 31.5536C44.5251 31.5536 47.159 34.1792 47.159 37.6128C47.159 41.0464 44.5251 43.672 41.0807 43.672C37.6363 43.672 35.0024 41.0464 35.0024 37.6128ZM20.8198 57.8102V55.7905H61.3417V57.8102C61.3417 59.0221 60.5312 59.83 59.3156 59.83H22.8459C21.6302 59.83 20.8198 59.0221 20.8198 57.8102ZM25.6824 65.8892V63.8695H56.0738V65.8892C56.0738 67.1011 55.2634 67.909 54.0477 67.909H27.7085C26.4928 67.909 25.6824 67.1011 25.6824 65.8892Z" fill="#D9D9D9"/>
</svg>
