<svg width="9" height="26" viewBox="0 0 9 26" fill="none" xmlns="http://www.w3.org/2000/svg">
<path d="M6.41885 5.01409L4.72095 15.2679L3.02304 5.01409C2.98231 4.76615 2.9957 4.51227 3.06228 4.27006C3.12886 4.02785 3.24702 3.80312 3.40858 3.61148C3.57013 3.41984 3.7712 3.26588 3.99783 3.16029C4.22445 3.0547 4.4712 3 4.72095 3C4.97069 3 5.21744 3.0547 5.44406 3.16029C5.67069 3.26588 5.87176 3.41984 6.03331 3.61148C6.19487 3.80312 6.31304 4.02785 6.37961 4.27006C6.44619 4.51227 6.45958 4.76615 6.41885 5.01409Z" stroke="#DC1E20" stroke-width="4.06522" stroke-linecap="round" stroke-linejoin="round"/>
<path d="M4.72226 24.1294C5.47065 24.1294 6.07734 23.519 6.07734 22.7659C6.07734 22.0128 5.47065 21.4023 4.72226 21.4023C3.97388 21.4023 3.36719 22.0128 3.36719 22.7659C3.36719 23.519 3.97388 24.1294 4.72226 24.1294Z" stroke="#DC1E20" stroke-width="2.71015"/>
</svg>
