<svg width="17" height="14" viewBox="0 0 17 14" fill="none" xmlns="http://www.w3.org/2000/svg">
<path d="M17 4.25V12.75C17 12.9754 16.9104 13.1916 16.751 13.351C16.5916 13.5104 16.3754 13.6 16.15 13.6H4.25C4.02457 13.6 3.80837 13.5104 3.64896 13.351C3.48955 13.1916 3.4 12.9754 3.4 12.75V11.9H14.875C14.9877 11.9 15.0958 11.8552 15.1755 11.7755C15.2552 11.6958 15.3 11.5877 15.3 11.475V3.4H16.15C16.3754 3.4 16.5916 3.48955 16.751 3.64896C16.9104 3.80837 17 4.02457 17 4.25ZM0 9.35V0.85C0 0.624566 0.0895533 0.408365 0.248959 0.248959C0.408365 0.0895535 0.624566 0 0.85 0H12.75C12.9754 0 13.1916 0.0895535 13.351 0.248959C13.5104 0.408365 13.6 0.624566 13.6 0.85V9.35C13.6 9.57543 13.5104 9.79163 13.351 9.95104C13.1916 10.1104 12.9754 10.2 12.75 10.2H0.85C0.624566 10.2 0.408365 10.1104 0.248959 9.95104C0.0895533 9.79163 0 9.57543 0 9.35ZM9.35 5.1C9.35 5.32543 9.43955 5.54163 9.59896 5.70104C9.75837 5.86045 9.97457 5.95 10.2 5.95H11.05C11.2754 5.95 11.4916 5.86045 11.651 5.70104C11.8104 5.54163 11.9 5.32543 11.9 5.1C11.9 4.87457 11.8104 4.65837 11.651 4.49896C11.4916 4.33955 11.2754 4.25 11.05 4.25H10.2C9.97457 4.25 9.75837 4.33955 9.59896 4.49896C9.43955 4.65837 9.35 4.87457 9.35 5.1ZM5.1 5.1C5.1 5.43623 5.1997 5.76491 5.3865 6.04447C5.5733 6.32403 5.8388 6.54193 6.14944 6.6706C6.46007 6.79926 6.80189 6.83293 7.13165 6.76733C7.46142 6.70174 7.76433 6.53983 8.00208 6.30208C8.23983 6.06433 8.40174 5.76142 8.46734 5.43165C8.53293 5.10189 8.49926 4.76007 8.3706 4.44944C8.24193 4.1388 8.02403 3.8733 7.74447 3.6865C7.46491 3.4997 7.13623 3.4 6.8 3.4C6.34913 3.4 5.91673 3.57911 5.59792 3.89792C5.27911 4.21673 5.1 4.64913 5.1 5.1ZM1.7 5.1C1.7 5.32543 1.78955 5.54163 1.94896 5.70104C2.10837 5.86045 2.32457 5.95 2.55 5.95H3.4C3.62543 5.95 3.84163 5.86045 4.00104 5.70104C4.16045 5.54163 4.25 5.32543 4.25 5.1C4.25 4.87457 4.16045 4.65837 4.00104 4.49896C3.84163 4.33955 3.62543 4.25 3.4 4.25H2.55C2.32457 4.25 2.10837 4.33955 1.94896 4.49896C1.78955 4.65837 1.7 4.87457 1.7 5.1Z" fill="white"/>
</svg>
