<svg width="17" height="15" viewBox="0 0 17 15" fill="none" xmlns="http://www.w3.org/2000/svg">
<path d="M15.1796 4.86232L16.6196 3.42235C16.7396 3.30235 16.7996 3.06236 16.7996 2.88236C16.7396 2.70237 16.6196 2.52237 16.4396 2.46237L10.4398 0.0624296C10.1998 -0.0575676 9.95976 0.00243117 9.77977 0.182427L8.3998 1.56239L7.01983 0.182427C6.83984 0.00243117 6.59984 -0.0575676 6.35985 0.0624296L0.359991 2.46237C0.179996 2.52237 0.0599986 2.70237 0 2.88236C0 3.06236 0.0599985 3.30235 0.179996 3.42235L1.61996 4.86232L0.119997 6.84227C2.68215e-08 6.96227 0 7.20226 0 7.38226C0.0599986 7.56225 0.179996 7.68225 0.359991 7.80225L6.35985 10.2022C6.41985 10.2022 6.47985 10.2622 6.59984 10.2622C6.77984 10.2622 6.95984 10.2022 7.07983 10.0222L8.3998 8.28223L9.71977 10.0222C9.83977 10.2022 10.0198 10.2622 10.1998 10.2622C10.2598 10.2622 10.3798 10.2622 10.4398 10.2022L16.4396 7.80225C16.6196 7.74225 16.7396 7.56225 16.7996 7.38226C16.8596 7.20226 16.7996 7.02226 16.6796 6.84227L15.1796 4.86232ZM8.3998 6.54228L4.0199 4.80232L8.3998 3.06236L12.7797 4.80232L8.3998 6.54228Z" fill="white"/>
<path d="M10.2001 11.3976C9.66011 11.3976 9.12012 11.1576 8.76013 10.6776L8.40014 10.1976L8.04014 10.6776C7.56016 11.3376 6.66018 11.5776 5.94019 11.2776L1.80029 9.59766V11.9976C1.80029 12.2376 1.92029 12.4776 2.16028 12.5376L8.16014 14.9375C8.22014 14.9375 8.28014 14.9975 8.40014 14.9975C8.52013 14.9975 8.58013 14.9975 8.64013 14.9375L14.64 12.5376C14.88 12.4176 15 12.2376 15 11.9976V9.59766L10.8601 11.2776C10.6801 11.3376 10.4401 11.3976 10.2001 11.3976Z" fill="white"/>
</svg>
