<svg width="15" height="16" viewBox="0 0 15 16" fill="none" xmlns="http://www.w3.org/2000/svg">
<path fill-rule="evenodd" clip-rule="evenodd" d="M13.4193 7.64297C13.4193 7.31028 13.3887 6.97039 13.3266 6.6305L15 5.18013L13.4121 2.46643L11.3008 3.17049C10.7676 2.72809 10.1597 2.37921 9.51864 2.14812L9.08344 0H5.91655L5.48136 2.14723C4.83306 2.37921 4.23601 2.7227 3.6983 3.16959L1.58795 2.46643L0 5.18013L1.67336 6.6305C1.61131 6.97039 1.58074 7.31028 1.58074 7.64297C1.58074 7.97566 1.61131 8.31555 1.67336 8.65544L0 10.1058L1.58794 12.8195L3.6992 12.1154C4.2324 12.5578 4.84024 12.9067 5.48136 13.1378L5.91655 15.2859H9.08344L9.51863 13.1387C10.166 12.9067 10.764 12.5632 11.3017 12.1163L13.4121 12.8204L15 10.1067L13.3266 8.65634C13.3887 8.31555 13.4192 7.97566 13.4192 7.64297M7.49999 10.7901C5.76459 10.7901 4.35288 9.37837 4.35288 7.64297C4.35288 5.90757 5.76459 4.49586 7.49999 4.49586C9.2354 4.49586 10.6471 5.90757 10.6471 7.64297C10.6471 9.37837 9.2354 10.7901 7.49999 10.7901Z" fill="white"/>
</svg>
