<svg width="14" height="18" viewBox="0 0 14 18" fill="none" xmlns="http://www.w3.org/2000/svg">
<path fill-rule="evenodd" clip-rule="evenodd" d="M0 2.35938V14.6094C0 16.0592 1.17526 17.2344 2.625 17.2344H11.375C12.8248 17.2344 14 16.0592 14 14.6094V5.85938C14 4.40963 12.8248 3.23438 11.375 3.23438H0.875C0.391755 3.23438 0 2.84262 0 2.35938ZM2.84375 8.48438C2.84375 8.12195 3.13757 7.82812 3.5 7.82812H10.5C10.8624 7.82812 11.1562 8.12195 11.1562 8.48438C11.1562 8.8468 10.8624 9.14062 10.5 9.14062H3.5C3.13757 9.14062 2.84375 8.8468 2.84375 8.48438ZM2.84375 11.5469C2.84375 11.1845 3.13757 10.8906 3.5 10.8906H8.3125C8.67492 10.8906 8.96875 11.1845 8.96875 11.5469C8.96875 11.9093 8.67492 12.2031 8.3125 12.2031H3.5C3.13757 12.2031 2.84375 11.9093 2.84375 11.5469Z" fill="white"/>
<path d="M0.35791 1.55876C0.66283 1.6955 0.875219 2.00172 0.875219 2.35754H11.3752C11.6774 2.35754 11.9706 2.39583 12.2502 2.46781V1.75033C12.2502 0.685366 11.307 -0.132688 10.2528 0.0179165L0.80486 1.36761C0.636449 1.39168 0.48384 1.45957 0.35791 1.55876Z" fill="white"/>
</svg>
