<svg width="18" height="16" viewBox="0 0 18 16" fill="none" xmlns="http://www.w3.org/2000/svg">
<path d="M13.3412 7.859C13.8545 7.859 14.2605 8.4158 14.71 8.6072C15.1595 8.7986 15.87 8.6942 16.2093 9.0567C16.5486 9.4192 16.4674 10.0862 16.6617 10.556C16.856 11.0258 17.4099 11.426 17.4099 11.9277C17.4099 12.4294 16.8531 12.847 16.6617 13.2994C16.4703 13.7518 16.5747 14.4594 16.2093 14.7958C15.8439 15.1322 15.1827 15.0539 14.71 15.2482C14.2373 15.4425 13.84 15.9964 13.3412 15.9964C12.8424 15.9964 12.4103 15.4396 11.9608 15.2482C11.5113 15.0568 10.8008 15.1612 10.4615 14.7958C10.1222 14.4304 10.2063 13.7692 10.012 13.2994C9.81771 12.8296 9.26381 12.4294 9.26381 11.9277C9.26381 11.426 9.82061 11.0055 10.012 10.556C10.2034 10.1065 10.099 9.396 10.4615 9.0567C10.824 8.7174 11.491 8.8015 11.9608 8.6072C12.4306 8.4129 12.8192 7.859 13.3412 7.859ZM8.95931 13.4212C9.01202 13.5022 9.05763 13.5876 9.09561 13.6764C9.27541 14.1143 9.26671 14.7001 9.41751 15.1554H0.505806C0.362137 15.145 0.228425 15.0781 0.133879 14.9695C0.0393322 14.8608 -0.00836513 14.7191 0.0012058 14.5754V13.9954C-0.00836513 13.8517 0.0393322 13.71 0.133879 13.6013C0.228425 13.4927 0.362137 13.4258 0.505806 13.4154H8.95931V13.4212ZM14.8492 10.6082C14.8305 10.5885 14.808 10.5729 14.7831 10.5622C14.7582 10.5515 14.7313 10.546 14.7042 10.546C14.6771 10.546 14.6502 10.5515 14.6253 10.5622C14.6004 10.5729 14.5779 10.5885 14.5592 10.6082L12.9729 12.4178L12.2537 11.687C12.235 11.6673 12.2125 11.6517 12.1876 11.641C12.1627 11.6303 12.1358 11.6248 12.1087 11.6248C12.0816 11.6248 12.0547 11.6303 12.0298 11.641C12.0049 11.6517 11.9824 11.6673 11.9637 11.687L11.6737 11.977C11.6515 11.9941 11.6334 12.016 11.621 12.0412C11.6086 12.0663 11.6022 12.094 11.6022 12.122C11.6022 12.15 11.6086 12.1777 11.621 12.2028C11.6334 12.228 11.6515 12.2499 11.6737 12.267L12.6887 13.2791C12.726 13.319 12.7708 13.3511 12.8206 13.3735C12.8704 13.3959 12.9241 13.4082 12.9787 13.4096C13.0336 13.4103 13.088 13.399 13.1381 13.3764C13.1882 13.3539 13.2328 13.3207 13.2687 13.2791L15.1537 11.1882C15.1877 11.1475 15.2063 11.0962 15.2063 11.0432C15.2063 10.9902 15.1877 10.9389 15.1537 10.8982L14.8492 10.6082ZM1.68611 3.0305C1.81842 3.03653 1.94305 3.09434 2.03312 3.19146C2.12318 3.28857 2.17145 3.41721 2.16751 3.5496V11.6029C2.17223 11.7358 2.12431 11.8652 2.03416 11.9629C1.94402 12.0607 1.81894 12.1189 1.68611 12.1249H0.482606C0.349775 12.1189 0.224692 12.0607 0.134548 11.9629C0.0444036 11.8652 -0.00351608 11.7358 0.0012058 11.6029V3.5496C-0.0027376 3.41721 0.0455308 3.28857 0.135594 3.19146C0.225657 3.09434 0.350293 3.03653 0.482606 3.0305H1.68611ZM8.57361 3.0305C8.71128 3.0305 8.84332 3.08519 8.94067 3.18254C9.03802 3.27989 9.09271 3.41193 9.09271 3.5496V10.1819C8.84331 10.7619 8.13571 11.2723 8.13571 11.9219C8.13609 11.9883 8.14387 12.0544 8.15891 12.1191H6.99891C6.86097 12.1183 6.72894 12.063 6.63167 11.9652C6.5344 11.8674 6.4798 11.735 6.47981 11.5971V3.5496C6.47981 3.41193 6.5345 3.27989 6.63185 3.18254C6.7292 3.08519 6.86123 3.0305 6.99891 3.0305H8.55621H8.57361ZM5.05301 3.0305C5.19852 3.02336 5.34099 3.07384 5.44956 3.171C5.55812 3.26816 5.62403 3.40418 5.63301 3.5496V11.6029C5.62476 11.7488 5.55917 11.8856 5.45053 11.9834C5.34188 12.0811 5.199 12.132 5.05301 12.1249H4.47301C4.40062 12.1288 4.32818 12.1184 4.25983 12.0943C4.19148 12.0701 4.12856 12.0327 4.07468 11.9843C4.02081 11.9358 3.97702 11.8771 3.94585 11.8117C3.91467 11.7462 3.89672 11.6753 3.89301 11.6029V3.5496C3.90124 3.40391 3.96693 3.26743 4.07566 3.17012C4.1844 3.0728 4.3273 3.02259 4.47301 3.0305H5.05301ZM11.549 3.0305C11.6945 3.02336 11.837 3.07384 11.9456 3.171C12.0541 3.26816 12.12 3.40418 12.129 3.5496V7.3486C11.9624 7.48369 11.7804 7.59856 11.5867 7.6908C11.1978 7.80939 10.7988 7.8919 10.3948 7.9373V3.5496C10.4038 3.40418 10.4697 3.26816 10.5783 3.171C10.6868 3.07384 10.8293 3.02336 10.9748 3.0305H11.5548H11.549ZM14.6752 3.0305C14.8075 3.03653 14.9322 3.09434 15.0222 3.19146C15.1123 3.28857 15.1606 3.41721 15.1566 3.5496V7.7082L15.0812 7.6792C14.5012 7.4356 13.9879 6.7251 13.3412 6.7251C13.2244 6.72479 13.1085 6.74542 12.999 6.786V3.5496C12.9951 3.41721 13.0433 3.28857 13.1334 3.19146C13.2235 3.09434 13.3481 3.03653 13.4804 3.0305H14.6752ZM14.652 0C14.7954 0.0111443 14.9286 0.0781969 15.023 0.186698C15.1174 0.295199 15.1654 0.436454 15.1566 0.58V1.16C15.1662 1.30373 15.1185 1.4454 15.0239 1.55408C14.9294 1.66275 14.7957 1.72959 14.652 1.74H0.505806C0.362137 1.72959 0.228425 1.66275 0.133879 1.55408C0.0393322 1.4454 -0.00836513 1.30373 0.0012058 1.16V0.58C-0.00836513 0.436273 0.0393322 0.294599 0.133879 0.185925C0.228425 0.0772503 0.362137 0.0104085 0.505806 0H14.652Z" fill="white"/>
</svg>
