<svg width="32" height="29" viewBox="0 0 32 29" fill="none" xmlns="http://www.w3.org/2000/svg">
<path d="M16 8.72583C18.4101 8.72583 20.3629 6.77305 20.3629 4.36291C20.3629 1.95277 18.4101 0 16 0C13.5899 0 11.6371 1.95277 11.6371 4.36291C11.6371 6.77305 13.5899 8.72583 16 8.72583ZM16 2.90728C16.8034 2.90728 17.4556 3.55953 17.4556 4.36291C17.4556 5.16629 16.8034 5.81854 16 5.81854C15.1966 5.81854 14.5444 5.16629 14.5444 4.36291C14.5444 3.55953 15.1966 2.90728 16 2.90728ZM12.2376 10.0303L10.9411 7.4253C7.0435 9.36217 4.62143 13.2677 4.62143 17.6187H7.52871C7.53269 14.3773 9.33433 11.47 12.2376 10.0303ZM10.7064 24.2287L8.88491 26.4996C10.8934 28.1104 13.4188 28.9973 15.996 28.9973C18.5732 28.9973 21.0987 28.1104 23.1071 26.4996L21.2856 24.2287C18.263 26.6587 13.737 26.6587 10.7064 24.2287ZM24.4673 17.6187H27.3746C27.3746 13.2677 24.9525 9.36217 21.0549 7.4253L19.7624 10.0303C22.6657 11.47 24.4673 14.3773 24.4673 17.6187ZM4.36291 18.9073C1.95277 18.9073 0 20.8601 0 23.2702C0 25.6803 1.95277 27.6331 4.36291 27.6331C6.77305 27.6331 8.72583 25.6803 8.72583 23.2702C8.72583 20.8601 6.77305 18.9073 4.36291 18.9073ZM4.36291 24.7258C3.55953 24.7258 2.90728 24.0736 2.90728 23.2702C2.90728 22.4668 3.55953 21.8146 4.36291 21.8146C5.16629 21.8146 5.81854 22.4668 5.81854 23.2702C5.81854 24.0736 5.16629 24.7258 4.36291 24.7258ZM27.6371 18.9073C25.2269 18.9073 23.2742 20.8601 23.2742 23.2702C23.2742 25.6803 25.2269 27.6331 27.6371 27.6331C30.0472 27.6331 32 25.6803 32 23.2702C32 20.8601 30.0472 18.9073 27.6371 18.9073ZM27.6371 24.7258C26.8337 24.7258 26.1815 24.0736 26.1815 23.2702C26.1815 22.4668 26.8337 21.8146 27.6371 21.8146C28.4405 21.8146 29.0927 22.4668 29.0927 23.2702C29.0887 24.0736 28.4365 24.7258 27.6371 24.7258Z" fill="#012E3C"/>
</svg>
