<svg width="37" height="37" viewBox="0 0 37 37" fill="none" xmlns="http://www.w3.org/2000/svg">
<path d="M34.3945 9.17303C34.3945 6.20363 30.4181 3.96484 25.1445 3.96484C19.8709 3.96484 15.8945 6.20363 15.8945 9.17303C15.8945 9.1994 15.9003 9.22434 15.901 9.25035H15.8945V13.2145H18.5373V12.8871C20.1911 13.8197 22.505 14.3805 25.1445 14.3805C27.5795 14.3805 29.7309 13.8988 31.3489 13.0927C31.5997 13.3521 31.7518 13.6101 31.7518 13.8363C31.7518 14.8571 29.1166 16.401 25.1445 16.401H22.5025V19.0438H25.1445C27.5799 19.0438 29.732 18.5621 31.35 17.7557C31.6011 18.0147 31.7514 18.2727 31.7514 18.5C31.7514 19.5215 29.1163 21.0654 25.1442 21.0654L24.2087 21.0698C23.6338 21.0748 23.077 21.0802 22.5343 21.0658L22.4696 23.7075C22.7601 23.7147 23.0542 23.7172 23.3542 23.7172C23.6407 23.7172 23.9323 23.7154 24.2286 23.7129L25.1442 23.7085C27.581 23.7085 29.7338 23.2262 31.3521 22.419C31.604 22.6802 31.7511 22.9396 31.7511 23.164C31.7511 24.1855 29.1159 25.7294 25.1438 25.7294H22.5018V28.3722H25.1438C27.5806 28.3722 29.733 27.8898 31.3518 27.0826C31.604 27.3435 31.7511 27.6029 31.7511 27.8277C31.7511 28.8492 29.1159 30.3931 25.1438 30.3931H22.5018V33.0359H25.1438C30.4174 33.0359 34.3938 30.7971 34.3938 27.8277C34.3938 27.8031 34.3906 27.7753 34.3898 27.7504H34.3938V9.25035H34.3873C34.3884 9.22434 34.3945 9.19904 34.3945 9.17303ZM18.5373 9.17303C18.5373 8.15155 21.1725 6.6076 25.1445 6.6076C29.1166 6.6076 31.7518 8.15155 31.7518 9.17303C31.7518 10.1938 29.1166 11.7377 25.1445 11.7377C21.1725 11.7377 18.5373 10.1938 18.5373 9.17303Z" fill="white"/>
<path d="M11.9297 13.2148C6.6561 13.2148 2.67969 15.4536 2.67969 18.423C2.67969 18.4494 2.68547 18.4743 2.68619 18.5004H2.67969V27.7504C2.67969 30.7197 6.6561 32.9585 11.9297 32.9585C17.2033 32.9585 21.1797 30.7197 21.1797 27.7504V18.5007H21.1732C21.1739 18.4747 21.1797 18.4494 21.1797 18.4234C21.1797 15.454 17.2033 13.2148 11.9297 13.2148ZM5.32244 23.0871C5.32244 22.8587 5.47167 22.6011 5.72279 22.342C7.34118 23.1488 9.49361 23.6308 11.9297 23.6308C14.3647 23.6308 16.516 23.1492 18.1341 22.3431C18.3848 22.6025 18.5369 22.8605 18.5369 23.0867C18.5369 24.1074 15.9018 25.6514 11.9297 25.6514C7.95761 25.6514 5.32244 24.1078 5.32244 23.0871ZM11.9297 15.858C15.9018 15.858 18.5369 17.4019 18.5369 18.4234C18.5369 19.4441 15.9018 20.9881 11.9297 20.9881C7.95761 20.9881 5.32244 19.4441 5.32244 18.4234C5.32244 17.4019 7.95761 15.858 11.9297 15.858ZM11.9297 30.3161C7.95761 30.3161 5.32244 28.7722 5.32244 27.7507C5.32244 27.5234 5.47311 27.2655 5.72388 27.0064C7.34227 27.8129 9.49397 28.2949 11.9297 28.2949C14.365 28.2949 16.5171 27.8132 18.1351 27.0067C18.3863 27.2658 18.5366 27.5238 18.5366 27.7511C18.5369 28.7722 15.9018 30.3161 11.9297 30.3161Z" fill="white"/>
</svg>
