<svg width="16" height="16" viewBox="0 0 16 16" fill="none" xmlns="http://www.w3.org/2000/svg">
<path d="M3.20004 1.86719C2.46486 1.86719 1.8667 2.46531 1.8667 3.20053C1.8667 3.93572 2.46482 4.53388 3.20004 4.53388C3.93523 4.53388 4.53339 3.93575 4.53339 3.20053C4.53339 2.46534 3.93523 1.86719 3.20004 1.86719Z" fill="white"/>
<path d="M12.8001 0H3.29371C1.62837 0 0.170522 1.23359 0.0145219 2.89172C-0.164416 4.79438 1.33399 6.4 3.20012 6.4H5.86678V14.6667C5.86678 14.7373 5.89478 14.8051 5.9449 14.8552L7.01156 15.9219C7.11556 16.0259 7.28462 16.0259 7.38862 15.9219L8.26675 15.0437L9.14487 15.9219C9.24887 16.0259 9.41793 16.0259 9.52193 15.9219L10.4001 15.0437L11.2782 15.9219C11.3822 16.0259 11.5512 16.0259 11.6552 15.9219L12.5334 15.0437L13.4115 15.9219C13.5155 16.0259 13.6846 16.0259 13.7886 15.9219L14.6667 15.0437L15.5448 15.9219C15.5957 15.9728 15.664 16 15.7333 16C15.7677 16 15.8024 15.9936 15.8355 15.9797C15.9349 15.9386 16 15.841 16 15.7333V3.2C16.0001 1.43281 14.5673 0 12.8001 0ZM5.82946 3.65282C5.64652 4.75682 4.75587 5.64694 3.65212 5.82935C1.82971 6.13016 0.26946 4.56935 0.571054 2.74722C0.75371 1.64319 1.64437 0.753063 2.74837 0.570657C4.57052 0.269594 6.13106 1.83066 5.82946 3.65282ZM14.1335 12.8H7.73346C7.58628 12.8 7.46681 12.6805 7.46681 12.5334C7.46681 12.3862 7.58628 12.2667 7.73346 12.2667H14.1335C14.2807 12.2667 14.4001 12.3862 14.4001 12.5334C14.4001 12.6805 14.2807 12.8 14.1335 12.8ZM14.1335 11.4667H7.73346C7.58628 11.4667 7.46681 11.3472 7.46681 11.2C7.46681 11.0528 7.58628 10.9334 7.73346 10.9334H14.1335C14.2807 10.9334 14.4001 11.0528 14.4001 11.2C14.4001 11.3472 14.2807 11.4667 14.1335 11.4667ZM14.1335 10.1334H7.73346C7.58628 10.1334 7.46681 10.0139 7.46681 9.86669C7.46681 9.71951 7.58628 9.60004 7.73346 9.60004H14.1335C14.2807 9.60004 14.4001 9.71951 14.4001 9.86669C14.4001 10.0139 14.2807 10.1334 14.1335 10.1334Z" fill="white"/>
</svg>
