<svg width="15" height="16" viewBox="0 0 15 16" fill="none" xmlns="http://www.w3.org/2000/svg">
<path d="M7.04402 7.6478C6.44025 7.6478 6.03774 8.05031 6.03774 8.65409C6.03774 9.0566 6.33962 9.35849 6.64151 9.45912L6.33962 10.8679H7.6478L7.34591 9.45912C7.74843 9.35849 7.94968 9.0566 7.94968 8.65409C8.05031 8.05031 7.6478 7.6478 7.04402 7.6478ZM7.14465 3.32076C6.44025 3.32076 5.73585 3.8239 5.73585 4.5283V6.03774H8.45283V4.5283C8.3522 3.8239 7.84906 3.32076 7.14465 3.32076ZM7.04402 0L0 3.01887V6.03774C0.100629 10.4654 2.91824 14.3899 7.04402 16C11.1698 14.3899 13.9874 10.4654 14.088 6.03774V3.01887L7.04402 0ZM11.0692 11.0692C11.0692 11.673 10.6667 12.0755 10.0629 12.0755H4.02516C3.42138 12.0755 3.01887 11.673 3.01887 11.0692V7.04403C3.01887 6.44025 3.42138 6.03774 4.02516 6.03774H4.32704V4.5283C4.42767 3.1195 5.63522 2.01258 7.04402 2.01258C8.45283 2.01258 9.66038 3.1195 9.76101 4.5283V6.03774H10.0629C10.6667 6.03774 11.0692 6.44025 11.0692 7.04403V11.0692Z" fill="white"/>
</svg>
