<svg width="12" height="17" viewBox="0 0 12 17" fill="none" xmlns="http://www.w3.org/2000/svg">
<path d="M5.90792 9.52657C8.51652 9.52657 10.6382 7.3893 10.6382 4.76328C10.6382 2.13679 8.51652 0 5.90792 0C3.30073 0 1.18042 2.13679 1.18042 4.76328C1.18042 7.3893 3.30073 9.52657 5.90792 9.52657Z" fill="white"/>
<path d="M9.96915 8.92578C9.22283 9.66245 8.27968 10.195 7.22729 10.4427L8.32535 16.0738C8.36679 16.272 8.2931 16.4757 8.13536 16.6016L7.66308 16.9795C8.98009 16.8222 10.4068 16.4787 11.9023 15.852V11.6723C11.9023 10.4337 11.2633 9.53461 9.96915 8.92578Z" fill="white"/>
<path d="M5.71183 10.6445L4.69287 15.9703L5.9515 16.977L7.20777 15.9707L6.17304 10.6445H5.71183Z" fill="white"/>
<path d="M4.65522 10.4561C3.57788 10.216 2.6126 9.67611 1.85168 8.92578C0.611891 9.5332 0 10.4309 0 11.6686V15.8687C0.595881 16.1456 2.13043 16.7695 4.26487 16.9976L3.76599 16.5985C3.60919 16.4731 3.53479 16.2694 3.57552 16.0716L4.65522 10.4561Z" fill="white"/>
</svg>
