<svg width="24" height="27" viewBox="0 0 24 27" fill="none" xmlns="http://www.w3.org/2000/svg">
<path d="M21.7358 21.4648H2.26415C1.01376 21.4648 0 22.5332 0 23.851C0 25.1687 1.01376 26.2371 2.26415 26.2371H21.7358C22.9862 26.2371 24 25.1687 24 23.851C24 22.5332 22.9862 21.4648 21.7358 21.4648Z" fill="#01232D"/>
<path d="M4.82861 19.9341C6.079 19.9341 7.09276 18.8658 7.09276 17.548V8.433C7.09276 7.11524 6.079 6.04688 4.82861 6.04688C3.57821 6.04688 2.56445 7.11524 2.56445 8.433V17.548C2.56441 18.8658 3.57821 19.9341 4.82861 19.9341Z" fill="#01232D"/>
<path d="M11.9985 19.9331C13.2489 19.9331 14.2627 18.8647 14.2627 17.5469V5.40956C14.2627 4.09181 13.2489 3.02344 11.9985 3.02344C10.7481 3.02344 9.73438 4.09181 9.73438 5.40956V17.5469C9.73437 18.8647 10.7481 19.9331 11.9985 19.9331Z" fill="#01232D"/>
<path d="M19.1704 19.9321C20.4208 19.9321 21.4345 18.8637 21.4345 17.546V2.38612C21.4346 1.06837 20.4209 0 19.1704 0C17.92 0 16.9062 1.06837 16.9062 2.38612V17.5459C16.9062 18.8637 17.92 19.9321 19.1704 19.9321Z" fill="#01232D"/>
</svg>
