<svg width="13" height="13" viewBox="0 0 13 13" fill="none" xmlns="http://www.w3.org/2000/svg">
<path d="M1.7304 7.5553H11.2696C12.4214 7.5553 13 6.9932 13 5.92413V3.69225C13 3.19075 12.9669 2.84908 12.6859 2.58457L10.7296 0.738464C10.1343 0.176345 9.699 0 8.88892 0H4.11106C3.30095 0 2.86561 0.176345 2.27046 0.738464L0.314107 2.58457C0.0330589 2.84908 0 3.19075 0 3.69225V5.92413C0 6.9932 0.58415 7.5553 1.7304 7.5553ZM6.49723 5.08096C5.7202 5.08096 5.21872 4.40864 5.21872 3.7694V3.74734C5.21872 3.51591 5.08096 3.30098 4.79991 3.30098H1.30054C0.980928 3.30098 0.876202 3.15769 1.12972 2.92073L2.94826 1.20686C3.28995 0.892755 3.50488 0.771523 4.03391 0.771523H8.96606C9.4951 0.771523 9.71003 0.892755 10.0462 1.20686L11.8647 2.92073C12.1293 3.16872 12.0135 3.30098 11.7049 3.30098H8.20006C7.91902 3.30098 7.78126 3.51591 7.78126 3.74734V3.7694C7.78126 4.40864 7.27975 5.08096 6.49723 5.08096ZM1.7304 12.6914H11.2696C12.4158 12.6914 13 12.1238 13 10.9885V8.94403C13 8.62992 12.7905 8.33232 12.4654 8.33232H8.20006C7.91902 8.33232 7.78126 8.54725 7.78126 8.77319V8.79524C7.78126 9.43448 7.27975 10.1123 6.49723 10.1123C5.7202 10.1123 5.21872 9.43448 5.21872 8.79524V8.77319C5.21872 8.54725 5.08096 8.33232 4.79991 8.33232H0.534538C0.209404 8.33232 0 8.62992 0 8.94403V10.9885C0 12.1238 0.58415 12.6914 1.7304 12.6914Z" fill="white"/>
</svg>
