<svg width="76" height="47" viewBox="0 0 76 47" fill="none" xmlns="http://www.w3.org/2000/svg">
<path fill-rule="evenodd" clip-rule="evenodd" d="M37.1466 23.2761V29.1384H35.3003V14.6611H40.1971C40.7816 14.6488 41.3628 14.7533 41.907 14.9684C42.4512 15.1835 42.9478 15.505 43.368 15.9144C43.7925 16.299 44.1303 16.7706 44.3588 17.2976C44.5872 17.8246 44.701 18.3948 44.6926 18.9698C44.7047 19.5478 44.5926 20.1217 44.364 20.6521C44.1354 21.1824 43.7956 21.6567 43.368 22.0424C42.5117 22.8649 41.4548 23.2757 40.1971 23.275H37.1466V23.2761ZM37.1466 16.4435V21.4972H40.243C40.5824 21.5073 40.9203 21.446 41.2348 21.3171C41.5494 21.1882 41.8338 20.9946 42.0698 20.7487C42.3047 20.5187 42.4913 20.2437 42.6187 19.9398C42.7462 19.636 42.8119 19.3095 42.8119 18.9796C42.8119 18.6497 42.7462 18.3232 42.6187 18.0193C42.4913 17.7155 42.3047 17.4405 42.0698 17.2105C41.8368 16.9594 41.5534 16.761 41.2384 16.6286C40.9235 16.4962 40.5842 16.4327 40.243 16.4423H37.1466V16.4435ZM48.9469 18.9121C50.3116 18.9121 51.3888 19.2794 52.1786 20.0141C52.9683 20.7488 53.3628 21.756 53.362 23.0359V29.1408H51.596V27.7662H51.5157C50.7512 28.8982 49.7343 29.4642 48.4652 29.4642C47.3819 29.4642 46.4755 29.1408 45.7462 28.4939C45.3961 28.197 45.1163 27.8252 44.927 27.4056C44.7378 26.9859 44.6438 26.529 44.6521 26.0682C44.6521 25.0432 45.0367 24.228 45.8058 23.6227C46.5749 23.0175 47.6017 22.714 48.8861 22.7125C49.9824 22.7125 50.8853 22.9146 51.5948 23.3189V22.8939C51.5969 22.5797 51.5296 22.269 51.3977 21.9843C51.2658 21.6996 51.0726 21.448 50.8322 21.2478C50.344 20.8041 49.7076 20.562 49.0501 20.5697C48.0187 20.5697 47.2026 21.0079 46.6017 21.8843L44.9755 20.8527C45.87 19.559 47.1938 18.9121 48.9469 18.9121ZM46.5581 26.1086C46.5569 26.3453 46.6118 26.5788 46.7183 26.7898C46.8248 27.0008 46.9799 27.1831 47.1705 27.3215C47.5788 27.645 48.0857 27.8164 48.6051 27.8066C49.3843 27.8053 50.1311 27.493 50.682 26.938C51.2936 26.3581 51.5994 25.6777 51.5994 24.8969C51.0237 24.4348 50.221 24.2038 49.1911 24.2038C48.4411 24.2038 47.8157 24.3859 47.315 24.7502C46.8092 25.1198 46.5581 25.5691 46.5581 26.1086ZM57.3346 33.5002L63.4998 19.2285H61.4895L58.6397 26.3441H58.5996L55.6695 19.2285H53.6626L57.7165 28.5065L55.4287 33.5002H57.3346Z" fill="#4D668F"/>
<path d="M29.6858 22.0075C29.6865 21.4408 29.6389 20.875 29.5436 20.3164H21.7568V23.5196H26.2167C26.1255 24.0312 25.9323 24.5189 25.6489 24.9532C25.3655 25.3876 24.9977 25.7597 24.5676 26.047V28.1263H27.2294C28.7879 26.6789 29.6858 24.5384 29.6858 22.0075Z" fill="#425A81"/>
<path d="M21.7563 30.1334C23.9845 30.1334 25.8607 29.3964 27.2288 28.1258L24.5671 26.0465C23.8262 26.5525 22.8721 26.8413 21.7563 26.8413C19.6026 26.8413 17.7746 25.3789 17.1209 23.4082H14.3789V25.551C15.0661 26.9284 16.1199 28.0864 17.4227 28.8956C18.7254 29.7048 20.2258 30.1333 21.7563 30.1334Z" fill="#4D658D"/>
<path d="M17.1212 23.4103C16.7756 22.3777 16.7756 21.2594 17.1212 20.2268V18.084H14.3792C13.8011 19.2428 13.5 20.5217 13.5 21.8185C13.5 23.1154 13.8011 24.3943 14.3792 25.5531L17.1212 23.4103Z" fill="#425A81"/>
<path d="M21.7563 16.7927C22.9338 16.7733 24.0716 17.2214 24.9237 18.0402L27.2804 15.6664C25.786 14.2526 23.8063 13.4764 21.7563 13.5005C20.2258 13.5006 18.7254 13.9292 17.4227 14.7383C16.12 15.5475 15.0661 16.7055 14.3789 18.083L17.1209 20.2257C17.7746 18.2551 19.6026 16.7927 21.7563 16.7927Z" fill="#4D658D"/>
</svg>
