<svg width="75" height="47" viewBox="0 0 75 47" fill="none" xmlns="http://www.w3.org/2000/svg">
<path fill-rule="evenodd" clip-rule="evenodd" d="M15.755 11.5923C16.05 10.981 16.627 10.4081 17.1765 10.1788C17.4984 10.0385 21.2811 10.0129 37.4715 10.0014C39.1116 10.0014 40.6204 10.001 42.0087 10.0006C56.8166 9.99655 57.9219 9.99625 58.4503 10.5485C58.4929 10.593 58.5318 10.6411 58.5738 10.6931C58.6231 10.7541 58.6767 10.8206 58.7457 10.8928C59.0003 11.1601 59.2688 11.606 59.3491 11.8733C59.5503 12.5357 59.5503 34.4537 59.3491 35.1285C59.1749 35.727 58.5446 36.4274 57.8738 36.7586C57.3777 37.0003 56.8945 37.0003 37.5119 37.0003C25.5604 37.0003 17.5388 36.9491 17.3377 36.8856C16.8012 36.6819 16.01 35.9559 15.755 35.4081C15.5135 34.9243 15.5 34.249 15.5 23.5002C15.5 12.713 15.5135 12.0762 15.755 11.5923ZM58.6653 11.6686C58.4907 11.3502 58.1822 10.981 57.9811 10.8408C57.6058 10.5736 57.5519 10.5735 37.6742 10.5475H37.6587C21.0661 10.5224 17.6457 10.5475 17.2968 10.6878C17.0692 10.7896 16.7069 11.0829 16.4923 11.3502L16.1034 11.8213L16.063 23.296L16.0361 34.7708L16.3311 35.3314C16.5057 35.6498 16.8142 36.019 17.0153 36.1592C17.3911 36.4265 17.4181 36.4265 37.4715 36.4265H57.5519L57.9946 36.1337C58.0497 36.0961 58.1014 36.0634 58.15 36.0327C58.2371 35.9777 58.3147 35.9288 58.3827 35.8699C58.8982 35.4237 58.9013 34.385 58.9277 25.4753L58.9334 23.6273L58.9603 12.2288L58.6653 11.6686ZM19.6577 23.7505V18.7199L19.6581 13.6897H21.1739L22.6762 13.7025L23.2262 14.4285C23.5212 14.8232 24.4735 16.0586 25.3319 17.1665L26.9016 19.1914V16.4405V13.6897H28.3769H29.8523V18.7203V23.7637L28.4169 23.7254L26.968 23.687L24.8888 20.9873C23.7483 19.497 22.7556 18.1853 22.6753 18.0707C22.5814 17.9432 22.5545 18.8218 22.5814 20.8087L22.6353 23.7505H21.1465H19.6577ZM31.8642 18.7199V23.7505H35.2846H38.705V22.5407V21.3309H36.8942H35.0834V20.6305V19.9302H36.6931H38.3027V18.7203V17.5101H36.6931H35.07L35.1104 16.7714L35.1508 16.0454L36.8677 16.007L38.5712 15.9687V14.8352V13.6889H35.2177H31.8642V18.7199ZM39.5109 15.975V14.8415V13.6956H44.0713H48.6316V14.8419V15.9882H47.1562H45.6809V19.8725V23.7568H44.0722H42.4626L42.4356 19.8981L42.3952 16.0517L40.9598 16.0133L39.5109 15.975ZM36.6939 29.3581V32.6695H37.7001H38.6928L38.7332 31.5744L38.7736 30.4788L39.2432 31.536L39.7259 32.6056L40.8394 32.6439L41.9529 32.6823L41.2686 31.4725L40.5978 30.2627L41.1882 29.2946C41.5236 28.7596 41.7917 28.3014 41.7917 28.263C41.7917 28.2246 41.309 28.2118 40.7051 28.2374L39.6186 28.2758L39.2028 29.2311L38.7736 30.1864L38.7332 28.1104L38.7063 26.0472H37.7001H36.6939V29.3581ZM42.4744 27.4994C42.1256 27.0791 42.1121 26.7607 42.4609 26.4294C42.7963 26.111 43.7352 26.0854 44.0975 26.3915C44.3929 26.646 44.406 27.2829 44.111 27.6013C43.9633 27.7543 43.7082 27.8306 43.3194 27.8306C42.8637 27.8306 42.689 27.7667 42.4744 27.4994ZM19.256 29.5627V32.6955L21.3083 32.6443C23.0522 32.606 23.4145 32.568 23.8033 32.3515C24.4741 31.9695 24.796 31.498 24.8095 30.836C24.823 30.1992 24.4607 29.7025 23.7634 29.4225C23.3876 29.2694 23.3876 29.2571 23.6561 29.1808C24.1257 29.0405 24.6218 28.3657 24.6218 27.8942C24.6218 27.3341 24.1122 26.7735 23.4415 26.5825C23.1465 26.4934 22.0999 26.4295 21.0807 26.4295H19.256V29.5627ZM22.3145 27.8559C22.5561 28.0852 22.5022 28.569 22.2207 28.7216C22.073 28.7852 21.778 28.8491 21.5499 28.8491C21.1476 28.8491 21.1341 28.8363 21.1341 28.2762V27.7032H21.6437C21.9252 27.7032 22.2207 27.7668 22.3145 27.8559ZM22.5022 30.3394C23.0387 30.7977 22.6095 31.3966 21.7106 31.3966H21.1337V30.7597V30.1228H21.6972C22.0195 30.1228 22.3549 30.2119 22.5022 30.3394ZM25.7204 29.0019C25.7608 28.4034 25.7608 28.4034 26.3642 28.2504C27.1558 28.0342 28.6715 28.1229 29.1138 28.3911C29.798 28.8242 29.9049 29.1426 29.9588 30.9765L30.0127 32.6701H29.0604C28.2019 32.6701 28.1081 32.6445 28.1081 32.4152C28.1081 32.1859 28.0811 32.1859 27.625 32.4787C26.5254 33.1919 25.2911 32.6062 25.2911 31.3836C25.2911 30.4666 25.9485 29.9952 27.4777 29.8042C28.135 29.7279 28.2158 29.6384 27.9473 29.3839C27.7327 29.1805 26.9546 29.2057 26.2973 29.4222L26.1999 29.4559C25.948 29.5429 25.7443 29.6132 25.7204 29.6132C25.6934 29.6132 25.6934 29.3459 25.7204 29.0019ZM27.4103 31.4978C27.8131 31.5618 28.1081 31.3196 28.1081 30.9377C28.1081 30.6065 27.88 30.5557 27.33 30.7719C26.9142 30.9249 26.9677 31.4471 27.4103 31.4978ZM33.5287 28.263C33.2872 28.3649 33.0326 28.5431 32.9518 28.6833C32.831 28.8871 32.8175 28.8743 32.8041 28.5559V28.2119H31.7979H30.7917V30.4405V32.6691H31.7979H32.791L32.8315 31.1916C32.8719 29.9307 32.9118 29.6762 33.113 29.5615C33.2742 29.4596 33.4079 29.4596 33.5826 29.5615C33.7703 29.6762 33.8107 29.9307 33.8511 31.1916L33.8915 32.6691H34.8968H35.9164L35.8625 30.9115C35.8221 29.778 35.7418 29.0393 35.621 28.8104C35.2726 28.1483 34.3872 27.9194 33.5287 28.263ZM47.5321 28.5687C47.7332 28.3905 47.9882 28.2123 48.0955 28.1739C48.4579 28.0465 49.0883 28.0848 49.4376 28.2494C50.0684 28.5427 50.2426 29.1156 50.2426 30.9751V32.6687H49.2364H48.2437L48.2033 31.1021L48.2032 31.0973C48.1629 29.5615 48.1626 29.5487 47.841 29.5103C47.291 29.434 47.1567 29.7653 47.1567 31.2935V32.6691H46.2179H45.2791V30.4405V28.2119H46.2179C47.1432 28.2119 47.1567 28.2119 47.1567 28.5559V28.8999L47.5321 28.5687ZM52.0914 28.3472C50.8172 28.984 50.5357 31.2762 51.5953 32.2822C52.2391 32.8935 53.3661 32.9447 53.9695 32.3969L54.2645 32.142V32.4732C54.2645 32.6514 54.1168 32.9442 53.9156 33.1356C53.6072 33.4285 53.4999 33.4541 52.7487 33.4029C52.2925 33.3646 51.8099 33.301 51.6891 33.2375C51.4745 33.1612 51.4476 33.2247 51.4476 33.8488C51.4476 34.6895 51.5414 34.7402 52.9229 34.7278C54.1302 34.7278 54.8949 34.4857 55.4848 33.9255C56.1421 33.3015 56.2764 32.6902 56.2764 30.2578V28.2073H55.2702C54.4387 28.2073 54.264 28.2457 54.264 28.4111C54.264 28.5765 54.1971 28.5637 53.9152 28.3476C53.4594 28.0164 52.7487 28.0164 52.0914 28.3472ZM54.1033 29.6337C54.3044 29.8247 54.3179 30.8056 54.1302 31.1491C53.9825 31.4041 53.5268 31.4676 53.2183 31.2766C52.9234 31.0984 52.856 30.1687 53.111 29.7991C53.3521 29.4551 53.8353 29.3788 54.1033 29.6337ZM42.3274 32.6691V30.4405V28.2119H43.3336H44.3397V30.4405V32.6691H43.3336H42.3274Z" fill="#4D668F"/>
</svg>
