<svg width="75" height="47" viewBox="0 0 75 47" fill="none" xmlns="http://www.w3.org/2000/svg">
<path fill-rule="evenodd" clip-rule="evenodd" d="M57.8364 30.9789L66.0001 23.4053L62.1331 15.5703L57.8364 30.9789Z" fill="#5F77A0"/>
<path fill-rule="evenodd" clip-rule="evenodd" d="M12.636 28.1059L16.0731 15.6572H12.8948L9.06206 29.5581C8.80556 30.4855 9.36758 31.2391 10.3161 31.2391H25.9565C26.5248 31.2391 27.1108 30.787 27.2647 30.2305L31.2832 15.6572H28.1898L24.8382 28.1929L12.636 28.1059ZM56.8908 15.5702H53.7974L49.4134 31.2391H52.5941L56.8908 15.5702ZM47.0952 22.0117L31.6275 22.0987L29.0488 31.5H32.0584L33.6898 25.058H47.5261C48.5693 25.058 49.6392 24.2284 49.9145 23.2047L51.4934 17.336C51.7681 16.3116 51.1468 15.4902 50.1037 15.5001L33.3455 15.6566L32.4004 18.7034H48.1269L47.0952 22.0117ZM63.2503 23.4053L55.0867 30.9789L59.3834 15.5703L63.2503 23.4053Z" fill="#4D668F"/>
</svg>
