<svg width="76" height="47" viewBox="0 0 76 47" fill="none" xmlns="http://www.w3.org/2000/svg">
<path fill-rule="evenodd" clip-rule="evenodd" d="M47.5222 16.3232C48.9097 16.3232 49.9835 16.6473 50.6868 17.2857C51.352 17.8861 51.7226 18.7629 51.7321 19.7635C51.7321 20.7927 51.428 21.6313 50.8198 22.2603C50.0406 23.0703 48.8146 23.5182 47.3702 23.5182C47.1421 23.5182 46.914 23.5087 46.6954 23.4896V27.5684H44.5572V16.5805L44.8898 16.5234C45.7071 16.39 46.5909 16.3232 47.5222 16.3232ZM47.3987 21.6218C48.2159 21.6218 49.5844 21.3931 49.5844 19.8302C49.5844 18.477 48.4725 18.1911 47.5602 18.1911C47.1991 18.1911 46.914 18.2006 46.7049 18.2292V21.5837C46.895 21.6123 47.1231 21.6218 47.3987 21.6218ZM9.5 27.568L13.3013 16.3991H15.468L19.2788 27.568H16.998L15.8956 24.3088H12.8071L11.7332 27.568H9.5ZM13.3583 22.4505H15.354L14.5272 20.0204C14.4854 19.9067 14.4511 19.7968 14.4173 19.6883C14.3972 19.624 14.3773 19.5601 14.3561 19.4963C14.3206 19.6173 14.2798 19.7384 14.2376 19.8635C14.2234 19.9057 14.209 19.9485 14.1946 19.9918L13.3583 22.4505ZM21.8921 21.5832C21.8921 21.8787 22.0062 22.0693 23.0325 22.479C23.9733 22.8316 25.2373 23.4892 25.2373 25.0807C25.2373 26.6626 23.9638 27.7299 22.0727 27.7299C21.2459 27.7299 20.4096 27.5203 19.7824 27.1486L19.5068 26.9866L20.077 25.1855L20.5142 25.4428C20.8753 25.662 21.512 25.9098 22.1012 25.9098C22.4813 25.9098 23.1181 25.824 23.1181 25.2141C23.1181 24.8901 23.0325 24.6232 22.0157 24.242C20.9893 23.8704 19.7729 23.1366 19.7729 21.7548C19.7729 20.2491 21.0179 19.1627 22.7379 19.1627C23.5077 19.1627 24.2679 19.3533 24.7716 19.6868L25.0377 19.8584L24.458 21.6309L24.0209 21.3545C23.7928 21.2116 23.3176 20.9733 22.7189 20.9733C22.2057 20.9733 21.8921 21.2021 21.8921 21.5832ZM28.5919 17.3906L26.4632 18.0386V19.3156H25.3133V21.1549H26.4632V24.8048C26.4632 25.8245 26.6627 26.5487 27.0904 27.0347C27.5085 27.4826 28.1262 27.7399 28.8485 27.7399C29.4947 27.7399 29.9603 27.6065 30.1789 27.5303L30.464 27.435L30.35 25.5862L29.8558 25.7292C29.7133 25.7673 29.5422 25.8054 29.1906 25.8054C28.934 25.8054 28.5824 25.8054 28.5824 24.7667V21.1549H30.5115V19.3156H28.5919V17.3906ZM35.3201 19.1823L35.7097 19.2395L35.7192 21.3837L35.2251 21.2789C35.13 21.2598 35.0255 21.2598 34.8544 21.2598C34.1322 21.2598 33.6 21.7935 33.4385 22.6511C33.4195 22.7941 33.4005 23.0037 33.4005 23.2039V27.5685H31.2432V22.0412C31.2432 21.1073 31.2147 20.3831 31.1767 19.7446L31.1482 19.3157H33.1439L33.1724 19.9161C33.6475 19.4301 34.2652 19.1537 34.94 19.1537C35.092 19.1537 35.2061 19.1633 35.3201 19.1823ZM39.6345 19.1627C37.2302 19.1627 35.5482 20.9447 35.5482 23.5083C35.5482 26.005 37.1732 27.7395 39.511 27.7395C41.4876 27.7395 43.6069 26.3767 43.6069 23.3844C43.6164 20.8971 41.9818 19.1627 39.6345 19.1627ZM41.4306 23.432C41.4306 24.871 40.6514 25.9193 39.587 25.9193C38.5227 25.9193 37.7529 24.8805 37.7529 23.4701C37.7529 22.5553 38.1425 21.0019 39.6155 21.0019C41.0505 20.9829 41.4306 22.5839 41.4306 23.432ZM58.2798 25.3761V22.5934C58.2798 20.373 57.1299 19.1627 55.0582 19.1627C54.0984 19.1627 53.091 19.4295 52.3973 19.8679L52.1217 20.0394L52.7014 21.7548L53.1385 21.4594C53.5852 21.1544 54.2314 20.9733 54.8586 20.9733C55.2958 20.9638 55.6094 21.0686 55.8184 21.2688C55.9895 21.4403 56.094 21.6976 56.132 22.0216C54.45 22.0693 53.2241 22.4695 52.4638 23.2224C51.9411 23.7465 51.6751 24.4041 51.6751 25.195C51.6751 26.4625 52.5874 27.7395 54.3549 27.7395C55.1057 27.7395 55.8089 27.5012 56.3601 27.0819L56.4171 27.5775H58.4603L58.3843 27.1105C58.3178 26.6531 58.2798 26.0718 58.2798 25.3761ZM54.6876 25.9288C54.3645 25.9288 53.8323 25.8145 53.8323 25.0425C53.8323 24.7471 53.9178 24.5089 54.1079 24.3278C54.3549 24.08 54.9156 23.7941 56.1701 23.7751V24.6614C56.1701 24.7281 56.1606 24.8424 56.132 24.9568C55.98 25.4047 55.5143 25.9288 54.6876 25.9288ZM62.6512 23.9568L64.2192 19.3158H66.5L64.2668 25.167C63.3545 27.5685 62.6607 29.0457 61.6154 29.9796C60.7411 30.7134 59.9808 30.8944 59.7622 30.9325L59.4106 30.9993L58.8594 29.1505L59.2396 29.0266C59.4201 28.9789 59.8573 28.8169 60.2849 28.4453L60.2944 28.4357C60.6746 28.1308 61.0547 27.6162 61.3113 27.073C61.3158 27.0617 61.3208 27.0489 61.3261 27.0353C61.3432 26.9915 61.3633 26.9401 61.3778 26.911C61.3778 26.8919 61.3588 26.8347 61.3113 26.7394L61.3018 26.7204L58.3558 19.3158H60.7031L62.4136 23.9758C62.4611 24.0806 62.4991 24.1949 62.5371 24.3092C62.5561 24.252 62.5752 24.1927 62.5941 24.1332C62.6132 24.0736 62.6322 24.014 62.6512 23.9568Z" fill="#4D668F"/>
<path d="M17.3685 19.4688C18.7559 18.0489 21.1127 17.2008 23.6691 17.2008C24.6669 17.2008 25.6362 17.3246 26.558 17.5819L26.6341 17.601L28.2686 17.1055L27.5369 16.8196C26.1399 16.2859 24.5339 16 22.8803 16C20.476 16 18.2333 16.5813 16.5702 17.6391L16.3896 17.7535L17.0834 19.7833L17.3685 19.4688Z" fill="#4D658C"/>
</svg>
