<svg width="76" height="47" viewBox="0 0 76 47" fill="none" xmlns="http://www.w3.org/2000/svg">
<path d="M65.3145 20.2211C64.8153 18.897 63.4546 17.9462 61.8567 17.9462H61.8233C60.7845 17.9462 59.8481 18.3473 59.1817 18.9911C58.5143 18.3473 57.5779 17.9462 56.5402 17.9462H56.5068C55.5935 17.9462 54.7589 18.2564 54.1178 18.7697V18.5087C54.0958 18.2487 53.8652 18.0444 53.5805 18.0444H51.1293C50.8294 18.0444 50.5874 18.2691 50.5874 18.5481V30.8962C50.5874 31.1754 50.8297 31.3999 51.1293 31.3999H53.5805C53.8538 31.3999 54.0786 31.2105 54.1145 30.9656L54.1134 22.1011C54.1134 22.0701 54.1145 22.0413 54.118 22.0124C54.1572 21.6166 54.4696 21.2915 54.9632 21.2507H55.4151C55.6215 21.2679 55.7957 21.3352 55.9328 21.4368C56.1462 21.594 56.2648 21.8358 56.2648 22.1011L56.274 30.9219C56.274 31.2011 56.5173 31.4268 56.8159 31.4268H59.2671C59.5564 31.4268 59.7918 31.213 59.8057 30.9466L59.8046 22.0895C59.8035 21.7985 59.9487 21.5354 60.2034 21.3793C60.329 21.3044 60.4802 21.2542 60.6542 21.2391H61.1061C61.6365 21.2819 61.957 21.6552 61.9559 22.0895L61.9652 30.8985C61.9652 31.1777 62.2085 31.4021 62.507 31.4021H64.9583C65.2568 31.4021 65.5001 31.1775 65.5001 30.8985V21.4244C65.5001 20.7783 65.4218 20.5034 65.3145 20.2211ZM48.7199 18.0766H47.3178V15.9632C47.3178 15.7097 47.0965 15.5044 46.8232 15.5044C46.7909 15.5044 46.7599 15.5087 46.7297 15.514C45.1754 15.9097 45.4867 17.9066 42.6494 18.0766H42.3737C42.3322 18.0766 42.293 18.0819 42.2549 18.0895C42.0127 18.1397 41.8306 18.3397 41.8306 18.5793V20.8534C41.8306 21.1303 42.0739 21.356 42.3735 21.356H43.8528L43.8506 30.9983C43.8506 31.2732 44.0904 31.4956 44.3867 31.4956H46.8103C47.1055 31.4956 47.3453 31.2732 47.3453 30.9983L47.3464 21.356H48.7196C49.0182 21.356 49.2615 21.1303 49.2615 20.8534V18.5795C49.2619 18.3024 49.0186 18.0766 48.7199 18.0766Z" fill="#395177"/>
<path d="M39.9004 18.0766H37.4491C37.1506 18.0766 36.9084 18.3023 36.9084 18.5792V23.2811C36.9026 23.5721 36.649 23.8052 36.3342 23.8052H35.3081C34.99 23.8052 34.7328 23.5678 34.7328 23.2725L34.7235 18.5792C34.7235 18.3023 34.4802 18.0766 34.1817 18.0766H31.7302C31.4304 18.0766 31.1884 18.3023 31.1884 18.5792V23.7325C31.1884 25.6898 32.6929 27.0856 34.8041 27.0856C34.8041 27.0856 36.3883 27.0856 36.4367 27.0941C36.7227 27.1241 36.9451 27.3466 36.9451 27.6205C36.9451 27.8911 36.7271 28.1125 36.4446 28.1456C36.4307 28.1476 36.418 28.1509 36.403 28.1531L32.8183 28.1649C32.5185 28.1649 32.2765 28.3907 32.2765 28.6676V30.9405C32.2765 31.2186 32.5187 31.4431 32.8183 31.4431H36.8261C38.9383 31.4431 40.4418 30.0484 40.4418 28.0901V18.5794C40.4422 18.3023 40.2002 18.0766 39.9004 18.0766ZM16.3894 18.0762H11.0315C10.7376 18.0762 10.5 18.2974 10.5 18.5692V20.7972C10.5 20.8015 10.5011 20.8058 10.5011 20.8101C10.5011 20.8207 10.5 20.8315 10.5 20.8411V30.9247C10.5 31.1986 10.7213 31.4221 10.9959 31.4284H13.4933C13.7919 31.4284 14.0352 31.2037 14.0352 30.9258L14.0444 27.4701H16.3896C18.352 27.4701 19.7195 26.207 19.7195 24.379V21.1715C19.7193 19.3435 18.3518 18.0762 16.3894 18.0762ZM16.1738 23.6464C16.1738 23.9405 15.9166 24.18 15.5996 24.18L14.0442 24.1811V21.3692H15.5996C15.9166 21.3692 16.1738 21.6066 16.1738 21.9019V23.6464ZM25.9548 18.089H22.5536C22.2526 18.089 22.0093 18.3009 22.0093 18.5607V19.4452C22.0093 19.4505 22.0104 19.457 22.0104 19.4623C22.0104 19.4686 22.0093 19.4752 22.0093 19.4815V20.6933C22.0093 20.9682 22.2676 21.1927 22.5857 21.1927H25.8245C26.0804 21.2301 26.2835 21.4033 26.3123 21.6739V21.967C26.2835 22.2247 26.0828 22.4129 25.8384 22.4343H24.2346C22.1015 22.4343 20.5819 23.7488 20.5819 25.5949V28.2388C20.5819 30.0741 21.8883 31.38 24.0062 31.38H28.4511C29.2491 31.38 29.8959 30.8196 29.8959 30.1296V21.5021C29.8959 19.4101 28.7336 18.089 25.9548 18.089ZM26.3446 27.9366C26.3446 27.9656 26.34 27.9933 26.3354 28.0201C26.3296 28.0452 26.3219 28.0699 26.3123 28.0939C26.2362 28.2929 26.0217 28.4372 25.7669 28.4372H24.7465C24.4284 28.4372 24.1688 28.2125 24.1688 27.9366V27.5076C24.1688 27.5023 24.1677 27.497 24.1677 27.4915L24.1688 26.3503V25.9931L24.1699 25.9898C24.171 25.7149 24.4282 25.4925 24.7463 25.4925H25.7667C26.0861 25.4925 26.3444 25.716 26.3444 25.9931L26.3446 27.9366Z" fill="#4D668F"/>
</svg>
