<svg width="76" height="47" viewBox="0 0 76 47" fill="none" xmlns="http://www.w3.org/2000/svg">
<path fill-rule="evenodd" clip-rule="evenodd" d="M25.2373 25.2232C26.1851 21.1928 23.6995 17.1541 19.6856 16.2024C15.6716 15.2507 11.6494 17.7465 10.7016 21.7768C9.75372 25.8072 12.2393 29.8459 16.2533 30.7976C20.2672 31.7493 24.2895 29.2535 25.2373 25.2232ZM21.3593 21.5429C21.3593 21.2497 21.109 20.9983 20.817 20.9983H19.8157L17.521 18.3592C17.3124 18.1078 16.9787 18.0241 16.6449 18.1078L15.8522 18.3592C15.727 18.4011 15.6853 18.5686 15.7688 18.6524L18.272 21.0402H14.4754C14.3503 21.0402 14.2668 21.124 14.2668 21.2497V21.6686C14.2668 21.9619 14.5171 22.2132 14.8092 22.2132H15.3933V24.224C15.3933 25.7321 16.186 26.6118 17.521 26.6118C17.9382 26.6118 18.272 26.5699 18.6892 26.4024V27.7429C18.6892 28.1199 18.9813 28.4131 19.3567 28.4131H19.9408C20.066 28.4131 20.1912 28.2875 20.1912 28.1618V22.1713H21.1507C21.2759 22.1713 21.3593 22.0875 21.3593 21.9619V21.5429ZM18.6892 25.1456C18.4389 25.2713 18.1051 25.3132 17.8548 25.3132C17.1873 25.3132 16.8535 24.978 16.8535 24.224V22.2132H18.6892V25.1456ZM48.2693 25.0614V27.7844C48.2693 28.1195 48.5197 28.4127 48.8951 28.4127H49.4792C49.6044 28.4127 49.7296 28.2871 49.7296 28.1614V25.0614C49.7296 23.5952 48.8951 22.7993 47.3932 22.7993C46.7257 22.7993 46.0999 22.9249 45.474 23.1344C45.3489 23.1763 45.2237 23.302 45.2237 23.4695V28.1195C45.2237 28.2452 45.3489 28.3708 45.474 28.3708H46.4336C46.5588 28.3708 46.6839 28.2452 46.6839 28.1195V24.1398C46.8508 24.0979 47.1429 24.056 47.3932 24.056C48.019 24.056 48.2693 24.3911 48.2693 25.0614ZM51.9825 26.5276L52.0242 26.1506V26.1087H54.6526C54.7778 26.1087 54.9029 25.983 54.9029 25.8574V24.852C54.9029 23.5114 54.1102 22.7574 52.7335 22.7574C51.3149 22.7574 50.4805 23.5533 50.4805 24.852V26.4857C50.4805 27.1141 50.7309 27.6168 51.1481 27.9938C51.5653 28.329 52.1076 28.4965 52.7752 28.4965C53.3593 28.4965 53.9016 28.3708 54.3606 28.1195C54.5274 28.0357 54.6526 27.8263 54.6526 27.6168C54.6526 27.4911 54.5692 27.3236 54.4857 27.1979C54.4857 27.1979 54.4023 27.0722 54.3606 27.0303C54.3188 26.9884 54.2771 26.9465 54.1937 26.9465C54.1728 26.9465 54.152 26.957 54.1311 26.9675C54.1102 26.978 54.0894 26.9884 54.0685 26.9884C53.6513 27.1979 53.2758 27.3236 52.8586 27.3236C52.3162 27.3236 51.9825 27.0303 51.9825 26.5276ZM53.5679 24.8101V25.229H51.9825V24.8101C51.9825 24.2655 52.2745 23.9722 52.7752 23.9722C53.2758 23.9722 53.5679 24.3074 53.5679 24.8101ZM62.5795 26.5276L62.6213 26.1506V26.1087H65.2497C65.3748 26.1087 65.5 25.983 65.5 25.8574V24.852C65.5 23.5114 64.7073 22.7574 63.3305 22.7574C61.912 22.7574 61.0776 23.5533 61.0776 24.852V26.4857C61.0776 27.1141 61.3279 27.6168 61.7451 27.9938C62.1623 28.329 62.7047 28.4965 63.3722 28.4965C63.9563 28.4965 64.4987 28.3708 64.9576 28.1195C65.1245 28.0357 65.2497 27.8263 65.2497 27.6168C65.2497 27.4911 65.1662 27.3236 65.0828 27.1979C65.0828 27.1979 64.9993 27.0722 64.9576 27.0303C64.9159 26.9884 64.8742 26.9465 64.7907 26.9465C64.7699 26.9465 64.749 26.957 64.7282 26.9675C64.7073 26.978 64.6864 26.9884 64.6656 26.9884C64.2484 27.1979 63.8729 27.3236 63.4557 27.3236C62.9133 27.3236 62.5795 27.0303 62.5795 26.5276ZM64.1649 25.229H62.5795V24.8101C62.5795 24.2655 62.8716 23.9722 63.3722 23.9722C63.8729 23.9722 64.1649 24.3074 64.1649 24.8101V25.229ZM38.6318 28.4127H38.0478C37.714 28.4127 37.4637 28.1195 37.4219 27.8263V25.1033C37.4219 24.3911 37.1716 24.0979 36.5458 24.0979C36.3372 24.0979 36.0452 24.1398 35.8366 24.2236V28.1614C35.8366 28.2871 35.7114 28.4127 35.5862 28.4127H34.6267C34.5015 28.4127 34.3763 28.2871 34.3763 28.1614V21.0398C34.3763 20.9142 34.5015 20.7885 34.6267 20.7885H35.2107C35.5445 20.7885 35.8366 21.0817 35.8366 21.4169V22.9668C36.0869 22.8831 36.5041 22.7993 36.8796 22.7993C38.1312 22.7993 38.8822 23.6371 38.8822 25.0614V28.1614C38.8822 28.2871 38.757 28.4127 38.6318 28.4127ZM44.3476 26.4438V24.8938C44.3476 23.5952 43.4715 22.7993 42.0112 22.7993C40.551 22.7993 39.6749 23.5952 39.6749 24.8938V26.4438C39.6749 27.7425 40.5927 28.5384 42.0112 28.5384C43.4715 28.5384 44.3476 27.7425 44.3476 26.4438ZM42.0529 24.056C42.5953 24.056 42.8874 24.3911 42.8874 24.8938V26.4438C42.8874 26.9465 42.5953 27.2398 42.0529 27.2398C41.5106 27.2398 41.2185 26.9465 41.2185 26.4438V24.8938C41.2185 24.3493 41.5106 24.056 42.0529 24.056ZM31.2473 26.4438C32.5823 26.4438 33.5836 25.5222 33.5836 24.1817V23.1763C33.5836 21.752 32.5406 20.8304 31.0387 20.8304C30.3711 20.8304 29.7453 20.956 29.1195 21.1655C28.9944 21.2074 28.8692 21.3331 28.8692 21.5006V28.1614C28.8692 28.2871 28.9944 28.4127 29.1195 28.4127H30.0791C30.2043 28.4127 30.3294 28.2871 30.3294 28.1614V26.2763C30.6215 26.4019 30.9135 26.4438 31.2473 26.4438ZM30.997 22.0871C31.6228 22.0871 32.0817 22.4222 32.0817 23.0925H32.1234V24.1398C32.1234 24.7682 31.6645 25.1452 31.0387 25.1452C30.7466 25.1452 30.6215 25.1033 30.3711 24.9776V22.2128C30.3711 22.2128 30.6215 22.0871 30.997 22.0871ZM58.1989 26.4438C59.5339 26.4438 60.5352 25.5222 60.5352 24.1817V23.1763C60.5352 21.752 59.4922 20.8304 57.9903 20.8304C57.3227 20.8304 56.6969 20.956 56.0711 21.1655C55.9459 21.2074 55.8208 21.3331 55.8208 21.5006V28.1614C55.8208 28.2871 55.9459 28.4127 56.0711 28.4127H57.0307C57.1558 28.4127 57.281 28.2871 57.281 28.1614V26.2763C57.5731 26.4019 57.8651 26.4438 58.1989 26.4438ZM57.9485 22.0871C58.5744 22.0871 59.0333 22.4222 59.0333 23.0925H59.075V24.1398C59.075 24.7682 58.6161 25.1452 57.9903 25.1452C57.6982 25.1452 57.5731 25.1033 57.3227 24.9776V22.2128C57.3227 22.2128 57.5731 22.0871 57.9485 22.0871Z" fill="#4D668F"/>
</svg>
