<svg width="76" height="47" viewBox="0 0 76 47" fill="none" xmlns="http://www.w3.org/2000/svg">
<path fill-rule="evenodd" clip-rule="evenodd" d="M17.8416 24.0727C16.9709 27.5549 13.4337 29.6742 9.94093 28.8058C6.44957 27.9376 4.32415 24.4105 5.19526 20.9285C6.06555 17.4458 9.60275 15.3263 13.0945 16.1945C16.5871 17.0627 18.7123 20.5902 17.8416 24.0727ZM14.6273 21.5742C14.7603 20.7093 14.0833 20.2443 13.1577 19.9342L13.458 18.7625L12.7249 18.5848L12.4325 19.7255C12.2398 19.6788 12.0419 19.6348 11.8452 19.5911L12.1396 18.4428L11.4069 18.265L11.1064 19.4363C10.9469 19.4009 10.7903 19.366 10.6383 19.3292L10.6391 19.3256L9.6281 19.08L9.43308 19.8417C9.43308 19.8417 9.97701 19.963 9.96552 19.9705C10.2624 20.0426 10.3161 20.2338 10.3071 20.3853L9.9651 21.7201C9.98557 21.7252 10.0121 21.7325 10.0413 21.7438L10.0164 21.7378L9.96385 21.7252L9.48444 23.595C9.4481 23.6827 9.35603 23.8143 9.14847 23.7644C9.15578 23.7747 8.61561 23.635 8.61561 23.635L8.25166 24.4514L9.20568 24.6827C9.31222 24.7087 9.41749 24.7354 9.52165 24.7618C9.59099 24.7794 9.6599 24.7969 9.72832 24.8139L9.42493 25.999L10.1572 26.1767L10.4577 25.0043C10.6577 25.0571 10.8519 25.1058 11.0419 25.1518L10.7425 26.3187L11.4756 26.4965L11.779 25.3136C13.0291 25.5438 13.9691 25.451 14.3648 24.351C14.6837 23.4654 14.3489 22.9545 13.6912 22.6214C14.1702 22.5139 14.531 22.2074 14.6273 21.5742ZM12.9523 23.8592C12.7444 24.6718 11.437 24.3358 10.8388 24.1821C10.785 24.1683 10.7369 24.156 10.6959 24.1461L11.0985 22.5761C11.1484 22.5882 11.2095 22.6015 11.2786 22.6166C11.8973 22.7517 13.1652 23.0284 12.9523 23.8592ZM13.179 21.5614C12.9895 22.2999 11.9017 22.0175 11.4029 21.888C11.3576 21.8763 11.3171 21.8658 11.2827 21.8574L11.6476 20.4335C11.6895 20.4436 11.7407 20.4546 11.7988 20.4671C12.3152 20.5784 13.3725 20.8061 13.179 21.5614ZM25.9842 20.2126C25.5909 20.0271 25.1227 19.9327 24.5809 19.9327C24.322 19.9327 24.0797 19.9611 23.854 20.0158C23.6285 20.0712 23.4026 20.1474 23.1783 20.2457L24.2259 16.0017L21.6054 16.3968L18.6796 28.3563C19.0068 28.5102 19.3543 28.6315 19.7201 28.7181C20.0862 28.8062 20.4328 28.872 20.7606 28.9165C21.0863 28.9594 21.3772 28.9848 21.6303 28.9898C21.8833 28.9949 22.0625 28.9978 22.1644 28.9978C22.9524 28.9978 23.6864 28.8523 24.3614 28.5614C25.0375 28.2708 25.6238 27.8773 26.1204 27.3782C26.6173 26.8785 27.008 26.2927 27.2959 25.6173C27.5839 24.9429 27.7265 24.2275 27.7265 23.4702C27.7265 22.9772 27.6647 22.5167 27.5415 22.0883C27.4175 21.6611 27.2254 21.2884 26.9673 20.9695C26.7057 20.6522 26.3795 20.3999 25.9842 20.2126ZM23.4986 26.6955C23.1493 26.8809 22.7774 26.9754 22.3828 26.9754L22.079 26.9752C21.999 26.9752 21.9328 26.972 21.875 26.9657C21.8203 26.9602 21.7653 26.9522 21.7157 26.9411C21.6649 26.9307 21.6054 26.9197 21.5382 26.9082L22.6536 22.4011C22.8576 22.2266 23.0852 22.1106 23.3395 22.0548C23.593 22.0022 23.7974 21.9727 23.9561 21.9727C24.4403 21.9727 24.7738 22.1214 24.954 22.417C25.1342 22.7137 25.2246 23.1243 25.2246 23.6506C25.2246 24.079 25.1507 24.4907 25.0045 24.8854C24.8584 25.2801 24.6579 25.6333 24.4046 25.947C24.1514 26.2592 23.849 26.5098 23.4986 26.6955ZM27.941 28.7689H30.4439L32.5748 20.1162H30.0547L27.941 28.7689ZM30.7148 18.7581C30.9958 18.9608 31.3126 19.062 31.6619 19.062C31.8983 19.062 32.12 19.0199 32.3294 18.9311C32.537 18.8432 32.7218 18.7258 32.8786 18.5781C33.0369 18.4294 33.1632 18.2545 33.2586 18.0514C33.3547 17.8482 33.4025 17.6317 33.4025 17.401C33.4025 16.9852 33.2611 16.675 32.9801 16.4712C32.698 16.2685 32.3829 16.1674 32.0338 16.1674C31.7966 16.1674 31.574 16.211 31.3648 16.2984C31.1568 16.3871 30.9737 16.505 30.8156 16.6524C30.6573 16.8011 30.531 16.976 30.4343 17.1791C30.3391 17.3827 30.2911 17.5984 30.2911 17.8283C30.2911 18.2464 30.4314 18.5566 30.7148 18.7581ZM34.7681 17.9607L37.3896 17.5656L36.7458 20.1161H39.5534L39.0464 22.1226H36.2558L35.5124 25.1493C35.4439 25.4016 35.4051 25.6372 35.3943 25.8562C35.3819 26.0761 35.4105 26.2651 35.4782 26.4241C35.5454 26.5836 35.6663 26.7065 35.8417 26.7934C36.0163 26.8818 36.2662 26.9262 36.594 26.9262C36.864 26.9262 37.1271 26.9013 37.3814 26.8517C37.6343 26.8029 37.8905 26.7351 38.1498 26.6463L38.3365 28.5224C37.9982 28.6431 37.632 28.7469 37.2374 28.8342C36.8421 28.9228 36.3742 28.9655 35.8334 28.9655C35.0558 28.9655 34.453 28.8531 34.0235 28.6295C33.5946 28.4042 33.2914 28.0965 33.1099 27.7069C32.931 27.3187 32.851 26.8712 32.8734 26.367C32.8965 25.8616 32.9748 25.3305 33.1099 24.771L34.7681 17.9607ZM39.8155 23.2076C39.5676 23.8655 39.4436 24.5683 39.4436 25.3136C39.4436 25.8062 39.5154 26.2783 39.6562 26.7276C39.7969 27.1773 40.0245 27.5692 40.3415 27.9047C40.6568 28.2395 41.057 28.5038 41.5415 28.7028C42.0257 28.8989 42.6176 28.9984 43.3169 28.9984C43.8467 28.9984 44.3035 28.9511 44.6873 28.8599C45.0703 28.7654 45.4194 28.6575 45.7359 28.5381L45.549 26.5807C45.3116 26.6786 45.0421 26.7615 44.7368 26.8273C44.4338 26.8923 44.1175 26.9257 43.7897 26.9257C43.1255 26.9257 42.668 26.7536 42.4203 26.4077C42.1714 26.0617 42.0474 25.6096 42.0474 25.0504C42.0474 24.1068 42.294 23.3546 42.7836 22.7958C43.2752 22.2374 43.9356 21.9573 44.771 21.9573C45.1208 21.9573 45.4165 21.9922 45.6587 22.0648C45.9007 22.1359 46.1347 22.2143 46.3602 22.3032L47.2234 20.3938C46.8954 20.2407 46.5327 20.1186 46.1318 20.0241C45.7326 19.9305 45.2789 19.8838 44.7708 19.8838C43.9592 19.8838 43.2228 20.0272 42.565 20.3115C41.9042 20.5976 41.3427 20.9872 40.8819 21.4789C40.4194 21.9732 40.0629 22.549 39.8155 23.2076ZM50.5625 28.9984C49.9651 28.9984 49.4462 28.9098 49.0061 28.7345C48.5672 28.5592 48.2036 28.3132 47.9161 27.9943C47.6282 27.677 47.4127 27.301 47.2651 26.8678C47.1174 26.4347 47.0464 25.9551 47.0464 25.4296C47.0464 24.7705 47.1552 24.1115 47.3751 23.4544C47.5939 22.7958 47.9186 22.2041 48.3483 21.6782C48.7747 21.1515 49.3007 20.7209 49.92 20.3851C50.5387 20.0515 51.2503 19.8838 52.0496 19.8838C52.6361 19.8838 53.1523 19.9725 53.5985 20.1478C54.0426 20.3227 54.4085 20.5707 54.6976 20.888C54.9837 21.2069 55.2011 21.5813 55.3472 22.0152C55.4944 22.4475 55.5671 22.9283 55.5671 23.4542C55.5671 24.1113 55.4598 24.7702 55.2468 25.4294C55.0336 26.0853 54.7173 26.6784 54.2997 27.2056C53.8829 27.7315 53.3617 28.1619 52.7357 28.4963C52.1106 28.8306 51.3856 28.9984 50.5625 28.9984ZM51.8134 21.9575C51.4424 21.9575 51.1144 22.0623 50.8335 22.2693C50.5516 22.4787 50.3148 22.742 50.124 23.0595C49.9311 23.3784 49.788 23.7262 49.6914 24.1042C49.5955 24.483 49.5485 24.8411 49.5485 25.1814C49.5485 25.7304 49.6396 26.158 49.8185 26.4658C50 26.7719 50.3259 26.9259 50.7997 26.9259C51.172 26.9259 51.4984 26.8219 51.7809 26.6126C52.0611 26.4048 52.2981 26.1414 52.4904 25.8233C52.6821 25.506 52.8263 25.1572 52.923 24.7786C53.0176 24.401 53.0658 24.0408 53.0658 23.7012C53.0658 23.1535 52.9752 22.7249 52.7946 22.4176C52.6142 22.1115 52.2868 21.9575 51.8134 21.9575ZM55.7893 28.7689H58.2943L60.4243 20.1162H57.903L55.7893 28.7689ZM58.5641 18.7581C58.8447 18.9608 59.1613 19.062 59.5104 19.062C59.748 19.062 59.9702 19.0199 60.1798 18.9311C60.3878 18.8432 60.5703 18.7258 60.729 18.5781C60.8866 18.4294 61.0138 18.2545 61.1084 18.0514C61.2029 17.8482 61.2535 17.6317 61.2535 17.401C61.2535 16.9852 61.1113 16.675 60.8296 16.4712C60.5481 16.2685 60.232 16.1674 59.882 16.1674C59.6457 16.1674 59.4231 16.211 59.2151 16.2984C59.0076 16.3871 58.8228 16.505 58.6656 16.6524C58.5073 16.8011 58.3801 16.976 58.2847 17.1791C58.1893 17.3827 58.1406 17.5984 58.1406 17.8283C58.1406 18.2464 58.2822 18.5566 58.5641 18.7581ZM62.86 20.3202L62.8612 20.3199C63.0927 20.2492 63.3514 20.1834 63.6404 20.1241C63.9263 20.0629 64.2489 20.0133 64.6036 19.975C64.9584 19.9358 65.3626 19.9167 65.8118 19.9167C67.1318 19.9167 68.0418 20.2906 68.5442 21.0363C69.0462 21.782 69.133 22.8025 68.8073 24.096L67.6559 28.768H65.1365L66.2524 24.1944C66.3204 23.9088 66.3739 23.6327 66.4133 23.363C66.4532 23.0956 66.4509 22.86 66.4044 22.6561C66.3599 22.4546 66.2551 22.2896 66.0924 22.1618C65.9272 22.0361 65.6777 21.9729 65.3393 21.9729C65.0129 21.9729 64.6809 22.0071 64.342 22.0729L62.7014 28.7678H60.181L62.2283 20.5096C62.418 20.4557 62.6297 20.3908 62.86 20.3202Z" fill="#4D668F"/>
</svg>
