<svg width="43" height="45" viewBox="0 0 43 45" fill="none" xmlns="http://www.w3.org/2000/svg">
<g clip-path="url(#clip0_271_254)">
<path style="mix-blend-mode:multiply" opacity="0.8" d="M21.5 45.0002C33.3741 45.0002 43 35.4215 43 23.6056C43 11.7896 33.3741 2.21094 21.5 2.21094C9.62588 2.21094 0 11.7896 0 23.6056C0 35.4215 9.62588 45.0002 21.5 45.0002Z" fill="url(#paint0_radial_271_254)"/>
<path d="M30.6836 21.9957V7.79375C30.6836 3.48938 27.177 0 22.8515 0L8.57955 0C4.25397 0 0.747402 3.48938 0.747402 7.79375V21.9957C0.747402 26.3001 4.25397 29.7895 8.57955 29.7895H22.8515C27.177 29.7895 30.6836 26.3001 30.6836 21.9957Z" fill="white"/>
<path d="M20.3637 9.28125C19.8006 9.28125 19.3398 9.73971 19.3398 10.3102C19.3398 10.8808 19.8006 11.3392 20.3637 11.3392C20.9267 11.3392 21.3977 10.8808 21.3977 10.3102C21.3977 9.73971 20.937 9.28125 20.3637 9.28125Z" fill="#2A677A"/>
<path d="M15.7873 10.5957C13.4018 10.5957 11.4668 12.5212 11.4668 14.895C11.4668 17.2688 13.4018 19.1943 15.7873 19.1943C18.1727 19.1943 20.1077 17.2688 20.1077 14.895C20.1077 12.5212 18.1727 10.5957 15.7873 10.5957ZM15.7873 17.6559C14.2618 17.6559 13.023 16.4232 13.023 14.9052C13.023 13.3872 14.2618 12.1545 15.7873 12.1545C17.3127 12.1545 18.5516 13.3872 18.5516 14.9052C18.5516 16.4232 17.3127 17.6559 15.7873 17.6559Z" fill="#2A677A"/>
<path d="M19.2169 23.6261H12.214C9.30641 23.6261 6.94141 21.2727 6.94141 18.3794V11.4108C6.94141 8.51747 9.30641 6.16406 12.214 6.16406H19.2169C22.1245 6.16406 24.4895 8.51747 24.4895 11.4108V18.3794C24.4895 21.2727 22.1245 23.6261 19.2169 23.6261ZM12.2038 7.80432C10.2074 7.80432 8.5795 9.42419 8.5795 11.4108V18.3794C8.5795 20.366 10.2074 21.9859 12.2038 21.9859H19.2066C21.2031 21.9859 22.8309 20.366 22.8309 18.3794V11.4108C22.8309 9.42419 21.2031 7.80432 19.2066 7.80432H12.2038Z" fill="#2A677A"/>
</g>
<defs>
<radialGradient id="paint0_radial_271_254" cx="0" cy="0" r="1" gradientUnits="userSpaceOnUse" gradientTransform="translate(21.5 23.6056) scale(21.5 21.3946)">
<stop stop-color="#000056"/>
<stop offset="0.39" stop-color="#7373A2" stop-opacity="0.55"/>
<stop offset="0.78" stop-color="#D8D8E5" stop-opacity="0.15"/>
<stop offset="1" stop-color="white" stop-opacity="0"/>
</radialGradient>
<clipPath id="clip0_271_254">
<rect width="43" height="45" fill="white"/>
</clipPath>
</defs>
</svg>
