<svg width="43" height="46" viewBox="0 0 43 46" fill="none" xmlns="http://www.w3.org/2000/svg">
<path style="mix-blend-mode:multiply" opacity="0.8" d="M21.5 45.6307C33.3741 45.6307 43 36.0211 43 24.1669C43 12.3128 33.3741 2.70312 21.5 2.70312C9.62588 2.70312 0 12.3128 0 24.1669C0 36.0211 9.62588 45.6307 21.5 45.6307Z" fill="url(#paint0_radial_271_246)"/>
<path d="M30.8799 22.1601V8.24356C30.8799 4.0257 27.4549 0.606445 23.2299 0.606445L9.28988 0.606445C5.0649 0.606445 1.63988 4.0257 1.63988 8.24356V22.1601C1.63988 26.378 5.0649 29.7972 9.28988 29.7972H23.2299C27.4549 29.7972 30.8799 26.378 30.8799 22.1601Z" fill="white"/>
<path d="M10.1302 12.486H12.9602V21.5707H10.1302V12.486ZM11.5502 7.97363C12.4602 7.97363 13.1902 8.7024 13.1902 9.61087C13.1902 10.5193 12.4602 11.2481 11.5502 11.2481C10.6402 11.2481 9.91016 10.5094 9.91016 9.61087C9.91016 8.71239 10.6402 7.97363 11.5502 7.97363Z" fill="#2A677A"/>
<path d="M14.7297 12.4864H17.4397V13.7244H17.4797C17.8597 13.0056 18.7797 12.2568 20.1597 12.2568C23.0197 12.2568 23.5497 14.1337 23.5497 16.5795V21.5611H20.7197V17.1486C20.7197 16.0904 20.6997 14.7426 19.2497 14.7426C17.7997 14.7426 17.5497 15.8907 17.5497 17.0787V21.5711H14.7197V12.4864H14.7297Z" fill="#2A677A"/>
<defs>
<radialGradient id="paint0_radial_271_246" cx="0" cy="0" r="1" gradientUnits="userSpaceOnUse" gradientTransform="translate(21.5 24.1669) scale(21.5 21.4638)">
<stop stop-color="#000056"/>
<stop offset="0.39" stop-color="#7373A2" stop-opacity="0.55"/>
<stop offset="0.78" stop-color="#D8D8E5" stop-opacity="0.15"/>
<stop offset="1" stop-color="white" stop-opacity="0"/>
</radialGradient>
</defs>
</svg>
