<svg width="183" height="44" viewBox="0 0 183 44" fill="none" xmlns="http://www.w3.org/2000/svg">
<path d="M42.8173 0.6655C43.1525 0.82853 43.4039 1.15459 43.3201 1.48065C43.3201 1.64368 43.2363 1.80671 43.0687 1.96974C40.555 4.41519 38.125 6.86064 35.6113 9.22457C34.3544 10.3658 32.8462 10.9364 31.1703 11.1809C30.3324 11.2624 29.4945 11.1809 28.5728 11.1809C23.2102 11.1809 17.8475 11.1809 12.4849 11.1809C10.6415 11.1809 8.88187 11.507 7.20604 12.2406C5.02747 13.1373 3.35165 14.4415 2.34615 16.5609C1.59203 18.1097 1.50824 19.8215 1.59203 21.5333C1.67582 22.43 1.84341 23.3267 2.09478 24.1418C2.09478 24.2233 2.09478 24.2233 2.09478 24.3048C1.9272 24.2233 1.9272 24.0603 1.84341 23.9788C0.837913 22.1855 0.335165 20.3106 0.0837915 18.2727C0.0837915 18.1912 0.0837912 18.1097 0 18.0282C0 17.213 0 16.3164 0 15.5012C0.0837912 15.5012 0.0837915 15.4197 0.0837915 15.3382C0.335165 13.0558 1.00549 10.9364 2.17857 8.98003C3.10028 7.43124 4.10577 5.96397 5.53022 4.74125C7.96017 2.70337 10.8091 1.48065 13.9931 0.747014C14.2445 0.665499 14.4959 0.747014 14.6635 0.583984C24.1319 0.665499 33.5165 0.6655 42.8173 0.6655Z" fill="#F6B100"/>
<path d="M29.0757 32.5375C27.3999 29.8475 25.7241 27.1575 23.9645 24.386C23.1265 23.0003 22.2886 21.6145 21.3669 20.3103C20.6128 19.0876 19.8587 17.9464 19.1046 16.7236C19.0208 16.6421 19.0208 16.5606 18.937 16.3976C17.9315 14.7673 16.926 13.2185 15.9205 11.5882C15.8367 11.4252 15.7529 11.2621 15.5853 11.0991C15.5853 11.0991 15.5853 11.0991 15.5853 11.0176C14.3285 11.0176 12.9878 11.0176 11.7309 11.0176C11.2282 11.0176 10.7254 11.0176 10.1389 11.0176C9.71994 11.1806 9.2172 11.1806 8.79824 11.2621C6.78725 11.6697 5.11143 12.6479 3.68697 14.1151C2.34631 15.5009 1.67599 17.1312 1.42461 19.006C1.42461 19.1691 1.42461 19.4136 1.34082 19.5767C1.34082 19.6582 1.34082 19.7397 1.34082 19.8212C1.34082 20.2288 1.34082 20.5548 1.34082 20.9624C1.34082 21.0439 1.34082 21.1254 1.34082 21.207C1.42461 21.2885 1.42461 21.37 1.42461 21.4515C1.5084 22.4297 1.59219 23.4079 2.01115 24.223C2.59769 25.5272 3.4356 26.6685 4.44109 27.7281C4.52489 27.8097 4.52489 27.8912 4.60868 27.9727C6.45209 29.8475 8.63066 31.1518 11.1444 31.9669C12.5688 32.456 14.0771 32.7006 15.5853 32.7006C20.0263 32.7006 24.3834 32.7006 28.8243 32.7006C28.9081 32.7006 29.0757 32.7006 29.1595 32.7006C29.2433 32.7006 29.1595 32.619 29.0757 32.5375Z" fill="url(#paint0_linear_271_264)"/>
<path d="M0.754339 43.3796C0.419174 43.2165 0.1678 42.8905 0.251592 42.5644C0.251592 42.4014 0.335384 42.2384 0.502966 42.0753C3.0167 39.6299 5.44665 37.1844 7.96038 34.8205C9.21725 33.6793 10.7255 33.1087 12.4013 32.8641C13.2392 32.7826 14.0771 32.8641 14.9988 32.8641C20.3615 32.8641 25.7241 32.8641 31.0868 32.8641C32.9302 32.8641 34.6898 32.5381 36.3656 31.8045C38.5442 30.9078 40.22 29.6035 41.2255 27.4842C41.9796 25.9354 42.0634 24.2236 41.9796 22.5117C41.8958 21.6151 41.7282 20.7184 41.4769 19.9033C41.4769 19.8217 41.4769 19.8217 41.4769 19.7402C41.6445 19.8217 41.6445 19.9848 41.7282 20.0663C42.7337 21.8596 43.2365 23.7345 43.4879 25.7723C43.4879 25.8539 43.4879 25.9354 43.5717 26.0169C43.5717 26.832 43.5717 27.7287 43.5717 28.5439C43.4879 28.5439 43.4879 28.6254 43.4879 28.7069C43.2365 30.9893 42.5662 33.1087 41.3931 35.065C40.4714 36.6138 39.4659 38.0811 38.0414 39.3038C35.6115 41.3417 32.7626 42.5644 29.5785 43.2981C29.3271 43.3796 29.0758 43.2981 28.9082 43.4611C19.4398 43.3796 10.139 43.3796 0.754339 43.3796Z" fill="#2A677A"/>
<path d="M0.754339 43.3796C0.419174 43.2165 0.1678 42.8905 0.251592 42.5644C0.251592 42.4014 0.335384 42.2384 0.502966 42.0753C3.0167 39.6299 5.44665 37.1844 7.96038 34.8205C9.21725 33.6793 10.7255 33.1087 12.4013 32.8641C13.2392 32.7826 14.0771 32.8641 14.9988 32.8641C20.3615 32.8641 25.7241 32.8641 31.0868 32.8641C32.9302 32.8641 34.6898 32.5381 36.3656 31.8045C38.5442 30.9078 40.22 29.6035 41.2255 27.4842C41.9796 25.9354 42.0634 24.2236 41.9796 22.5117C41.8958 21.6151 41.7282 20.7184 41.4769 19.9033C41.4769 19.8217 41.4769 19.8217 41.4769 19.7402C41.6445 19.8217 41.6445 19.9848 41.7282 20.0663C42.7337 21.8596 43.2365 23.7345 43.4879 25.7723C43.4879 25.8539 43.4879 25.9354 43.5717 26.0169C43.5717 26.832 43.5717 27.7287 43.5717 28.5439C43.4879 28.5439 43.4879 28.6254 43.4879 28.7069C43.2365 30.9893 42.5662 33.1087 41.3931 35.065C40.4714 36.6138 39.4659 38.0811 38.0414 39.3038C35.6115 41.3417 32.7626 42.5644 29.5785 43.2981C29.3271 43.3796 29.0758 43.2981 28.9082 43.4611C19.4398 43.3796 10.139 43.3796 0.754339 43.3796Z" fill="#347C93"/>
<path d="M14.4955 11.5065C16.1713 14.1965 17.8471 16.8865 19.6067 19.658C20.4446 21.0438 21.2825 22.4295 22.2042 23.7338C22.9584 24.9565 23.7125 26.0977 24.4666 27.3204C24.5504 27.402 24.5504 27.4835 24.6342 27.6465C25.6397 29.2768 26.6452 30.8256 27.6507 32.4559C27.7345 32.6189 27.8183 32.7819 27.9858 32.945C27.9858 32.945 27.9858 32.945 27.9858 33.0265C29.2427 33.0265 30.5834 33.0265 31.8402 33.0265C32.343 33.0265 32.8457 33.0265 33.4323 33.0265C33.8512 32.8635 34.354 32.8635 34.7729 32.7819C36.7839 32.3744 38.4597 31.3962 39.8842 29.9289C41.2249 28.5432 41.8952 26.9129 42.1466 25.038C42.1466 24.875 42.1466 24.6304 42.2303 24.4674C42.2303 24.3859 42.2303 24.3044 42.2303 24.2229C42.2303 23.8153 42.2303 23.4892 42.2303 23.0817C42.2303 23.0001 42.2303 22.9186 42.2303 22.8371C42.1466 22.7556 42.1466 22.6741 42.1466 22.5926C42.0628 21.6144 41.979 20.6362 41.56 19.8211C40.9735 18.5168 40.1356 17.3756 39.1301 16.3159C39.0463 16.2344 39.0463 16.1529 38.9625 16.0714C37.1191 14.1965 34.9405 12.8923 32.4268 12.0771C31.0023 11.588 29.4941 11.3435 27.9858 11.3435C23.5449 11.3435 19.1878 11.3435 14.7468 11.3435C14.663 11.3435 14.4955 11.3435 14.4117 11.3435C14.3279 11.262 14.4117 11.425 14.4955 11.5065Z" fill="url(#paint1_linear_271_264)"/>
<path d="M14.4955 11.5065C16.1713 14.1965 17.8471 16.8865 19.6067 19.658C20.4446 21.0438 21.2825 22.4295 22.2042 23.7338C22.9584 24.9565 23.7125 26.0977 24.4666 27.3204C24.5504 27.402 24.5504 27.4835 24.6342 27.6465C25.6397 29.2768 26.6452 30.8256 27.6507 32.4559C27.7345 32.6189 27.8183 32.7819 27.9858 32.945C27.9858 32.945 27.9858 32.945 27.9858 33.0265C29.2427 33.0265 30.5834 33.0265 31.8402 33.0265C32.343 33.0265 32.8457 33.0265 33.4323 33.0265C33.8512 32.8635 34.354 32.8635 34.7729 32.7819C36.7839 32.3744 38.4597 31.3962 39.8842 29.9289C41.2249 28.5432 41.8952 26.9129 42.1466 25.038C42.1466 24.875 42.1466 24.6304 42.2303 24.4674C42.2303 24.3859 42.2303 24.3044 42.2303 24.2229C42.2303 23.8153 42.2303 23.4892 42.2303 23.0817C42.2303 23.0001 42.2303 22.9186 42.2303 22.8371C42.1466 22.7556 42.1466 22.6741 42.1466 22.5926C42.0628 21.6144 41.979 20.6362 41.56 19.8211C40.9735 18.5168 40.1356 17.3756 39.1301 16.3159C39.0463 16.2344 39.0463 16.1529 38.9625 16.0714C37.1191 14.1965 34.9405 12.8923 32.4268 12.0771C31.0023 11.588 29.4941 11.3435 27.9858 11.3435C23.5449 11.3435 19.1878 11.3435 14.7468 11.3435C14.663 11.3435 14.4955 11.3435 14.4117 11.3435C14.3279 11.262 14.4117 11.425 14.4955 11.5065Z" fill="url(#paint2_linear_271_264)"/>
<path d="M23.3773 31.2335L12.2331 18.3541C10.5573 16.3978 10.8086 13.5448 12.8196 11.996C14.8306 10.3657 17.7633 10.6102 19.3553 12.5666L30.4996 25.446C32.1754 27.4023 31.924 30.2553 29.913 31.8041C27.9858 33.4344 25.0531 33.1899 23.3773 31.2335Z" fill="white"/>
<g filter="url(#filter0_d_271_264)">
<path d="M26.8966 24.6309C24.8018 24.6309 23.126 26.2612 23.126 28.299C23.126 30.3369 24.8018 31.9672 26.8966 31.9672C28.9914 31.9672 30.6672 30.3369 30.6672 28.299C30.6672 26.2612 28.9076 24.6309 26.8966 24.6309Z" fill="#2A677A"/>
</g>
<path d="M62.245 33.466C59.8258 33.466 57.7158 32.9362 55.9149 31.8767C54.2838 30.8793 53.1299 29.5727 52.4531 27.9569C52.3522 27.7158 52.4707 27.4429 52.7095 27.3369L56.2877 25.7493C56.5308 25.6415 56.8141 25.7438 56.9488 25.973C57.4859 26.8867 58.1761 27.6184 59.0194 28.1681C59.9871 28.7988 61.0623 29.1142 62.245 29.1142C63.1051 29.1142 63.7637 28.9502 64.2206 28.6222C64.6776 28.2942 64.906 27.8401 64.906 27.2599C64.906 26.9571 64.8254 26.7049 64.6641 26.503C64.5029 26.276 64.2609 26.0742 63.9384 25.8976C63.6158 25.721 63.2126 25.5696 62.7288 25.4434L58.9791 24.4595C57.1782 23.9802 55.7939 23.2107 54.8262 22.1512C53.8586 21.0663 53.3748 19.7923 53.3748 18.3291C53.3748 17.0424 53.7242 15.9198 54.4231 14.9611C55.1219 14.0024 56.103 13.2582 57.3664 12.7284C58.6297 12.1734 60.0812 11.8959 61.7208 11.8959C63.8712 11.8959 65.7528 12.3752 67.3655 13.3339C68.8616 14.1856 69.9548 15.3628 70.6453 16.8656C70.7572 17.1093 70.6391 17.3926 70.3936 17.5005L66.8409 19.0626C66.5783 19.1781 66.2755 19.0472 66.1389 18.7949C65.7949 18.1592 65.2764 17.6381 64.5835 17.2316C63.7502 16.7019 62.796 16.437 61.7208 16.437C60.9413 16.437 60.3231 16.5883 59.8661 16.8911C59.4361 17.1938 59.221 17.6101 59.221 18.1399C59.221 18.4174 59.3017 18.6697 59.463 18.8967C59.6242 19.1238 59.8796 19.3256 60.229 19.5022C60.6053 19.6788 61.0623 19.8428 61.5999 19.9941L65.1076 20.978C66.9355 21.4826 68.3332 22.2521 69.3008 23.2864C70.2685 24.2956 70.7523 25.5444 70.7523 27.0328C70.7523 28.3195 70.3895 29.4421 69.6637 30.4008C68.9649 31.3595 67.9838 32.1163 66.7204 32.6713C65.4571 33.2011 63.9653 33.466 62.245 33.466Z" fill="white"/>
<path d="M80.1283 33.0119C79.9185 33.0119 79.7311 32.881 79.6589 32.6841L72.4457 13.0222C72.326 12.6959 72.5675 12.35 72.9151 12.35H78.0962C78.3075 12.35 78.496 12.4829 78.5671 12.6819L83.5278 26.5793C83.6453 26.9084 83.3976 27.2534 83.0482 27.2473L82.3173 27.2346C81.9676 27.2285 81.732 26.8745 81.8615 26.5496L87.3949 12.6649C87.4707 12.4747 87.6547 12.35 87.8594 12.35H92.4221C92.6272 12.35 92.8115 12.4752 92.887 12.666L98.3828 26.5506C98.5113 26.8754 98.2758 27.2285 97.9266 27.2346L97.1938 27.2473C96.8444 27.2534 96.5967 26.9084 96.7142 26.5793L101.675 12.6819C101.746 12.4829 101.935 12.35 102.146 12.35H107.366C107.714 12.35 107.955 12.6965 107.835 13.023L100.583 32.6849C100.511 32.8814 100.324 33.0119 100.114 33.0119H95.5651C95.358 33.0119 95.1724 32.8843 95.0982 32.6911L89.3535 17.7216C89.2278 17.3941 89.4696 17.0424 89.8203 17.0424H90.4603C90.8115 17.0424 91.0533 17.395 90.9267 17.7226L85.1442 32.6921C85.0697 32.8848 84.8844 33.0119 84.6778 33.0119H80.1283Z" fill="white"/>
<path d="M111.249 33.0119C110.973 33.0119 110.749 32.7881 110.749 32.5119V12.85C110.749 12.5738 110.973 12.35 111.249 12.35H116.297C116.573 12.35 116.797 12.5738 116.797 12.85V32.5119C116.797 32.7881 116.573 33.0119 116.297 33.0119H111.249Z" fill="white"/>
<path d="M131.826 33.239C129.165 33.239 127.095 32.5704 125.617 31.2333C124.166 29.871 123.44 27.9789 123.44 25.557V17.7695C123.44 17.4934 123.216 17.2695 122.94 17.2695H120.23C119.954 17.2695 119.73 17.0456 119.73 16.7695V12.5516C119.73 12.4402 119.821 12.35 119.932 12.35C121.061 12.35 121.921 12.0851 122.512 11.5553C123.131 11.0255 123.44 10.2308 123.44 9.17122V8.15752C123.44 7.88138 123.664 7.65752 123.94 7.65752H128.988C129.264 7.65752 129.488 7.88138 129.488 8.15752V11.85C129.488 12.1261 129.712 12.35 129.988 12.35H134.149C134.425 12.35 134.649 12.5738 134.649 12.85V16.7695C134.649 17.0456 134.425 17.2695 134.149 17.2695H129.988C129.712 17.2695 129.488 17.4934 129.488 17.7695V25.1786C129.488 25.8849 129.622 26.4778 129.891 26.9571C130.16 27.4113 130.576 27.7518 131.141 27.9789C131.705 28.2059 132.404 28.3195 133.237 28.3195C133.426 28.3195 133.641 28.3069 133.882 28.2816C133.954 28.2741 134.028 28.2666 134.102 28.2591C134.395 28.2295 134.649 28.4605 134.649 28.7551V32.5706C134.649 32.8227 134.461 33.0356 134.21 33.0643C133.922 33.0973 133.612 33.1303 133.278 33.1633C132.767 33.2138 132.283 33.239 131.826 33.239Z" fill="white"/>
<path d="M148.998 33.466C146.794 33.466 144.805 32.9993 143.031 32.0659C141.284 31.1072 139.886 29.8079 138.838 28.1681C137.816 26.5283 137.306 24.6866 137.306 22.6431C137.306 20.5996 137.816 18.7706 138.838 17.156C139.859 15.5161 141.257 14.2295 143.031 13.296C144.805 12.3626 146.794 11.8959 148.998 11.8959C150.638 11.8959 152.156 12.1608 153.554 12.6906C154.952 13.2204 156.148 13.9646 157.143 14.9233C158.022 15.7482 158.68 16.7111 159.118 17.8119C159.216 18.0574 159.089 18.3306 158.844 18.4296L154.518 20.1784C154.256 20.2845 153.96 20.1504 153.838 19.895C153.45 19.0827 152.871 18.4219 152.103 17.9128C151.216 17.3073 150.181 17.0046 148.998 17.0046C147.95 17.0046 147.009 17.2443 146.176 17.7236C145.369 18.2029 144.724 18.8715 144.24 19.7292C143.783 20.587 143.555 21.5709 143.555 22.681C143.555 23.791 143.783 24.7749 144.24 25.6327C144.724 26.4904 145.369 27.159 146.176 27.6383C147.009 28.1176 147.95 28.3573 148.998 28.3573C150.208 28.3573 151.256 28.0546 152.143 27.4491C152.888 26.9407 153.453 26.281 153.837 25.4702C153.959 25.2134 154.257 25.0795 154.52 25.1877L158.848 26.9688C159.091 27.0688 159.217 27.3406 159.119 27.5843C158.701 28.6204 158.056 29.5592 157.183 30.4008C156.188 31.3595 154.992 32.1163 153.594 32.6713C152.197 33.2011 150.665 33.466 148.998 33.466Z" fill="white"/>
<path d="M163.341 33.0119C163.065 33.0119 162.841 32.7881 162.841 32.5119V4.86523C162.841 4.58909 163.065 4.36523 163.341 4.36523H168.389C168.665 4.36523 168.889 4.58909 168.889 4.86523V15.4736C168.889 15.7928 168.487 15.9338 168.287 15.6843C168.211 15.5883 168.191 15.4578 168.242 15.3457C168.756 14.2025 169.55 13.3553 170.622 12.8041C171.778 12.1986 173.122 11.8959 174.654 11.8959C176.321 11.8959 177.772 12.2238 179.009 12.8798C180.272 13.5357 181.253 14.4565 181.952 15.6423C182.651 16.8028 183 18.1651 183 19.7292V32.5119C183 32.7881 182.777 33.0119 182.5 33.0119H177.453C177.176 33.0119 176.953 32.7881 176.953 32.5119V20.9402C176.953 20.1329 176.778 19.4391 176.428 18.8589C176.106 18.2786 175.635 17.8245 175.017 17.4965C174.426 17.1686 173.727 17.0046 172.921 17.0046C172.141 17.0046 171.442 17.1686 170.824 17.4965C170.206 17.8245 169.722 18.2786 169.373 18.8589C169.05 19.4391 168.889 20.1329 168.889 20.9402V32.5119C168.889 32.7881 168.665 33.0119 168.389 33.0119H163.341Z" fill="white"/>
<path d="M113.857 36.4863H113.426C111.609 36.4863 110.136 37.9596 110.136 39.777C110.136 41.5943 111.609 43.0676 113.426 43.0676H113.857C115.675 43.0676 117.148 41.5943 117.148 39.777C117.148 37.9596 115.674 36.4863 113.857 36.4863Z" fill="#F6B100"/>
<defs>
<filter id="filter0_d_271_264" x="18.126" y="19.6309" width="15.541" height="15.3359" filterUnits="userSpaceOnUse" color-interpolation-filters="sRGB">
<feFlood flood-opacity="0" result="BackgroundImageFix"/>
<feColorMatrix in="SourceAlpha" type="matrix" values="0 0 0 0 0 0 0 0 0 0 0 0 0 0 0 0 0 0 127 0" result="hardAlpha"/>
<feOffset dx="-1" dy="-1"/>
<feGaussianBlur stdDeviation="2"/>
<feComposite in2="hardAlpha" operator="out"/>
<feColorMatrix type="matrix" values="0 0 0 0 0 0 0 0 0 0 0 0 0 0 0 0 0 0 0.15 0"/>
<feBlend mode="normal" in2="BackgroundImageFix" result="effect1_dropShadow_271_264"/>
<feBlend mode="normal" in="SourceGraphic" in2="effect1_dropShadow_271_264" result="shape"/>
</filter>
<linearGradient id="paint0_linear_271_264" x1="6.04251" y1="12.4974" x2="19.5389" y2="36.5266" gradientUnits="userSpaceOnUse">
<stop stop-color="#E09602"/>
<stop offset="1" stop-color="#F4AD01"/>
</linearGradient>
<linearGradient id="paint1_linear_271_264" x1="37.5571" y1="31.5188" x2="24.0628" y2="7.49323" gradientUnits="userSpaceOnUse">
<stop stop-color="#1C4856"/>
<stop offset="1" stop-color="#327083"/>
</linearGradient>
<linearGradient id="paint2_linear_271_264" x1="37.5571" y1="31.5188" x2="24.0628" y2="7.49323" gradientUnits="userSpaceOnUse">
<stop stop-color="#2B6173"/>
<stop offset="1" stop-color="#32788E"/>
</linearGradient>
</defs>
</svg>
