<svg width="42" height="45" viewBox="0 0 42 45" fill="none" xmlns="http://www.w3.org/2000/svg">
<path style="mix-blend-mode:multiply" opacity="0.8" d="M21 44.7017C32.598 44.7017 42 35.3156 42 23.7371C42 12.1587 32.598 2.77246 21 2.77246C9.40202 2.77246 0 12.1587 0 23.7371C0 35.3156 9.40202 44.7017 21 44.7017Z" fill="url(#paint0_radial_271_239)"/>
<path d="M29.5703 22.1601V8.24356C29.5703 4.0257 26.1453 0.606445 21.9203 0.606445L7.98031 0.606445C3.75533 0.606445 0.330313 4.0257 0.330313 8.24356V22.1601C0.330313 26.378 3.75533 29.7972 7.98031 29.7972H21.9203C26.1453 29.7972 29.5703 26.378 29.5703 22.1601Z" fill="white"/>
<path d="M23.0299 10.2005C22.5199 10.4301 21.9599 10.5698 21.4199 10.6597C21.6799 10.6198 22.0599 10.1505 22.2099 9.96087C22.4399 9.67135 22.6399 9.34191 22.7499 8.98252C22.7599 8.95257 22.7699 8.92262 22.7499 8.90265C22.7199 8.89267 22.6899 8.90265 22.6599 8.90265C22.0499 9.23209 21.4199 9.46171 20.7499 9.63142C20.6899 9.6414 20.6499 9.63142 20.6199 9.60147C20.5599 9.54157 20.5099 9.48167 20.4499 9.43176C20.1699 9.19216 19.8699 9.00248 19.5199 8.86272C19.0699 8.68302 18.5799 8.60316 18.0999 8.6331C17.6299 8.66305 17.1699 8.79284 16.7499 9.01246C16.3299 9.23209 15.9599 9.53159 15.6599 9.90097C15.3499 10.2803 15.1299 10.7296 15.0099 11.1988C14.8999 11.658 14.9099 12.1072 14.9799 12.5665C14.9899 12.6463 14.9799 12.6563 14.9099 12.6463C12.2799 12.257 10.1099 11.3186 8.33989 9.31196C8.25989 9.22211 8.21989 9.22211 8.15989 9.31196C7.38989 10.47 7.75989 12.3269 8.72989 13.2453C8.85989 13.3651 8.98989 13.4849 9.12989 13.6047C9.07989 13.6147 8.43989 13.5448 7.85989 13.2453C7.77989 13.1954 7.73989 13.2254 7.73989 13.3152C7.73989 13.445 7.73989 13.5548 7.75989 13.6946C7.90989 14.8626 8.71989 15.9508 9.83989 16.38C9.96989 16.4399 10.1199 16.4799 10.2599 16.5098C10.0099 16.5697 9.73989 16.6097 9.01989 16.5498C8.92989 16.5298 8.88989 16.5797 8.92989 16.6596C9.47989 18.1471 10.6599 18.5863 11.5399 18.8459C11.6599 18.8658 11.7799 18.8658 11.8999 18.8958C11.8999 18.9058 11.8899 18.9058 11.8799 18.9158C11.5899 19.365 10.5699 19.6944 10.0999 19.8642C9.23989 20.1637 8.29989 20.3034 7.38989 20.2136C7.23989 20.1936 7.20989 20.1936 7.16989 20.2136C7.12989 20.2335 7.16989 20.2735 7.20989 20.3134C7.38989 20.4332 7.57989 20.543 7.76989 20.6428C8.34989 20.9523 8.94989 21.1919 9.57989 21.3616C12.8399 22.2601 16.4999 21.6012 18.9499 19.1753C20.8699 17.2685 21.5399 14.643 21.5399 12.0174C21.5399 11.9176 21.6599 11.8577 21.7299 11.8078C22.2299 11.4284 22.6299 10.9891 22.9999 10.48C23.0799 10.3702 23.0799 10.2703 23.0799 10.2304C23.0799 10.1705 23.0799 10.1905 23.0099 10.2204L23.0299 10.2005Z" fill="#2A677A"/>
<defs>
<radialGradient id="paint0_radial_271_239" cx="0" cy="0" r="1" gradientUnits="userSpaceOnUse" gradientTransform="translate(21 23.7371) scale(21 20.9646)">
<stop stop-color="#000056"/>
<stop offset="0.39" stop-color="#7373A2" stop-opacity="0.55"/>
<stop offset="0.78" stop-color="#D8D8E5" stop-opacity="0.15"/>
<stop offset="1" stop-color="white" stop-opacity="0"/>
</radialGradient>
</defs>
</svg>
